<?xml version="1.0" encoding="utf-8" ?>
<svg baseProfile="full" height="136cm" version="1.1" viewBox="-68 -68 136 136" width="136cm" xmlns="http://www.w3.org/2000/svg" xmlns:ev="http://www.w3.org/2001/xml-events" xmlns:xlink="http://www.w3.org/1999/xlink"><defs /><rect fill="white" height="136" width="136" x="-68" y="-68" /><g id="scene" transform="scale(1,-1)"><line stroke="rgb(0,0,255)" stroke-opacity="0.5" stroke-width="0.0026cm" x1="-65" x2="-65" y1="-65" y2="65" /><line stroke="rgb(0,0,255)" stroke-opacity="0.5" stroke-width="0.0026cm" x1="-65" x2="65" y1="-65" y2="-65" /><line stroke="rgb(0,0,255)" stroke-opacity="0.5" stroke-width="0.0026cm" x1="-64" x2="-64" y1="-65" y2="65" /><line stroke="rgb(0,0,255)" stroke-opacity="0.5" stroke-width="0.0026cm" x1="-65" x2="65" y1="-64" y2="-64" /><line stroke="rgb(0,0,255)" stroke-opacity="0.5" stroke-width="0.0026cm" x1="-63" x2="-63" y1="-65" y2="65" /><line stroke="rgb(0,0,255)" stroke-opacity="0.5" stroke-width="0.0026cm" x1="-65" x2="65" y1="-63" y2="-63" /><line stroke="rgb(0,0,255)" stroke-opacity="0.5" stroke-width="0.0026cm" x1="-62" x2="-62" y1="-65" y2="65" /><line stroke="rgb(0,0,255)" stroke-opacity="0.5" stroke-width="0.0026cm" x1="-65" x2="65" y1="-62" y2="-62" /><line stroke="rgb(0,0,255)" stroke-opacity="0.5" stroke-width="0.0026cm" x1="-61" x2="-61" y1="-65" y2="65" /><line stroke="rgb(0,0,255)" stroke-opacity="0.5" stroke-width="0.0026cm" x1="-65" x2="65" y1="-61" y2="-61" /><line stroke="rgb(255,0,0)" stroke-opacity="0.5" stroke-width="0.0026cm" x1="-60" x2="-60" y1="-65" y2="65" /><line stroke="rgb(255,0,0)" stroke-opacity="0.5" stroke-width="0.0026cm" x1="-65" x2="65" y1="-60" y2="-60" /><line stroke="rgb(0,0,255)" stroke-opacity="0.5" stroke-width="0.0026cm" x1="-59" x2="-59" y1="-65" y2="65" /><line stroke="rgb(0,0,255)" stroke-opacity="0.5" stroke-width="0.0026cm" x1="-65" x2="65" y1="-59" y2="-59" /><line stroke="rgb(0,0,255)" stroke-opacity="0.5" stroke-width="0.0026cm" x1="-58" x2="-58" y1="-65" y2="65" /><line stroke="rgb(0,0,255)" stroke-opacity="0.5" stroke-width="0.0026cm" x1="-65" x2="65" y1="-58" y2="-58" /><line stroke="rgb(0,0,255)" stroke-opacity="0.5" stroke-width="0.0026cm" x1="-57" x2="-57" y1="-65" y2="65" /><line stroke="rgb(0,0,255)" stroke-opacity="0.5" stroke-width="0.0026cm" x1="-65" x2="65" y1="-57" y2="-57" /><line stroke="rgb(0,0,255)" stroke-opacity="0.5" stroke-width="0.0026cm" x1="-56" x2="-56" y1="-65" y2="65" /><line stroke="rgb(0,0,255)" stroke-opacity="0.5" stroke-width="0.0026cm" x1="-65" x2="65" y1="-56" y2="-56" /><line stroke="rgb(0,0,255)" stroke-opacity="0.5" stroke-width="0.0026cm" x1="-55" x2="-55" y1="-65" y2="65" /><line stroke="rgb(0,0,255)" stroke-opacity="0.5" stroke-width="0.0026cm" x1="-65" x2="65" y1="-55" y2="-55" /><line stroke="rgb(0,0,255)" stroke-opacity="0.5" stroke-width="0.0026cm" x1="-54" x2="-54" y1="-65" y2="65" /><line stroke="rgb(0,0,255)" stroke-opacity="0.5" stroke-width="0.0026cm" x1="-65" x2="65" y1="-54" y2="-54" /><line stroke="rgb(0,0,255)" stroke-opacity="0.5" stroke-width="0.0026cm" x1="-53" x2="-53" y1="-65" y2="65" /><line stroke="rgb(0,0,255)" stroke-opacity="0.5" stroke-width="0.0026cm" x1="-65" x2="65" y1="-53" y2="-53" /><line stroke="rgb(0,0,255)" stroke-opacity="0.5" stroke-width="0.0026cm" x1="-52" x2="-52" y1="-65" y2="65" /><line stroke="rgb(0,0,255)" stroke-opacity="0.5" stroke-width="0.0026cm" x1="-65" x2="65" y1="-52" y2="-52" /><line stroke="rgb(0,0,255)" stroke-opacity="0.5" stroke-width="0.0026cm" x1="-51" x2="-51" y1="-65" y2="65" /><line stroke="rgb(0,0,255)" stroke-opacity="0.5" stroke-width="0.0026cm" x1="-65" x2="65" y1="-51" y2="-51" /><line stroke="rgb(255,0,0)" stroke-opacity="0.5" stroke-width="0.0026cm" x1="-50" x2="-50" y1="-65" y2="65" /><line stroke="rgb(255,0,0)" stroke-opacity="0.5" stroke-width="0.0026cm" x1="-65" x2="65" y1="-50" y2="-50" /><line stroke="rgb(0,0,255)" stroke-opacity="0.5" stroke-width="0.0026cm" x1="-49" x2="-49" y1="-65" y2="65" /><line stroke="rgb(0,0,255)" stroke-opacity="0.5" stroke-width="0.0026cm" x1="-65" x2="65" y1="-49" y2="-49" /><line stroke="rgb(0,0,255)" stroke-opacity="0.5" stroke-width="0.0026cm" x1="-48" x2="-48" y1="-65" y2="65" /><line stroke="rgb(0,0,255)" stroke-opacity="0.5" stroke-width="0.0026cm" x1="-65" x2="65" y1="-48" y2="-48" /><line stroke="rgb(0,0,255)" stroke-opacity="0.5" stroke-width="0.0026cm" x1="-47" x2="-47" y1="-65" y2="65" /><line stroke="rgb(0,0,255)" stroke-opacity="0.5" stroke-width="0.0026cm" x1="-65" x2="65" y1="-47" y2="-47" /><line stroke="rgb(0,0,255)" stroke-opacity="0.5" stroke-width="0.0026cm" x1="-46" x2="-46" y1="-65" y2="65" /><line stroke="rgb(0,0,255)" stroke-opacity="0.5" stroke-width="0.0026cm" x1="-65" x2="65" y1="-46" y2="-46" /><line stroke="rgb(0,0,255)" stroke-opacity="0.5" stroke-width="0.0026cm" x1="-45" x2="-45" y1="-65" y2="65" /><line stroke="rgb(0,0,255)" stroke-opacity="0.5" stroke-width="0.0026cm" x1="-65" x2="65" y1="-45" y2="-45" /><line stroke="rgb(0,0,255)" stroke-opacity="0.5" stroke-width="0.0026cm" x1="-44" x2="-44" y1="-65" y2="65" /><line stroke="rgb(0,0,255)" stroke-opacity="0.5" stroke-width="0.0026cm" x1="-65" x2="65" y1="-44" y2="-44" /><line stroke="rgb(0,0,255)" stroke-opacity="0.5" stroke-width="0.0026cm" x1="-43" x2="-43" y1="-65" y2="65" /><line stroke="rgb(0,0,255)" stroke-opacity="0.5" stroke-width="0.0026cm" x1="-65" x2="65" y1="-43" y2="-43" /><line stroke="rgb(0,0,255)" stroke-opacity="0.5" stroke-width="0.0026cm" x1="-42" x2="-42" y1="-65" y2="65" /><line stroke="rgb(0,0,255)" stroke-opacity="0.5" stroke-width="0.0026cm" x1="-65" x2="65" y1="-42" y2="-42" /><line stroke="rgb(0,0,255)" stroke-opacity="0.5" stroke-width="0.0026cm" x1="-41" x2="-41" y1="-65" y2="65" /><line stroke="rgb(0,0,255)" stroke-opacity="0.5" stroke-width="0.0026cm" x1="-65" x2="65" y1="-41" y2="-41" /><line stroke="rgb(255,0,0)" stroke-opacity="0.5" stroke-width="0.0026cm" x1="-40" x2="-40" y1="-65" y2="65" /><line stroke="rgb(255,0,0)" stroke-opacity="0.5" stroke-width="0.0026cm" x1="-65" x2="65" y1="-40" y2="-40" /><line stroke="rgb(0,0,255)" stroke-opacity="0.5" stroke-width="0.0026cm" x1="-39" x2="-39" y1="-65" y2="65" /><line stroke="rgb(0,0,255)" stroke-opacity="0.5" stroke-width="0.0026cm" x1="-65" x2="65" y1="-39" y2="-39" /><line stroke="rgb(0,0,255)" stroke-opacity="0.5" stroke-width="0.0026cm" x1="-38" x2="-38" y1="-65" y2="65" /><line stroke="rgb(0,0,255)" stroke-opacity="0.5" stroke-width="0.0026cm" x1="-65" x2="65" y1="-38" y2="-38" /><line stroke="rgb(0,0,255)" stroke-opacity="0.5" stroke-width="0.0026cm" x1="-37" x2="-37" y1="-65" y2="65" /><line stroke="rgb(0,0,255)" stroke-opacity="0.5" stroke-width="0.0026cm" x1="-65" x2="65" y1="-37" y2="-37" /><line stroke="rgb(0,0,255)" stroke-opacity="0.5" stroke-width="0.0026cm" x1="-36" x2="-36" y1="-65" y2="65" /><line stroke="rgb(0,0,255)" stroke-opacity="0.5" stroke-width="0.0026cm" x1="-65" x2="65" y1="-36" y2="-36" /><line stroke="rgb(0,0,255)" stroke-opacity="0.5" stroke-width="0.0026cm" x1="-35" x2="-35" y1="-65" y2="65" /><line stroke="rgb(0,0,255)" stroke-opacity="0.5" stroke-width="0.0026cm" x1="-65" x2="65" y1="-35" y2="-35" /><line stroke="rgb(0,0,255)" stroke-opacity="0.5" stroke-width="0.0026cm" x1="-34" x2="-34" y1="-65" y2="65" /><line stroke="rgb(0,0,255)" stroke-opacity="0.5" stroke-width="0.0026cm" x1="-65" x2="65" y1="-34" y2="-34" /><line stroke="rgb(0,0,255)" stroke-opacity="0.5" stroke-width="0.0026cm" x1="-33" x2="-33" y1="-65" y2="65" /><line stroke="rgb(0,0,255)" stroke-opacity="0.5" stroke-width="0.0026cm" x1="-65" x2="65" y1="-33" y2="-33" /><line stroke="rgb(0,0,255)" stroke-opacity="0.5" stroke-width="0.0026cm" x1="-32" x2="-32" y1="-65" y2="65" /><line stroke="rgb(0,0,255)" stroke-opacity="0.5" stroke-width="0.0026cm" x1="-65" x2="65" y1="-32" y2="-32" /><line stroke="rgb(0,0,255)" stroke-opacity="0.5" stroke-width="0.0026cm" x1="-31" x2="-31" y1="-65" y2="65" /><line stroke="rgb(0,0,255)" stroke-opacity="0.5" stroke-width="0.0026cm" x1="-65" x2="65" y1="-31" y2="-31" /><line stroke="rgb(255,0,0)" stroke-opacity="0.5" stroke-width="0.0026cm" x1="-30" x2="-30" y1="-65" y2="65" /><line stroke="rgb(255,0,0)" stroke-opacity="0.5" stroke-width="0.0026cm" x1="-65" x2="65" y1="-30" y2="-30" /><line stroke="rgb(0,0,255)" stroke-opacity="0.5" stroke-width="0.0026cm" x1="-29" x2="-29" y1="-65" y2="65" /><line stroke="rgb(0,0,255)" stroke-opacity="0.5" stroke-width="0.0026cm" x1="-65" x2="65" y1="-29" y2="-29" /><line stroke="rgb(0,0,255)" stroke-opacity="0.5" stroke-width="0.0026cm" x1="-28" x2="-28" y1="-65" y2="65" /><line stroke="rgb(0,0,255)" stroke-opacity="0.5" stroke-width="0.0026cm" x1="-65" x2="65" y1="-28" y2="-28" /><line stroke="rgb(0,0,255)" stroke-opacity="0.5" stroke-width="0.0026cm" x1="-27" x2="-27" y1="-65" y2="65" /><line stroke="rgb(0,0,255)" stroke-opacity="0.5" stroke-width="0.0026cm" x1="-65" x2="65" y1="-27" y2="-27" /><line stroke="rgb(0,0,255)" stroke-opacity="0.5" stroke-width="0.0026cm" x1="-26" x2="-26" y1="-65" y2="65" /><line stroke="rgb(0,0,255)" stroke-opacity="0.5" stroke-width="0.0026cm" x1="-65" x2="65" y1="-26" y2="-26" /><line stroke="rgb(0,0,255)" stroke-opacity="0.5" stroke-width="0.0026cm" x1="-25" x2="-25" y1="-65" y2="65" /><line stroke="rgb(0,0,255)" stroke-opacity="0.5" stroke-width="0.0026cm" x1="-65" x2="65" y1="-25" y2="-25" /><line stroke="rgb(0,0,255)" stroke-opacity="0.5" stroke-width="0.0026cm" x1="-24" x2="-24" y1="-65" y2="65" /><line stroke="rgb(0,0,255)" stroke-opacity="0.5" stroke-width="0.0026cm" x1="-65" x2="65" y1="-24" y2="-24" /><line stroke="rgb(0,0,255)" stroke-opacity="0.5" stroke-width="0.0026cm" x1="-23" x2="-23" y1="-65" y2="65" /><line stroke="rgb(0,0,255)" stroke-opacity="0.5" stroke-width="0.0026cm" x1="-65" x2="65" y1="-23" y2="-23" /><line stroke="rgb(0,0,255)" stroke-opacity="0.5" stroke-width="0.0026cm" x1="-22" x2="-22" y1="-65" y2="65" /><line stroke="rgb(0,0,255)" stroke-opacity="0.5" stroke-width="0.0026cm" x1="-65" x2="65" y1="-22" y2="-22" /><line stroke="rgb(0,0,255)" stroke-opacity="0.5" stroke-width="0.0026cm" x1="-21" x2="-21" y1="-65" y2="65" /><line stroke="rgb(0,0,255)" stroke-opacity="0.5" stroke-width="0.0026cm" x1="-65" x2="65" y1="-21" y2="-21" /><line stroke="rgb(255,0,0)" stroke-opacity="0.5" stroke-width="0.0026cm" x1="-20" x2="-20" y1="-65" y2="65" /><line stroke="rgb(255,0,0)" stroke-opacity="0.5" stroke-width="0.0026cm" x1="-65" x2="65" y1="-20" y2="-20" /><line stroke="rgb(0,0,255)" stroke-opacity="0.5" stroke-width="0.0026cm" x1="-19" x2="-19" y1="-65" y2="65" /><line stroke="rgb(0,0,255)" stroke-opacity="0.5" stroke-width="0.0026cm" x1="-65" x2="65" y1="-19" y2="-19" /><line stroke="rgb(0,0,255)" stroke-opacity="0.5" stroke-width="0.0026cm" x1="-18" x2="-18" y1="-65" y2="65" /><line stroke="rgb(0,0,255)" stroke-opacity="0.5" stroke-width="0.0026cm" x1="-65" x2="65" y1="-18" y2="-18" /><line stroke="rgb(0,0,255)" stroke-opacity="0.5" stroke-width="0.0026cm" x1="-17" x2="-17" y1="-65" y2="65" /><line stroke="rgb(0,0,255)" stroke-opacity="0.5" stroke-width="0.0026cm" x1="-65" x2="65" y1="-17" y2="-17" /><line stroke="rgb(0,0,255)" stroke-opacity="0.5" stroke-width="0.0026cm" x1="-16" x2="-16" y1="-65" y2="65" /><line stroke="rgb(0,0,255)" stroke-opacity="0.5" stroke-width="0.0026cm" x1="-65" x2="65" y1="-16" y2="-16" /><line stroke="rgb(0,0,255)" stroke-opacity="0.5" stroke-width="0.0026cm" x1="-15" x2="-15" y1="-65" y2="65" /><line stroke="rgb(0,0,255)" stroke-opacity="0.5" stroke-width="0.0026cm" x1="-65" x2="65" y1="-15" y2="-15" /><line stroke="rgb(0,0,255)" stroke-opacity="0.5" stroke-width="0.0026cm" x1="-14" x2="-14" y1="-65" y2="65" /><line stroke="rgb(0,0,255)" stroke-opacity="0.5" stroke-width="0.0026cm" x1="-65" x2="65" y1="-14" y2="-14" /><line stroke="rgb(0,0,255)" stroke-opacity="0.5" stroke-width="0.0026cm" x1="-13" x2="-13" y1="-65" y2="65" /><line stroke="rgb(0,0,255)" stroke-opacity="0.5" stroke-width="0.0026cm" x1="-65" x2="65" y1="-13" y2="-13" /><line stroke="rgb(0,0,255)" stroke-opacity="0.5" stroke-width="0.0026cm" x1="-12" x2="-12" y1="-65" y2="65" /><line stroke="rgb(0,0,255)" stroke-opacity="0.5" stroke-width="0.0026cm" x1="-65" x2="65" y1="-12" y2="-12" /><line stroke="rgb(0,0,255)" stroke-opacity="0.5" stroke-width="0.0026cm" x1="-11" x2="-11" y1="-65" y2="65" /><line stroke="rgb(0,0,255)" stroke-opacity="0.5" stroke-width="0.0026cm" x1="-65" x2="65" y1="-11" y2="-11" /><line stroke="rgb(255,0,0)" stroke-opacity="0.5" stroke-width="0.0026cm" x1="-10" x2="-10" y1="-65" y2="65" /><line stroke="rgb(255,0,0)" stroke-opacity="0.5" stroke-width="0.0026cm" x1="-65" x2="65" y1="-10" y2="-10" /><line stroke="rgb(0,0,255)" stroke-opacity="0.5" stroke-width="0.0026cm" x1="-9" x2="-9" y1="-65" y2="65" /><line stroke="rgb(0,0,255)" stroke-opacity="0.5" stroke-width="0.0026cm" x1="-65" x2="65" y1="-9" y2="-9" /><line stroke="rgb(0,0,255)" stroke-opacity="0.5" stroke-width="0.0026cm" x1="-8" x2="-8" y1="-65" y2="65" /><line stroke="rgb(0,0,255)" stroke-opacity="0.5" stroke-width="0.0026cm" x1="-65" x2="65" y1="-8" y2="-8" /><line stroke="rgb(0,0,255)" stroke-opacity="0.5" stroke-width="0.0026cm" x1="-7" x2="-7" y1="-65" y2="65" /><line stroke="rgb(0,0,255)" stroke-opacity="0.5" stroke-width="0.0026cm" x1="-65" x2="65" y1="-7" y2="-7" /><line stroke="rgb(0,0,255)" stroke-opacity="0.5" stroke-width="0.0026cm" x1="-6" x2="-6" y1="-65" y2="65" /><line stroke="rgb(0,0,255)" stroke-opacity="0.5" stroke-width="0.0026cm" x1="-65" x2="65" y1="-6" y2="-6" /><line stroke="rgb(0,0,255)" stroke-opacity="0.5" stroke-width="0.0026cm" x1="-5" x2="-5" y1="-65" y2="65" /><line stroke="rgb(0,0,255)" stroke-opacity="0.5" stroke-width="0.0026cm" x1="-65" x2="65" y1="-5" y2="-5" /><line stroke="rgb(0,0,255)" stroke-opacity="0.5" stroke-width="0.0026cm" x1="-4" x2="-4" y1="-65" y2="65" /><line stroke="rgb(0,0,255)" stroke-opacity="0.5" stroke-width="0.0026cm" x1="-65" x2="65" y1="-4" y2="-4" /><line stroke="rgb(0,0,255)" stroke-opacity="0.5" stroke-width="0.0026cm" x1="-3" x2="-3" y1="-65" y2="65" /><line stroke="rgb(0,0,255)" stroke-opacity="0.5" stroke-width="0.0026cm" x1="-65" x2="65" y1="-3" y2="-3" /><line stroke="rgb(0,0,255)" stroke-opacity="0.5" stroke-width="0.0026cm" x1="-2" x2="-2" y1="-65" y2="65" /><line stroke="rgb(0,0,255)" stroke-opacity="0.5" stroke-width="0.0026cm" x1="-65" x2="65" y1="-2" y2="-2" /><line stroke="rgb(0,0,255)" stroke-opacity="0.5" stroke-width="0.0026cm" x1="-1" x2="-1" y1="-65" y2="65" /><line stroke="rgb(0,0,255)" stroke-opacity="0.5" stroke-width="0.0026cm" x1="-65" x2="65" y1="-1" y2="-1" /><line stroke="rgb(0,0,255)" stroke-opacity="0.5" stroke-width="0.0026cm" x1="1" x2="1" y1="-65" y2="65" /><line stroke="rgb(0,0,255)" stroke-opacity="0.5" stroke-width="0.0026cm" x1="-65" x2="65" y1="1" y2="1" /><line stroke="rgb(0,0,255)" stroke-opacity="0.5" stroke-width="0.0026cm" x1="2" x2="2" y1="-65" y2="65" /><line stroke="rgb(0,0,255)" stroke-opacity="0.5" stroke-width="0.0026cm" x1="-65" x2="65" y1="2" y2="2" /><line stroke="rgb(0,0,255)" stroke-opacity="0.5" stroke-width="0.0026cm" x1="3" x2="3" y1="-65" y2="65" /><line stroke="rgb(0,0,255)" stroke-opacity="0.5" stroke-width="0.0026cm" x1="-65" x2="65" y1="3" y2="3" /><line stroke="rgb(0,0,255)" stroke-opacity="0.5" stroke-width="0.0026cm" x1="4" x2="4" y1="-65" y2="65" /><line stroke="rgb(0,0,255)" stroke-opacity="0.5" stroke-width="0.0026cm" x1="-65" x2="65" y1="4" y2="4" /><line stroke="rgb(0,0,255)" stroke-opacity="0.5" stroke-width="0.0026cm" x1="5" x2="5" y1="-65" y2="65" /><line stroke="rgb(0,0,255)" stroke-opacity="0.5" stroke-width="0.0026cm" x1="-65" x2="65" y1="5" y2="5" /><line stroke="rgb(0,0,255)" stroke-opacity="0.5" stroke-width="0.0026cm" x1="6" x2="6" y1="-65" y2="65" /><line stroke="rgb(0,0,255)" stroke-opacity="0.5" stroke-width="0.0026cm" x1="-65" x2="65" y1="6" y2="6" /><line stroke="rgb(0,0,255)" stroke-opacity="0.5" stroke-width="0.0026cm" x1="7" x2="7" y1="-65" y2="65" /><line stroke="rgb(0,0,255)" stroke-opacity="0.5" stroke-width="0.0026cm" x1="-65" x2="65" y1="7" y2="7" /><line stroke="rgb(0,0,255)" stroke-opacity="0.5" stroke-width="0.0026cm" x1="8" x2="8" y1="-65" y2="65" /><line stroke="rgb(0,0,255)" stroke-opacity="0.5" stroke-width="0.0026cm" x1="-65" x2="65" y1="8" y2="8" /><line stroke="rgb(0,0,255)" stroke-opacity="0.5" stroke-width="0.0026cm" x1="9" x2="9" y1="-65" y2="65" /><line stroke="rgb(0,0,255)" stroke-opacity="0.5" stroke-width="0.0026cm" x1="-65" x2="65" y1="9" y2="9" /><line stroke="rgb(255,0,0)" stroke-opacity="0.5" stroke-width="0.0026cm" x1="10" x2="10" y1="-65" y2="65" /><line stroke="rgb(255,0,0)" stroke-opacity="0.5" stroke-width="0.0026cm" x1="-65" x2="65" y1="10" y2="10" /><line stroke="rgb(0,0,255)" stroke-opacity="0.5" stroke-width="0.0026cm" x1="11" x2="11" y1="-65" y2="65" /><line stroke="rgb(0,0,255)" stroke-opacity="0.5" stroke-width="0.0026cm" x1="-65" x2="65" y1="11" y2="11" /><line stroke="rgb(0,0,255)" stroke-opacity="0.5" stroke-width="0.0026cm" x1="12" x2="12" y1="-65" y2="65" /><line stroke="rgb(0,0,255)" stroke-opacity="0.5" stroke-width="0.0026cm" x1="-65" x2="65" y1="12" y2="12" /><line stroke="rgb(0,0,255)" stroke-opacity="0.5" stroke-width="0.0026cm" x1="13" x2="13" y1="-65" y2="65" /><line stroke="rgb(0,0,255)" stroke-opacity="0.5" stroke-width="0.0026cm" x1="-65" x2="65" y1="13" y2="13" /><line stroke="rgb(0,0,255)" stroke-opacity="0.5" stroke-width="0.0026cm" x1="14" x2="14" y1="-65" y2="65" /><line stroke="rgb(0,0,255)" stroke-opacity="0.5" stroke-width="0.0026cm" x1="-65" x2="65" y1="14" y2="14" /><line stroke="rgb(0,0,255)" stroke-opacity="0.5" stroke-width="0.0026cm" x1="15" x2="15" y1="-65" y2="65" /><line stroke="rgb(0,0,255)" stroke-opacity="0.5" stroke-width="0.0026cm" x1="-65" x2="65" y1="15" y2="15" /><line stroke="rgb(0,0,255)" stroke-opacity="0.5" stroke-width="0.0026cm" x1="16" x2="16" y1="-65" y2="65" /><line stroke="rgb(0,0,255)" stroke-opacity="0.5" stroke-width="0.0026cm" x1="-65" x2="65" y1="16" y2="16" /><line stroke="rgb(0,0,255)" stroke-opacity="0.5" stroke-width="0.0026cm" x1="17" x2="17" y1="-65" y2="65" /><line stroke="rgb(0,0,255)" stroke-opacity="0.5" stroke-width="0.0026cm" x1="-65" x2="65" y1="17" y2="17" /><line stroke="rgb(0,0,255)" stroke-opacity="0.5" stroke-width="0.0026cm" x1="18" x2="18" y1="-65" y2="65" /><line stroke="rgb(0,0,255)" stroke-opacity="0.5" stroke-width="0.0026cm" x1="-65" x2="65" y1="18" y2="18" /><line stroke="rgb(0,0,255)" stroke-opacity="0.5" stroke-width="0.0026cm" x1="19" x2="19" y1="-65" y2="65" /><line stroke="rgb(0,0,255)" stroke-opacity="0.5" stroke-width="0.0026cm" x1="-65" x2="65" y1="19" y2="19" /><line stroke="rgb(255,0,0)" stroke-opacity="0.5" stroke-width="0.0026cm" x1="20" x2="20" y1="-65" y2="65" /><line stroke="rgb(255,0,0)" stroke-opacity="0.5" stroke-width="0.0026cm" x1="-65" x2="65" y1="20" y2="20" /><line stroke="rgb(0,0,255)" stroke-opacity="0.5" stroke-width="0.0026cm" x1="21" x2="21" y1="-65" y2="65" /><line stroke="rgb(0,0,255)" stroke-opacity="0.5" stroke-width="0.0026cm" x1="-65" x2="65" y1="21" y2="21" /><line stroke="rgb(0,0,255)" stroke-opacity="0.5" stroke-width="0.0026cm" x1="22" x2="22" y1="-65" y2="65" /><line stroke="rgb(0,0,255)" stroke-opacity="0.5" stroke-width="0.0026cm" x1="-65" x2="65" y1="22" y2="22" /><line stroke="rgb(0,0,255)" stroke-opacity="0.5" stroke-width="0.0026cm" x1="23" x2="23" y1="-65" y2="65" /><line stroke="rgb(0,0,255)" stroke-opacity="0.5" stroke-width="0.0026cm" x1="-65" x2="65" y1="23" y2="23" /><line stroke="rgb(0,0,255)" stroke-opacity="0.5" stroke-width="0.0026cm" x1="24" x2="24" y1="-65" y2="65" /><line stroke="rgb(0,0,255)" stroke-opacity="0.5" stroke-width="0.0026cm" x1="-65" x2="65" y1="24" y2="24" /><line stroke="rgb(0,0,255)" stroke-opacity="0.5" stroke-width="0.0026cm" x1="25" x2="25" y1="-65" y2="65" /><line stroke="rgb(0,0,255)" stroke-opacity="0.5" stroke-width="0.0026cm" x1="-65" x2="65" y1="25" y2="25" /><line stroke="rgb(0,0,255)" stroke-opacity="0.5" stroke-width="0.0026cm" x1="26" x2="26" y1="-65" y2="65" /><line stroke="rgb(0,0,255)" stroke-opacity="0.5" stroke-width="0.0026cm" x1="-65" x2="65" y1="26" y2="26" /><line stroke="rgb(0,0,255)" stroke-opacity="0.5" stroke-width="0.0026cm" x1="27" x2="27" y1="-65" y2="65" /><line stroke="rgb(0,0,255)" stroke-opacity="0.5" stroke-width="0.0026cm" x1="-65" x2="65" y1="27" y2="27" /><line stroke="rgb(0,0,255)" stroke-opacity="0.5" stroke-width="0.0026cm" x1="28" x2="28" y1="-65" y2="65" /><line stroke="rgb(0,0,255)" stroke-opacity="0.5" stroke-width="0.0026cm" x1="-65" x2="65" y1="28" y2="28" /><line stroke="rgb(0,0,255)" stroke-opacity="0.5" stroke-width="0.0026cm" x1="29" x2="29" y1="-65" y2="65" /><line stroke="rgb(0,0,255)" stroke-opacity="0.5" stroke-width="0.0026cm" x1="-65" x2="65" y1="29" y2="29" /><line stroke="rgb(255,0,0)" stroke-opacity="0.5" stroke-width="0.0026cm" x1="30" x2="30" y1="-65" y2="65" /><line stroke="rgb(255,0,0)" stroke-opacity="0.5" stroke-width="0.0026cm" x1="-65" x2="65" y1="30" y2="30" /><line stroke="rgb(0,0,255)" stroke-opacity="0.5" stroke-width="0.0026cm" x1="31" x2="31" y1="-65" y2="65" /><line stroke="rgb(0,0,255)" stroke-opacity="0.5" stroke-width="0.0026cm" x1="-65" x2="65" y1="31" y2="31" /><line stroke="rgb(0,0,255)" stroke-opacity="0.5" stroke-width="0.0026cm" x1="32" x2="32" y1="-65" y2="65" /><line stroke="rgb(0,0,255)" stroke-opacity="0.5" stroke-width="0.0026cm" x1="-65" x2="65" y1="32" y2="32" /><line stroke="rgb(0,0,255)" stroke-opacity="0.5" stroke-width="0.0026cm" x1="33" x2="33" y1="-65" y2="65" /><line stroke="rgb(0,0,255)" stroke-opacity="0.5" stroke-width="0.0026cm" x1="-65" x2="65" y1="33" y2="33" /><line stroke="rgb(0,0,255)" stroke-opacity="0.5" stroke-width="0.0026cm" x1="34" x2="34" y1="-65" y2="65" /><line stroke="rgb(0,0,255)" stroke-opacity="0.5" stroke-width="0.0026cm" x1="-65" x2="65" y1="34" y2="34" /><line stroke="rgb(0,0,255)" stroke-opacity="0.5" stroke-width="0.0026cm" x1="35" x2="35" y1="-65" y2="65" /><line stroke="rgb(0,0,255)" stroke-opacity="0.5" stroke-width="0.0026cm" x1="-65" x2="65" y1="35" y2="35" /><line stroke="rgb(0,0,255)" stroke-opacity="0.5" stroke-width="0.0026cm" x1="36" x2="36" y1="-65" y2="65" /><line stroke="rgb(0,0,255)" stroke-opacity="0.5" stroke-width="0.0026cm" x1="-65" x2="65" y1="36" y2="36" /><line stroke="rgb(0,0,255)" stroke-opacity="0.5" stroke-width="0.0026cm" x1="37" x2="37" y1="-65" y2="65" /><line stroke="rgb(0,0,255)" stroke-opacity="0.5" stroke-width="0.0026cm" x1="-65" x2="65" y1="37" y2="37" /><line stroke="rgb(0,0,255)" stroke-opacity="0.5" stroke-width="0.0026cm" x1="38" x2="38" y1="-65" y2="65" /><line stroke="rgb(0,0,255)" stroke-opacity="0.5" stroke-width="0.0026cm" x1="-65" x2="65" y1="38" y2="38" /><line stroke="rgb(0,0,255)" stroke-opacity="0.5" stroke-width="0.0026cm" x1="39" x2="39" y1="-65" y2="65" /><line stroke="rgb(0,0,255)" stroke-opacity="0.5" stroke-width="0.0026cm" x1="-65" x2="65" y1="39" y2="39" /><line stroke="rgb(255,0,0)" stroke-opacity="0.5" stroke-width="0.0026cm" x1="40" x2="40" y1="-65" y2="65" /><line stroke="rgb(255,0,0)" stroke-opacity="0.5" stroke-width="0.0026cm" x1="-65" x2="65" y1="40" y2="40" /><line stroke="rgb(0,0,255)" stroke-opacity="0.5" stroke-width="0.0026cm" x1="41" x2="41" y1="-65" y2="65" /><line stroke="rgb(0,0,255)" stroke-opacity="0.5" stroke-width="0.0026cm" x1="-65" x2="65" y1="41" y2="41" /><line stroke="rgb(0,0,255)" stroke-opacity="0.5" stroke-width="0.0026cm" x1="42" x2="42" y1="-65" y2="65" /><line stroke="rgb(0,0,255)" stroke-opacity="0.5" stroke-width="0.0026cm" x1="-65" x2="65" y1="42" y2="42" /><line stroke="rgb(0,0,255)" stroke-opacity="0.5" stroke-width="0.0026cm" x1="43" x2="43" y1="-65" y2="65" /><line stroke="rgb(0,0,255)" stroke-opacity="0.5" stroke-width="0.0026cm" x1="-65" x2="65" y1="43" y2="43" /><line stroke="rgb(0,0,255)" stroke-opacity="0.5" stroke-width="0.0026cm" x1="44" x2="44" y1="-65" y2="65" /><line stroke="rgb(0,0,255)" stroke-opacity="0.5" stroke-width="0.0026cm" x1="-65" x2="65" y1="44" y2="44" /><line stroke="rgb(0,0,255)" stroke-opacity="0.5" stroke-width="0.0026cm" x1="45" x2="45" y1="-65" y2="65" /><line stroke="rgb(0,0,255)" stroke-opacity="0.5" stroke-width="0.0026cm" x1="-65" x2="65" y1="45" y2="45" /><line stroke="rgb(0,0,255)" stroke-opacity="0.5" stroke-width="0.0026cm" x1="46" x2="46" y1="-65" y2="65" /><line stroke="rgb(0,0,255)" stroke-opacity="0.5" stroke-width="0.0026cm" x1="-65" x2="65" y1="46" y2="46" /><line stroke="rgb(0,0,255)" stroke-opacity="0.5" stroke-width="0.0026cm" x1="47" x2="47" y1="-65" y2="65" /><line stroke="rgb(0,0,255)" stroke-opacity="0.5" stroke-width="0.0026cm" x1="-65" x2="65" y1="47" y2="47" /><line stroke="rgb(0,0,255)" stroke-opacity="0.5" stroke-width="0.0026cm" x1="48" x2="48" y1="-65" y2="65" /><line stroke="rgb(0,0,255)" stroke-opacity="0.5" stroke-width="0.0026cm" x1="-65" x2="65" y1="48" y2="48" /><line stroke="rgb(0,0,255)" stroke-opacity="0.5" stroke-width="0.0026cm" x1="49" x2="49" y1="-65" y2="65" /><line stroke="rgb(0,0,255)" stroke-opacity="0.5" stroke-width="0.0026cm" x1="-65" x2="65" y1="49" y2="49" /><line stroke="rgb(255,0,0)" stroke-opacity="0.5" stroke-width="0.0026cm" x1="50" x2="50" y1="-65" y2="65" /><line stroke="rgb(255,0,0)" stroke-opacity="0.5" stroke-width="0.0026cm" x1="-65" x2="65" y1="50" y2="50" /><line stroke="rgb(0,0,255)" stroke-opacity="0.5" stroke-width="0.0026cm" x1="51" x2="51" y1="-65" y2="65" /><line stroke="rgb(0,0,255)" stroke-opacity="0.5" stroke-width="0.0026cm" x1="-65" x2="65" y1="51" y2="51" /><line stroke="rgb(0,0,255)" stroke-opacity="0.5" stroke-width="0.0026cm" x1="52" x2="52" y1="-65" y2="65" /><line stroke="rgb(0,0,255)" stroke-opacity="0.5" stroke-width="0.0026cm" x1="-65" x2="65" y1="52" y2="52" /><line stroke="rgb(0,0,255)" stroke-opacity="0.5" stroke-width="0.0026cm" x1="53" x2="53" y1="-65" y2="65" /><line stroke="rgb(0,0,255)" stroke-opacity="0.5" stroke-width="0.0026cm" x1="-65" x2="65" y1="53" y2="53" /><line stroke="rgb(0,0,255)" stroke-opacity="0.5" stroke-width="0.0026cm" x1="54" x2="54" y1="-65" y2="65" /><line stroke="rgb(0,0,255)" stroke-opacity="0.5" stroke-width="0.0026cm" x1="-65" x2="65" y1="54" y2="54" /><line stroke="rgb(0,0,255)" stroke-opacity="0.5" stroke-width="0.0026cm" x1="55" x2="55" y1="-65" y2="65" /><line stroke="rgb(0,0,255)" stroke-opacity="0.5" stroke-width="0.0026cm" x1="-65" x2="65" y1="55" y2="55" /><line stroke="rgb(0,0,255)" stroke-opacity="0.5" stroke-width="0.0026cm" x1="56" x2="56" y1="-65" y2="65" /><line stroke="rgb(0,0,255)" stroke-opacity="0.5" stroke-width="0.0026cm" x1="-65" x2="65" y1="56" y2="56" /><line stroke="rgb(0,0,255)" stroke-opacity="0.5" stroke-width="0.0026cm" x1="57" x2="57" y1="-65" y2="65" /><line stroke="rgb(0,0,255)" stroke-opacity="0.5" stroke-width="0.0026cm" x1="-65" x2="65" y1="57" y2="57" /><line stroke="rgb(0,0,255)" stroke-opacity="0.5" stroke-width="0.0026cm" x1="58" x2="58" y1="-65" y2="65" /><line stroke="rgb(0,0,255)" stroke-opacity="0.5" stroke-width="0.0026cm" x1="-65" x2="65" y1="58" y2="58" /><line stroke="rgb(0,0,255)" stroke-opacity="0.5" stroke-width="0.0026cm" x1="59" x2="59" y1="-65" y2="65" /><line stroke="rgb(0,0,255)" stroke-opacity="0.5" stroke-width="0.0026cm" x1="-65" x2="65" y1="59" y2="59" /><line stroke="rgb(255,0,0)" stroke-opacity="0.5" stroke-width="0.0026cm" x1="60" x2="60" y1="-65" y2="65" /><line stroke="rgb(255,0,0)" stroke-opacity="0.5" stroke-width="0.0026cm" x1="-65" x2="65" y1="60" y2="60" /><line stroke="rgb(0,0,255)" stroke-opacity="0.5" stroke-width="0.0026cm" x1="61" x2="61" y1="-65" y2="65" /><line stroke="rgb(0,0,255)" stroke-opacity="0.5" stroke-width="0.0026cm" x1="-65" x2="65" y1="61" y2="61" /><line stroke="rgb(0,0,255)" stroke-opacity="0.5" stroke-width="0.0026cm" x1="62" x2="62" y1="-65" y2="65" /><line stroke="rgb(0,0,255)" stroke-opacity="0.5" stroke-width="0.0026cm" x1="-65" x2="65" y1="62" y2="62" /><line stroke="rgb(0,0,255)" stroke-opacity="0.5" stroke-width="0.0026cm" x1="63" x2="63" y1="-65" y2="65" /><line stroke="rgb(0,0,255)" stroke-opacity="0.5" stroke-width="0.0026cm" x1="-65" x2="65" y1="63" y2="63" /><line stroke="rgb(0,0,255)" stroke-opacity="0.5" stroke-width="0.0026cm" x1="64" x2="64" y1="-65" y2="65" /><line stroke="rgb(0,0,255)" stroke-opacity="0.5" stroke-width="0.0026cm" x1="-65" x2="65" y1="64" y2="64" /><line stroke="rgb(0,0,255)" stroke-opacity="0.5" stroke-width="0.0026cm" x1="65" x2="65" y1="-65" y2="65" /><line stroke="rgb(0,0,255)" stroke-opacity="0.5" stroke-width="0.0026cm" x1="-65" x2="65" y1="65" y2="65" /><line stroke="red" stroke-opacity="0.5" stroke-width="0.0052cm" x1="0" x2="0" y1="-65" y2="65" /><line stroke="red" stroke-opacity="0.5" stroke-width="0.0052cm" x1="-65" x2="65" y1="0" y2="0" /><g id="labels" transform="scale(1,-1)"><text fill="rgb(255,0,0)" font-size=".05cm" text-anchor="middle" x="10" y="-66">+10</text><text fill="rgb(255,0,0)" font-size=".05cm" text-anchor="middle" x="10" y="67">+10</text><text fill="rgb(255,0,0)" font-size=".05cm" text-anchor="middle" x="-10" y="-66">-10</text><text fill="rgb(255,0,0)" font-size=".05cm" text-anchor="middle" x="-10" y="67">-10</text><text fill="rgb(255,0,0)" font-size=".05cm" text-anchor="middle" x="20" y="-66">+20</text><text fill="rgb(255,0,0)" font-size=".05cm" text-anchor="middle" x="20" y="67">+20</text><text fill="rgb(255,0,0)" font-size=".05cm" text-anchor="middle" x="-20" y="-66">-20</text><text fill="rgb(255,0,0)" font-size=".05cm" text-anchor="middle" x="-20" y="67">-20</text><text fill="rgb(255,0,0)" font-size=".05cm" text-anchor="middle" x="30" y="-66">+30</text><text fill="rgb(255,0,0)" font-size=".05cm" text-anchor="middle" x="30" y="67">+30</text><text fill="rgb(255,0,0)" font-size=".05cm" text-anchor="middle" x="-30" y="-66">-30</text><text fill="rgb(255,0,0)" font-size=".05cm" text-anchor="middle" x="-30" y="67">-30</text><text fill="rgb(255,0,0)" font-size=".05cm" text-anchor="middle" x="40" y="-66">+40</text><text fill="rgb(255,0,0)" font-size=".05cm" text-anchor="middle" x="40" y="67">+40</text><text fill="rgb(255,0,0)" font-size=".05cm" text-anchor="middle" x="-40" y="-66">-40</text><text fill="rgb(255,0,0)" font-size=".05cm" text-anchor="middle" x="-40" y="67">-40</text><text fill="rgb(255,0,0)" font-size=".05cm" text-anchor="middle" x="50" y="-66">+50</text><text fill="rgb(255,0,0)" font-size=".05cm" text-anchor="middle" x="50" y="67">+50</text><text fill="rgb(255,0,0)" font-size=".05cm" text-anchor="middle" x="-50" y="-66">-50</text><text fill="rgb(255,0,0)" font-size=".05cm" text-anchor="middle" x="-50" y="67">-50</text><text fill="rgb(255,0,0)" font-size=".05cm" text-anchor="middle" x="60" y="-66">+60</text><text fill="rgb(255,0,0)" font-size=".05cm" text-anchor="middle" x="60" y="67">+60</text><text fill="rgb(255,0,0)" font-size=".05cm" text-anchor="middle" x="-60" y="-66">-60</text><text fill="rgb(255,0,0)" font-size=".05cm" text-anchor="middle" x="-60" y="67">-60</text><text dominant-baseline="central" fill="rgb(255,0,0)" font-size=".05cm" text-anchor="middle" x="-66.5" y="10">+10</text><text dominant-baseline="central" fill="rgb(255,0,0)" font-size=".05cm" text-anchor="middle" x="66.5" y="10">+10</text><text dominant-baseline="central" fill="rgb(255,0,0)" font-size=".05cm" text-anchor="middle" x="-66.5" y="-10">-10</text><text dominant-baseline="central" fill="rgb(255,0,0)" font-size=".05cm" text-anchor="middle" x="66.5" y="-10">-10</text><text dominant-baseline="central" fill="rgb(255,0,0)" font-size=".05cm" text-anchor="middle" x="-66.5" y="20">+20</text><text dominant-baseline="central" fill="rgb(255,0,0)" font-size=".05cm" text-anchor="middle" x="66.5" y="20">+20</text><text dominant-baseline="central" fill="rgb(255,0,0)" font-size=".05cm" text-anchor="middle" x="-66.5" y="-20">-20</text><text dominant-baseline="central" fill="rgb(255,0,0)" font-size=".05cm" text-anchor="middle" x="66.5" y="-20">-20</text><text dominant-baseline="central" fill="rgb(255,0,0)" font-size=".05cm" text-anchor="middle" x="-66.5" y="30">+30</text><text dominant-baseline="central" fill="rgb(255,0,0)" font-size=".05cm" text-anchor="middle" x="66.5" y="30">+30</text><text dominant-baseline="central" fill="rgb(255,0,0)" font-size=".05cm" text-anchor="middle" x="-66.5" y="-30">-30</text><text dominant-baseline="central" fill="rgb(255,0,0)" font-size=".05cm" text-anchor="middle" x="66.5" y="-30">-30</text><text dominant-baseline="central" fill="rgb(255,0,0)" font-size=".05cm" text-anchor="middle" x="-66.5" y="40">+40</text><text dominant-baseline="central" fill="rgb(255,0,0)" font-size=".05cm" text-anchor="middle" x="66.5" y="40">+40</text><text dominant-baseline="central" fill="rgb(255,0,0)" font-size=".05cm" text-anchor="middle" x="-66.5" y="-40">-40</text><text dominant-baseline="central" fill="rgb(255,0,0)" font-size=".05cm" text-anchor="middle" x="66.5" y="-40">-40</text><text dominant-baseline="central" fill="rgb(255,0,0)" font-size=".05cm" text-anchor="middle" x="-66.5" y="50">+50</text><text dominant-baseline="central" fill="rgb(255,0,0)" font-size=".05cm" text-anchor="middle" x="66.5" y="50">+50</text><text dominant-baseline="central" fill="rgb(255,0,0)" font-size=".05cm" text-anchor="middle" x="-66.5" y="-50">-50</text><text dominant-baseline="central" fill="rgb(255,0,0)" font-size=".05cm" text-anchor="middle" x="66.5" y="-50">-50</text><text dominant-baseline="central" fill="rgb(255,0,0)" font-size=".05cm" text-anchor="middle" x="-66.5" y="60">+60</text><text dominant-baseline="central" fill="rgb(255,0,0)" font-size=".05cm" text-anchor="middle" x="66.5" y="60">+60</text><text dominant-baseline="central" fill="rgb(255,0,0)" font-size=".05cm" text-anchor="middle" x="-66.5" y="-60">-60</text><text dominant-baseline="central" fill="rgb(255,0,0)" font-size=".05cm" text-anchor="middle" x="66.5" y="-60">-60</text></g></g></svg>