<?xml version="1.0" encoding="utf-8"?>
<!-- SZT 15.11.2025 -->
<svg xmlns="http://www.w3.org/2000/svg" baseProfile="full" width="69cm" height="69cm" version="1.1" viewBox="-69 -69 138 138">
<defs>
<style id="grid_style" type="text/css">
 #grid line { stroke-width:.001cm; stroke:rgba(0,0,255,.7); }
 #grid .axis-line { stroke-width:.001cm; stroke:rgba(150,0,0,.9); }
 #grid .axis-null-line { stroke-width:.002cm; stroke:rgba(0,120,0,.9); }
 #grid text { fill:rgba(150,0,0,.9); font-size:.045cm; dominant-baseline:central; text-anchor:middle; }
 #grid #header { font-variant: small-caps; fill:rgb(0,0,80); font-size:.07cm; }
 #grid .axis-text { fill:rgb(0,80,0); font-size:.05cm; }
 #bgnd { fill:rgba(255,255,255,1); }
 circle { fill:none; stroke-width:.01mm; stroke:rgba(0,0,0,.5); }
 path { fill:rgba(48,96,155,.5); stroke:none; }
 .marker { fill:rgba(255,0,0,1); stroke:none; }
 #wheel { fill:rgba(48,96,144,.5); stroke:none; }
 #driver { fill:rgba(144,96,48,.5); stroke:none; }
</style>
</defs>
<g id="grid" transform="scale(1,-1)">
<rect id="bgnd" height="138" width="138" x="-69" y="-69"/>
<line x1="-65" x2="-65" y1="-65" y2="65"/>
<line x1="-65" x2="65" y1="-65" y2="-65"/>
<line x1="-64" x2="-64" y1="-65" y2="65"/>
<line x1="-65" x2="65" y1="-64" y2="-64"/>
<line x1="-63" x2="-63" y1="-65" y2="65"/>
<line x1="-65" x2="65" y1="-63" y2="-63"/>
<line x1="-62" x2="-62" y1="-65" y2="65"/>
<line x1="-65" x2="65" y1="-62" y2="-62"/>
<line x1="-61" x2="-61" y1="-65" y2="65"/>
<line x1="-65" x2="65" y1="-61" y2="-61"/>
<line class="axis-line" x1="-60" x2="-60" y1="-65" y2="65"/>
<line class="axis-line" x1="-65" x2="65" y1="-60" y2="-60"/>
<line x1="-59" x2="-59" y1="-65" y2="65"/>
<line x1="-65" x2="65" y1="-59" y2="-59"/>
<line x1="-58" x2="-58" y1="-65" y2="65"/>
<line x1="-65" x2="65" y1="-58" y2="-58"/>
<line x1="-57" x2="-57" y1="-65" y2="65"/>
<line x1="-65" x2="65" y1="-57" y2="-57"/>
<line x1="-56" x2="-56" y1="-65" y2="65"/>
<line x1="-65" x2="65" y1="-56" y2="-56"/>
<line x1="-55" x2="-55" y1="-65" y2="65"/>
<line x1="-65" x2="65" y1="-55" y2="-55"/>
<line x1="-54" x2="-54" y1="-65" y2="65"/>
<line x1="-65" x2="65" y1="-54" y2="-54"/>
<line x1="-53" x2="-53" y1="-65" y2="65"/>
<line x1="-65" x2="65" y1="-53" y2="-53"/>
<line x1="-52" x2="-52" y1="-65" y2="65"/>
<line x1="-65" x2="65" y1="-52" y2="-52"/>
<line x1="-51" x2="-51" y1="-65" y2="65"/>
<line x1="-65" x2="65" y1="-51" y2="-51"/>
<line class="axis-line" x1="-50" x2="-50" y1="-65" y2="65"/>
<line class="axis-line" x1="-65" x2="65" y1="-50" y2="-50"/>
<line x1="-49" x2="-49" y1="-65" y2="65"/>
<line x1="-65" x2="65" y1="-49" y2="-49"/>
<line x1="-48" x2="-48" y1="-65" y2="65"/>
<line x1="-65" x2="65" y1="-48" y2="-48"/>
<line x1="-47" x2="-47" y1="-65" y2="65"/>
<line x1="-65" x2="65" y1="-47" y2="-47"/>
<line x1="-46" x2="-46" y1="-65" y2="65"/>
<line x1="-65" x2="65" y1="-46" y2="-46"/>
<line x1="-45" x2="-45" y1="-65" y2="65"/>
<line x1="-65" x2="65" y1="-45" y2="-45"/>
<line x1="-44" x2="-44" y1="-65" y2="65"/>
<line x1="-65" x2="65" y1="-44" y2="-44"/>
<line x1="-43" x2="-43" y1="-65" y2="65"/>
<line x1="-65" x2="65" y1="-43" y2="-43"/>
<line x1="-42" x2="-42" y1="-65" y2="65"/>
<line x1="-65" x2="65" y1="-42" y2="-42"/>
<line x1="-41" x2="-41" y1="-65" y2="65"/>
<line x1="-65" x2="65" y1="-41" y2="-41"/>
<line class="axis-line" x1="-40" x2="-40" y1="-65" y2="65"/>
<line class="axis-line" x1="-65" x2="65" y1="-40" y2="-40"/>
<line x1="-39" x2="-39" y1="-65" y2="65"/>
<line x1="-65" x2="65" y1="-39" y2="-39"/>
<line x1="-38" x2="-38" y1="-65" y2="65"/>
<line x1="-65" x2="65" y1="-38" y2="-38"/>
<line x1="-37" x2="-37" y1="-65" y2="65"/>
<line x1="-65" x2="65" y1="-37" y2="-37"/>
<line x1="-36" x2="-36" y1="-65" y2="65"/>
<line x1="-65" x2="65" y1="-36" y2="-36"/>
<line x1="-35" x2="-35" y1="-65" y2="65"/>
<line x1="-65" x2="65" y1="-35" y2="-35"/>
<line x1="-34" x2="-34" y1="-65" y2="65"/>
<line x1="-65" x2="65" y1="-34" y2="-34"/>
<line x1="-33" x2="-33" y1="-65" y2="65"/>
<line x1="-65" x2="65" y1="-33" y2="-33"/>
<line x1="-32" x2="-32" y1="-65" y2="65"/>
<line x1="-65" x2="65" y1="-32" y2="-32"/>
<line x1="-31" x2="-31" y1="-65" y2="65"/>
<line x1="-65" x2="65" y1="-31" y2="-31"/>
<line class="axis-line" x1="-30" x2="-30" y1="-65" y2="65"/>
<line class="axis-line" x1="-65" x2="65" y1="-30" y2="-30"/>
<line x1="-29" x2="-29" y1="-65" y2="65"/>
<line x1="-65" x2="65" y1="-29" y2="-29"/>
<line x1="-28" x2="-28" y1="-65" y2="65"/>
<line x1="-65" x2="65" y1="-28" y2="-28"/>
<line x1="-27" x2="-27" y1="-65" y2="65"/>
<line x1="-65" x2="65" y1="-27" y2="-27"/>
<line x1="-26" x2="-26" y1="-65" y2="65"/>
<line x1="-65" x2="65" y1="-26" y2="-26"/>
<line x1="-25" x2="-25" y1="-65" y2="65"/>
<line x1="-65" x2="65" y1="-25" y2="-25"/>
<line x1="-24" x2="-24" y1="-65" y2="65"/>
<line x1="-65" x2="65" y1="-24" y2="-24"/>
<line x1="-23" x2="-23" y1="-65" y2="65"/>
<line x1="-65" x2="65" y1="-23" y2="-23"/>
<line x1="-22" x2="-22" y1="-65" y2="65"/>
<line x1="-65" x2="65" y1="-22" y2="-22"/>
<line x1="-21" x2="-21" y1="-65" y2="65"/>
<line x1="-65" x2="65" y1="-21" y2="-21"/>
<line class="axis-line" x1="-20" x2="-20" y1="-65" y2="65"/>
<line class="axis-line" x1="-65" x2="65" y1="-20" y2="-20"/>
<line x1="-19" x2="-19" y1="-65" y2="65"/>
<line x1="-65" x2="65" y1="-19" y2="-19"/>
<line x1="-18" x2="-18" y1="-65" y2="65"/>
<line x1="-65" x2="65" y1="-18" y2="-18"/>
<line x1="-17" x2="-17" y1="-65" y2="65"/>
<line x1="-65" x2="65" y1="-17" y2="-17"/>
<line x1="-16" x2="-16" y1="-65" y2="65"/>
<line x1="-65" x2="65" y1="-16" y2="-16"/>
<line x1="-15" x2="-15" y1="-65" y2="65"/>
<line x1="-65" x2="65" y1="-15" y2="-15"/>
<line x1="-14" x2="-14" y1="-65" y2="65"/>
<line x1="-65" x2="65" y1="-14" y2="-14"/>
<line x1="-13" x2="-13" y1="-65" y2="65"/>
<line x1="-65" x2="65" y1="-13" y2="-13"/>
<line x1="-12" x2="-12" y1="-65" y2="65"/>
<line x1="-65" x2="65" y1="-12" y2="-12"/>
<line x1="-11" x2="-11" y1="-65" y2="65"/>
<line x1="-65" x2="65" y1="-11" y2="-11"/>
<line class="axis-line" x1="-10" x2="-10" y1="-65" y2="65"/>
<line class="axis-line" x1="-65" x2="65" y1="-10" y2="-10"/>
<line x1="-9" x2="-9" y1="-65" y2="65"/>
<line x1="-65" x2="65" y1="-9" y2="-9"/>
<line x1="-8" x2="-8" y1="-65" y2="65"/>
<line x1="-65" x2="65" y1="-8" y2="-8"/>
<line x1="-7" x2="-7" y1="-65" y2="65"/>
<line x1="-65" x2="65" y1="-7" y2="-7"/>
<line x1="-6" x2="-6" y1="-65" y2="65"/>
<line x1="-65" x2="65" y1="-6" y2="-6"/>
<line x1="-5" x2="-5" y1="-65" y2="65"/>
<line x1="-65" x2="65" y1="-5" y2="-5"/>
<line x1="-4" x2="-4" y1="-65" y2="65"/>
<line x1="-65" x2="65" y1="-4" y2="-4"/>
<line x1="-3" x2="-3" y1="-65" y2="65"/>
<line x1="-65" x2="65" y1="-3" y2="-3"/>
<line x1="-2" x2="-2" y1="-65" y2="65"/>
<line x1="-65" x2="65" y1="-2" y2="-2"/>
<line x1="-1" x2="-1" y1="-65" y2="65"/>
<line x1="-65" x2="65" y1="-1" y2="-1"/>
<line x1="1" x2="1" y1="-65" y2="65"/>
<line x1="-65" x2="65" y1="1" y2="1"/>
<line x1="2" x2="2" y1="-65" y2="65"/>
<line x1="-65" x2="65" y1="2" y2="2"/>
<line x1="3" x2="3" y1="-65" y2="65"/>
<line x1="-65" x2="65" y1="3" y2="3"/>
<line x1="4" x2="4" y1="-65" y2="65"/>
<line x1="-65" x2="65" y1="4" y2="4"/>
<line x1="5" x2="5" y1="-65" y2="65"/>
<line x1="-65" x2="65" y1="5" y2="5"/>
<line x1="6" x2="6" y1="-65" y2="65"/>
<line x1="-65" x2="65" y1="6" y2="6"/>
<line x1="7" x2="7" y1="-65" y2="65"/>
<line x1="-65" x2="65" y1="7" y2="7"/>
<line x1="8" x2="8" y1="-65" y2="65"/>
<line x1="-65" x2="65" y1="8" y2="8"/>
<line x1="9" x2="9" y1="-65" y2="65"/>
<line x1="-65" x2="65" y1="9" y2="9"/>
<line class="axis-line" x1="10" x2="10" y1="-65" y2="65"/>
<line class="axis-line" x1="-65" x2="65" y1="10" y2="10"/>
<line x1="11" x2="11" y1="-65" y2="65"/>
<line x1="-65" x2="65" y1="11" y2="11"/>
<line x1="12" x2="12" y1="-65" y2="65"/>
<line x1="-65" x2="65" y1="12" y2="12"/>
<line x1="13" x2="13" y1="-65" y2="65"/>
<line x1="-65" x2="65" y1="13" y2="13"/>
<line x1="14" x2="14" y1="-65" y2="65"/>
<line x1="-65" x2="65" y1="14" y2="14"/>
<line x1="15" x2="15" y1="-65" y2="65"/>
<line x1="-65" x2="65" y1="15" y2="15"/>
<line x1="16" x2="16" y1="-65" y2="65"/>
<line x1="-65" x2="65" y1="16" y2="16"/>
<line x1="17" x2="17" y1="-65" y2="65"/>
<line x1="-65" x2="65" y1="17" y2="17"/>
<line x1="18" x2="18" y1="-65" y2="65"/>
<line x1="-65" x2="65" y1="18" y2="18"/>
<line x1="19" x2="19" y1="-65" y2="65"/>
<line x1="-65" x2="65" y1="19" y2="19"/>
<line class="axis-line" x1="20" x2="20" y1="-65" y2="65"/>
<line class="axis-line" x1="-65" x2="65" y1="20" y2="20"/>
<line x1="21" x2="21" y1="-65" y2="65"/>
<line x1="-65" x2="65" y1="21" y2="21"/>
<line x1="22" x2="22" y1="-65" y2="65"/>
<line x1="-65" x2="65" y1="22" y2="22"/>
<line x1="23" x2="23" y1="-65" y2="65"/>
<line x1="-65" x2="65" y1="23" y2="23"/>
<line x1="24" x2="24" y1="-65" y2="65"/>
<line x1="-65" x2="65" y1="24" y2="24"/>
<line x1="25" x2="25" y1="-65" y2="65"/>
<line x1="-65" x2="65" y1="25" y2="25"/>
<line x1="26" x2="26" y1="-65" y2="65"/>
<line x1="-65" x2="65" y1="26" y2="26"/>
<line x1="27" x2="27" y1="-65" y2="65"/>
<line x1="-65" x2="65" y1="27" y2="27"/>
<line x1="28" x2="28" y1="-65" y2="65"/>
<line x1="-65" x2="65" y1="28" y2="28"/>
<line x1="29" x2="29" y1="-65" y2="65"/>
<line x1="-65" x2="65" y1="29" y2="29"/>
<line class="axis-line" x1="30" x2="30" y1="-65" y2="65"/>
<line class="axis-line" x1="-65" x2="65" y1="30" y2="30"/>
<line x1="31" x2="31" y1="-65" y2="65"/>
<line x1="-65" x2="65" y1="31" y2="31"/>
<line x1="32" x2="32" y1="-65" y2="65"/>
<line x1="-65" x2="65" y1="32" y2="32"/>
<line x1="33" x2="33" y1="-65" y2="65"/>
<line x1="-65" x2="65" y1="33" y2="33"/>
<line x1="34" x2="34" y1="-65" y2="65"/>
<line x1="-65" x2="65" y1="34" y2="34"/>
<line x1="35" x2="35" y1="-65" y2="65"/>
<line x1="-65" x2="65" y1="35" y2="35"/>
<line x1="36" x2="36" y1="-65" y2="65"/>
<line x1="-65" x2="65" y1="36" y2="36"/>
<line x1="37" x2="37" y1="-65" y2="65"/>
<line x1="-65" x2="65" y1="37" y2="37"/>
<line x1="38" x2="38" y1="-65" y2="65"/>
<line x1="-65" x2="65" y1="38" y2="38"/>
<line x1="39" x2="39" y1="-65" y2="65"/>
<line x1="-65" x2="65" y1="39" y2="39"/>
<line class="axis-line" x1="40" x2="40" y1="-65" y2="65"/>
<line class="axis-line" x1="-65" x2="65" y1="40" y2="40"/>
<line x1="41" x2="41" y1="-65" y2="65"/>
<line x1="-65" x2="65" y1="41" y2="41"/>
<line x1="42" x2="42" y1="-65" y2="65"/>
<line x1="-65" x2="65" y1="42" y2="42"/>
<line x1="43" x2="43" y1="-65" y2="65"/>
<line x1="-65" x2="65" y1="43" y2="43"/>
<line x1="44" x2="44" y1="-65" y2="65"/>
<line x1="-65" x2="65" y1="44" y2="44"/>
<line x1="45" x2="45" y1="-65" y2="65"/>
<line x1="-65" x2="65" y1="45" y2="45"/>
<line x1="46" x2="46" y1="-65" y2="65"/>
<line x1="-65" x2="65" y1="46" y2="46"/>
<line x1="47" x2="47" y1="-65" y2="65"/>
<line x1="-65" x2="65" y1="47" y2="47"/>
<line x1="48" x2="48" y1="-65" y2="65"/>
<line x1="-65" x2="65" y1="48" y2="48"/>
<line x1="49" x2="49" y1="-65" y2="65"/>
<line x1="-65" x2="65" y1="49" y2="49"/>
<line class="axis-line" x1="50" x2="50" y1="-65" y2="65"/>
<line class="axis-line" x1="-65" x2="65" y1="50" y2="50"/>
<line x1="51" x2="51" y1="-65" y2="65"/>
<line x1="-65" x2="65" y1="51" y2="51"/>
<line x1="52" x2="52" y1="-65" y2="65"/>
<line x1="-65" x2="65" y1="52" y2="52"/>
<line x1="53" x2="53" y1="-65" y2="65"/>
<line x1="-65" x2="65" y1="53" y2="53"/>
<line x1="54" x2="54" y1="-65" y2="65"/>
<line x1="-65" x2="65" y1="54" y2="54"/>
<line x1="55" x2="55" y1="-65" y2="65"/>
<line x1="-65" x2="65" y1="55" y2="55"/>
<line x1="56" x2="56" y1="-65" y2="65"/>
<line x1="-65" x2="65" y1="56" y2="56"/>
<line x1="57" x2="57" y1="-65" y2="65"/>
<line x1="-65" x2="65" y1="57" y2="57"/>
<line x1="58" x2="58" y1="-65" y2="65"/>
<line x1="-65" x2="65" y1="58" y2="58"/>
<line x1="59" x2="59" y1="-65" y2="65"/>
<line x1="-65" x2="65" y1="59" y2="59"/>
<line class="axis-line" x1="60" x2="60" y1="-65" y2="65"/>
<line class="axis-line" x1="-65" x2="65" y1="60" y2="60"/>
<line x1="61" x2="61" y1="-65" y2="65"/>
<line x1="-65" x2="65" y1="61" y2="61"/>
<line x1="62" x2="62" y1="-65" y2="65"/>
<line x1="-65" x2="65" y1="62" y2="62"/>
<line x1="63" x2="63" y1="-65" y2="65"/>
<line x1="-65" x2="65" y1="63" y2="63"/>
<line x1="64" x2="64" y1="-65" y2="65"/>
<line x1="-65" x2="65" y1="64" y2="64"/>
<line x1="65" x2="65" y1="-65" y2="65"/>
<line x1="-65" x2="65" y1="65" y2="65"/>
<line class="axis-null-line" x1="0" x2="0" y1="-65" y2="65" style="stroke-width:0.002cm; stroke-opacity:.8"/>
<line class="axis-null-line" x1="-65" x2="65" y1="0" y2="0" style="stroke-width:0.002cm; stroke-opacity:.8"/>
<g id="labels" transform="scale(1,-1)">
<text x="10" y="-66">+10</text>
<text x="10" y="66.3">+10</text>
<text x="-10" y="-66">-10</text>
<text x="-10" y="66.3">-10</text>
<text x="20" y="-66">+20</text>
<text x="20" y="66.3">+20</text>
<text x="-20" y="-66">-20</text>
<text x="-20" y="66.3">-20</text>
<text x="30" y="-66">+30</text>
<text x="30" y="66.3">+30</text>
<text x="-30" y="-66">-30</text>
<text x="-30" y="66.3">-30</text>
<text x="40" y="-66">+40</text>
<text x="40" y="66.3">+40</text>
<text x="-40" y="-66">-40</text>
<text x="-40" y="66.3">-40</text>
<text x="50" y="-66">+50</text>
<text x="50" y="66.3">+50</text>
<text x="-50" y="-66">-50</text>
<text x="-50" y="66.3">-50</text>
<text x="60" y="-66">+60</text>
<text x="60" y="66.3">+60</text>
<text x="-60" y="-66">-60</text>
<text x="-60" y="66.3">-60</text>
<text x="-67.2" y="10">+10</text>
<text x="67.2" y="10">+10</text>
<text x="-67.2" y="-10">-10</text>
<text x="67.2" y="-10">-10</text>
<text x="-67.2" y="20">+20</text>
<text x="67.2" y="20">+20</text>
<text x="-67.2" y="-20">-20</text>
<text x="67.2" y="-20">-20</text>
<text x="-67.2" y="30">+30</text>
<text x="67.2" y="30">+30</text>
<text x="-67.2" y="-30">-30</text>
<text x="67.2" y="-30">-30</text>
<text x="-67.2" y="40">+40</text>
<text x="67.2" y="40">+40</text>
<text x="-67.2" y="-40">-40</text>
<text x="67.2" y="-40">-40</text>
<text x="-67.2" y="50">+50</text>
<text x="67.2" y="50">+50</text>
<text x="-67.2" y="-50">-50</text>
<text x="67.2" y="-50">-50</text>
<text x="-67.2" y="60">+60</text>
<text x="67.2" y="60">+60</text>
<text x="-67.2" y="-60">-60</text>
<text x="67.2" y="-60">-60</text>
<text class="axis-text" x="0" y="66.3">cm</text>
<text class="axis-text" x="0" y="-66">cm</text>
<text class="axis-text" x="-67.2" y="0">cm</text>
<text class="axis-text" x="67.2" y="0">cm</text>
</g>
</g>
<circle class="marker" cx="0" cy="58.949" r=".1"/>
<path id="driver" transform="translate(0 58.949) rotate(120)" d="M -1 3.463 a 1 1 0 1 0 2 0 a 1 1 0 1 0 -2 0 Z M -3.999 -1.731 a 1 1 0 1 0 2 0 a 1 1 0 1 0 -2 0 Z M 1.999 -1.731 a 1 1 0 1 0 2 0 a 1 1 0 1 0 -2 0 Z "/>
<path id="wheel" transform="rotate(3.0)" d="M 1.2 57.283 A .2 .2 0 0 1 1 57.087 L 1 55.477 A 1 1 0 0 0 -1 55.477 L -1 57.087 A .2 .2 0 0 1 -1.2 57.283 A 57.296 57.296 0 0 1 -4.794 57.095 A .2 .2 0 0 1 -4.973 56.879 L -4.804 55.278 A 1 1 0 0 0 -6.793 55.069 L -6.962 56.67 A .2 .2 0 0 1 -7.181 56.844 A 57.296 57.296 0 0 1 -10.736 56.281 A .2 .2 0 0 1 -10.891 56.047 L -10.556 54.473 A 1 1 0 0 0 -12.512 54.057 L -12.847 55.632 A .2 .2 0 0 1 -13.084 55.782 A 57.296 57.296 0 0 1 -16.56 54.85 A .2 .2 0 0 1 -16.69 54.602 L -16.192 53.071 A 1 1 0 0 0 -18.094 52.453 L -18.592 53.984 A .2 .2 0 0 1 -18.843 54.109 A 57.296 57.296 0 0 1 -22.203 52.819 A .2 .2 0 0 1 -22.306 52.558 L -21.651 51.087 A 1 1 0 0 0 -23.478 50.274 L -24.133 51.745 A .2 .2 0 0 1 -24.395 51.843 A 57.296 57.296 0 0 1 -27.602 50.209 A .2 .2 0 0 1 -27.677 49.939 L -26.872 48.544 A 1 1 0 0 0 -28.605 47.544 L -29.41 48.939 A .2 .2 0 0 1 -29.681 49.009 A 57.296 57.296 0 0 1 -32.699 47.048 A .2 .2 0 0 1 -32.746 46.772 L -31.8 45.47 A 1 1 0 0 0 -33.418 44.294 L -34.364 45.597 A .2 .2 0 0 1 -34.641 45.638 A 57.296 57.296 0 0 1 -37.438 43.373 A .2 .2 0 0 1 -37.456 43.093 L -36.378 41.897 A 1 1 0 0 0 -37.864 40.558 L -38.942 41.755 A .2 .2 0 0 1 -39.222 41.767 A 57.296 57.296 0 0 1 -41.767 39.222 A .2 .2 0 0 1 -41.755 38.942 L -40.558 37.864 A 1 1 0 0 0 -41.897 36.378 L -43.093 37.456 A .2 .2 0 0 1 -43.373 37.438 A 57.296 57.296 0 0 1 -45.638 34.641 A .2 .2 0 0 1 -45.597 34.364 L -44.294 33.418 A 1 1 0 0 0 -45.47 31.8 L -46.772 32.746 A .2 .2 0 0 1 -47.048 32.699 A 57.296 57.296 0 0 1 -49.009 29.681 A .2 .2 0 0 1 -48.939 29.41 L -47.544 28.605 A 1 1 0 0 0 -48.544 26.872 L -49.939 27.677 A .2 .2 0 0 1 -50.209 27.602 A 57.296 57.296 0 0 1 -51.843 24.395 A .2 .2 0 0 1 -51.745 24.133 L -50.274 23.478 A 1 1 0 0 0 -51.087 21.651 L -52.558 22.306 A .2 .2 0 0 1 -52.819 22.203 A 57.296 57.296 0 0 1 -54.109 18.843 A .2 .2 0 0 1 -53.984 18.592 L -52.453 18.094 A 1 1 0 0 0 -53.071 16.192 L -54.602 16.69 A .2 .2 0 0 1 -54.85 16.56 A 57.296 57.296 0 0 1 -55.782 13.084 A .2 .2 0 0 1 -55.632 12.847 L -54.057 12.512 A 1 1 0 0 0 -54.473 10.556 L -56.047 10.891 A .2 .2 0 0 1 -56.281 10.736 A 57.296 57.296 0 0 1 -56.844 7.181 A .2 .2 0 0 1 -56.67 6.962 L -55.069 6.793 A 1 1 0 0 0 -55.278 4.804 L -56.879 4.973 A .2 .2 0 0 1 -57.095 4.794 A 57.296 57.296 0 0 1 -57.283 1.2 A .2 .2 0 0 1 -57.087 1 L -55.477 1 A 1 1 0 0 0 -55.477 -1 L -57.087 -1 A .2 .2 0 0 1 -57.283 -1.2 A 57.296 57.296 0 0 1 -57.095 -4.794 A .2 .2 0 0 1 -56.879 -4.973 L -55.278 -4.804 A 1 1 0 0 0 -55.069 -6.793 L -56.67 -6.962 A .2 .2 0 0 1 -56.844 -7.181 A 57.296 57.296 0 0 1 -56.281 -10.736 A .2 .2 0 0 1 -56.047 -10.891 L -54.473 -10.556 A 1 1 0 0 0 -54.057 -12.512 L -55.632 -12.847 A .2 .2 0 0 1 -55.782 -13.084 A 57.296 57.296 0 0 1 -54.85 -16.56 A .2 .2 0 0 1 -54.602 -16.69 L -53.071 -16.192 A 1 1 0 0 0 -52.453 -18.094 L -53.984 -18.592 A .2 .2 0 0 1 -54.109 -18.843 A 57.296 57.296 0 0 1 -52.819 -22.203 A .2 .2 0 0 1 -52.558 -22.306 L -51.087 -21.651 A 1 1 0 0 0 -50.274 -23.478 L -51.745 -24.133 A .2 .2 0 0 1 -51.843 -24.395 A 57.296 57.296 0 0 1 -50.209 -27.602 A .2 .2 0 0 1 -49.939 -27.677 L -48.544 -26.872 A 1 1 0 0 0 -47.544 -28.605 L -48.939 -29.41 A .2 .2 0 0 1 -49.009 -29.681 A 57.296 57.296 0 0 1 -47.048 -32.699 A .2 .2 0 0 1 -46.772 -32.746 L -45.47 -31.8 A 1 1 0 0 0 -44.294 -33.418 L -45.597 -34.364 A .2 .2 0 0 1 -45.638 -34.641 A 57.296 57.296 0 0 1 -43.373 -37.438 A .2 .2 0 0 1 -43.093 -37.456 L -41.897 -36.378 A 1 1 0 0 0 -40.558 -37.864 L -41.755 -38.942 A .2 .2 0 0 1 -41.767 -39.222 A 57.296 57.296 0 0 1 -39.222 -41.767 A .2 .2 0 0 1 -38.942 -41.755 L -37.864 -40.558 A 1 1 0 0 0 -36.378 -41.897 L -37.456 -43.093 A .2 .2 0 0 1 -37.438 -43.373 A 57.296 57.296 0 0 1 -34.641 -45.638 A .2 .2 0 0 1 -34.364 -45.597 L -33.418 -44.294 A 1 1 0 0 0 -31.8 -45.47 L -32.746 -46.772 A .2 .2 0 0 1 -32.699 -47.048 A 57.296 57.296 0 0 1 -29.681 -49.009 A .2 .2 0 0 1 -29.41 -48.939 L -28.605 -47.544 A 1 1 0 0 0 -26.872 -48.544 L -27.677 -49.939 A .2 .2 0 0 1 -27.602 -50.209 A 57.296 57.296 0 0 1 -24.395 -51.843 A .2 .2 0 0 1 -24.133 -51.745 L -23.478 -50.274 A 1 1 0 0 0 -21.651 -51.087 L -22.306 -52.558 A .2 .2 0 0 1 -22.203 -52.819 A 57.296 57.296 0 0 1 -18.843 -54.109 A .2 .2 0 0 1 -18.592 -53.984 L -18.094 -52.453 A 1 1 0 0 0 -16.192 -53.071 L -16.69 -54.602 A .2 .2 0 0 1 -16.56 -54.85 A 57.296 57.296 0 0 1 -13.084 -55.782 A .2 .2 0 0 1 -12.847 -55.632 L -12.512 -54.057 A 1 1 0 0 0 -10.556 -54.473 L -10.891 -56.047 A .2 .2 0 0 1 -10.736 -56.281 A 57.296 57.296 0 0 1 -7.181 -56.844 A .2 .2 0 0 1 -6.962 -56.67 L -6.793 -55.069 A 1 1 0 0 0 -4.804 -55.278 L -4.973 -56.879 A .2 .2 0 0 1 -4.794 -57.095 A 57.296 57.296 0 0 1 -1.2 -57.283 A .2 .2 0 0 1 -1 -57.087 L -1 -55.477 A 1 1 0 0 0 1 -55.477 L 1 -57.087 A .2 .2 0 0 1 1.2 -57.283 A 57.296 57.296 0 0 1 4.794 -57.095 A .2 .2 0 0 1 4.973 -56.879 L 4.804 -55.278 A 1 1 0 0 0 6.793 -55.069 L 6.962 -56.67 A .2 .2 0 0 1 7.181 -56.844 A 57.296 57.296 0 0 1 10.736 -56.281 A .2 .2 0 0 1 10.891 -56.047 L 10.556 -54.473 A 1 1 0 0 0 12.512 -54.057 L 12.847 -55.632 A .2 .2 0 0 1 13.084 -55.782 A 57.296 57.296 0 0 1 16.56 -54.85 A .2 .2 0 0 1 16.69 -54.602 L 16.192 -53.071 A 1 1 0 0 0 18.094 -52.453 L 18.592 -53.984 A .2 .2 0 0 1 18.843 -54.109 A 57.296 57.296 0 0 1 22.203 -52.819 A .2 .2 0 0 1 22.306 -52.558 L 21.651 -51.087 A 1 1 0 0 0 23.478 -50.274 L 24.133 -51.745 A .2 .2 0 0 1 24.395 -51.843 A 57.296 57.296 0 0 1 27.602 -50.209 A .2 .2 0 0 1 27.677 -49.939 L 26.872 -48.544 A 1 1 0 0 0 28.605 -47.544 L 29.41 -48.939 A .2 .2 0 0 1 29.681 -49.009 A 57.296 57.296 0 0 1 32.699 -47.048 A .2 .2 0 0 1 32.746 -46.772 L 31.8 -45.47 A 1 1 0 0 0 33.418 -44.294 L 34.364 -45.597 A .2 .2 0 0 1 34.641 -45.638 A 57.296 57.296 0 0 1 37.438 -43.373 A .2 .2 0 0 1 37.456 -43.093 L 36.378 -41.897 A 1 1 0 0 0 37.864 -40.558 L 38.942 -41.755 A .2 .2 0 0 1 39.222 -41.767 A 57.296 57.296 0 0 1 41.767 -39.222 A .2 .2 0 0 1 41.755 -38.942 L 40.558 -37.864 A 1 1 0 0 0 41.897 -36.378 L 43.093 -37.456 A .2 .2 0 0 1 43.373 -37.438 A 57.296 57.296 0 0 1 45.638 -34.641 A .2 .2 0 0 1 45.597 -34.364 L 44.294 -33.418 A 1 1 0 0 0 45.47 -31.8 L 46.772 -32.746 A .2 .2 0 0 1 47.048 -32.699 A 57.296 57.296 0 0 1 49.009 -29.681 A .2 .2 0 0 1 48.939 -29.41 L 47.544 -28.605 A 1 1 0 0 0 48.544 -26.872 L 49.939 -27.677 A .2 .2 0 0 1 50.209 -27.602 A 57.296 57.296 0 0 1 51.843 -24.395 A .2 .2 0 0 1 51.745 -24.133 L 50.274 -23.478 A 1 1 0 0 0 51.087 -21.651 L 52.558 -22.306 A .2 .2 0 0 1 52.819 -22.203 A 57.296 57.296 0 0 1 54.109 -18.843 A .2 .2 0 0 1 53.984 -18.592 L 52.453 -18.094 A 1 1 0 0 0 53.071 -16.192 L 54.602 -16.69 A .2 .2 0 0 1 54.85 -16.56 A 57.296 57.296 0 0 1 55.782 -13.084 A .2 .2 0 0 1 55.632 -12.847 L 54.057 -12.512 A 1 1 0 0 0 54.473 -10.556 L 56.047 -10.891 A .2 .2 0 0 1 56.281 -10.736 A 57.296 57.296 0 0 1 56.844 -7.181 A .2 .2 0 0 1 56.67 -6.962 L 55.069 -6.793 A 1 1 0 0 0 55.278 -4.804 L 56.879 -4.973 A .2 .2 0 0 1 57.095 -4.794 A 57.296 57.296 0 0 1 57.283 -1.2 A .2 .2 0 0 1 57.087 -1 L 55.477 -1 A 1 1 0 0 0 55.477 1 L 57.087 1 A .2 .2 0 0 1 57.283 1.2 A 57.296 57.296 0 0 1 57.095 4.794 A .2 .2 0 0 1 56.879 4.973 L 55.278 4.804 A 1 1 0 0 0 55.069 6.793 L 56.67 6.962 A .2 .2 0 0 1 56.844 7.181 A 57.296 57.296 0 0 1 56.281 10.736 A .2 .2 0 0 1 56.047 10.891 L 54.473 10.556 A 1 1 0 0 0 54.057 12.512 L 55.632 12.847 A .2 .2 0 0 1 55.782 13.084 A 57.296 57.296 0 0 1 54.85 16.56 A .2 .2 0 0 1 54.602 16.69 L 53.071 16.192 A 1 1 0 0 0 52.453 18.094 L 53.984 18.592 A .2 .2 0 0 1 54.109 18.843 A 57.296 57.296 0 0 1 52.819 22.203 A .2 .2 0 0 1 52.558 22.306 L 51.087 21.651 A 1 1 0 0 0 50.274 23.478 L 51.745 24.133 A .2 .2 0 0 1 51.843 24.395 A 57.296 57.296 0 0 1 50.209 27.602 A .2 .2 0 0 1 49.939 27.677 L 48.544 26.872 A 1 1 0 0 0 47.544 28.605 L 48.939 29.41 A .2 .2 0 0 1 49.009 29.681 A 57.296 57.296 0 0 1 47.048 32.699 A .2 .2 0 0 1 46.772 32.746 L 45.47 31.8 A 1 1 0 0 0 44.294 33.418 L 45.597 34.364 A .2 .2 0 0 1 45.638 34.641 A 57.296 57.296 0 0 1 43.373 37.438 A .2 .2 0 0 1 43.093 37.456 L 41.897 36.378 A 1 1 0 0 0 40.558 37.864 L 41.755 38.942 A .2 .2 0 0 1 41.767 39.222 A 57.296 57.296 0 0 1 39.222 41.767 A .2 .2 0 0 1 38.942 41.755 L 37.864 40.558 A 1 1 0 0 0 36.378 41.897 L 37.456 43.093 A .2 .2 0 0 1 37.438 43.373 A 57.296 57.296 0 0 1 34.641 45.638 A .2 .2 0 0 1 34.364 45.597 L 33.418 44.294 A 1 1 0 0 0 31.8 45.47 L 32.746 46.772 A .2 .2 0 0 1 32.699 47.048 A 57.296 57.296 0 0 1 29.681 49.009 A .2 .2 0 0 1 29.41 48.939 L 28.605 47.544 A 1 1 0 0 0 26.872 48.544 L 27.677 49.939 A .2 .2 0 0 1 27.602 50.209 A 57.296 57.296 0 0 1 24.395 51.843 A .2 .2 0 0 1 24.133 51.745 L 23.478 50.274 A 1 1 0 0 0 21.651 51.087 L 22.306 52.558 A .2 .2 0 0 1 22.203 52.819 A 57.296 57.296 0 0 1 18.843 54.109 A .2 .2 0 0 1 18.592 53.984 L 18.094 52.453 A 1 1 0 0 0 16.192 53.071 L 16.69 54.602 A .2 .2 0 0 1 16.56 54.85 A 57.296 57.296 0 0 1 13.084 55.782 A .2 .2 0 0 1 12.847 55.632 L 12.512 54.057 A 1 1 0 0 0 10.556 54.473 L 10.891 56.047 A .2 .2 0 0 1 10.736 56.281 A 57.296 57.296 0 0 1 7.181 56.844 A .2 .2 0 0 1 6.962 56.67 L 6.793 55.069 A 1 1 0 0 0 4.804 55.278 L 4.973 56.879 A .2 .2 0 0 1 4.794 57.095 A 57.296 57.296 0 0 1 1.2 57.283 Z"/>
</svg>
