<?xml version="1.0" encoding="utf-8"?>
<svg version="1.1" xmlns="http://www.w3.org/2000/svg" width="25cm" height="200cm" viewBox="-12.5 -100 25 200">
 <g id="MNS">
  <path id="cpx" class="contrapeso" d="M -1.5 -5.809 V -45.292 A 4 4 0 1 1 1.5 -45.292 V -5.809 Z" />
  <path id="hand" d="M -3.5 4.873 A 6 6 0 1 1 3.5 4.873 V 37.873 A 1 1 0 0 1 3.5 39.873 V 43.873 Q 5.5 42.873 7 43.873 A 3 3 0 0 1 7 48.373 A 4.2 4.2 0 0 0 6 54.373 A 3.5 3.5 0 0 1 3 59.873 A 13.5 13.5 0 0 0 5.5 67.873 A 2.5 2.5 0 0 1 3.5 71.873 Q 4 74.373 3.5 76.873 L 1.5 91.873 Q 0 97.373 -1.5 91.873 L -3.5 76.873 Q -4 74.373 -3.5 71.873 A 2.5 2.5 0 0 1 -5.5 67.873 A 13.5 13.5 0 0 0 -3 59.873 A 4 4 0 0 1 -6 54.373 A 4.2 4.2 0 0 0 -7 48.373 A 3 3 0 0 1 -7 43.873 Q -5.5 42.873 -3.5 43.873 V 39.873 A 1 1 0 0 1 -3.5 37.873 V 4.873 Z" />
  <path id="strip" class="deco" d="M -1 6.8 V 42.8 A 1 1 0 0 0 1 42.8 V 6.8 A 1 1 0 0 0 -1 6.8 Z" />
  <path id="d_left" class="deco" d="M -1.5 47.873 A 3 3 0 0 0 -6.5 45.873 A 8 8 0 0 1 -4.5 55.873 A 1.5 1.5 0 0 0 -1.5 56.873 A 18 12 90 0 0 -1.5 47.873 Z" />
  <path id="d_right" class="deco" d="M 6.5 45.873 A 3 3 0 0 0 1.5 47.873 A 18 12.0 90 0 0 1.5 56.873 A 1.5 1.5 0 0 0 4.5 55.873 A 8 8 0 0 1 6.5 45.873 Z" />
  <path id="d_far" class="deco" d="M 1.2 60.873 A 1.2 1.2 0 0 0 -1.2 60.873 A 12 12 0 0 1 -4 69.373 A 10 10 0 0 0 4 69.373 A 12 12 0 0 1 1.2 60.873 Z" />
  <path id="d_spitz" class="deco" d="M -1.5 74.525 A 1.5 1.5 0 1 1 1.5 74.525 L 0 90 L -1.5 74.525 Z" />
 </g>
</svg>