<?xml version="1.0" encoding="utf-8" ?><!-- SZT 2025.11.04 19:25:33 -->
<svg xmlns="http://www.w3.org/2000/svg" width="36cm" height="36cm" viewBox="-18 -18 36 36">
<style id="grid_style" type="text/css">
 #grid line { fill:none; stroke-width:.001cm; stroke-opacity:.5; stroke:rgb(0,0,255); }
 #grid .axis-line { fill:none; stroke-width:.001cm; stroke-opacity:.9; stroke:rgb(150,0,0); }
 #grid .axis-null-line { fill:none; stroke-width:.001cm; stroke-opacity:.9; stroke:rgb(0,100,0); }
 #grid text { dominant-baseline:central; fill:rgb(150,0,0); font-size:.03cm; text-anchor:middle; }
 #grid .axis-text { dominant-baseline:central; fill:rgb(0,80,0); font-size:.05cm; text-anchor:middle; }
 #bgnd { fill:white; }
</style>
<style id="global_style">
 path, .piece { fill: rgba(30,60,90,.7); stroke: none; fill-rule:evenodd; }
 .deco, .hole { fill: rgba(255,255,255,.7); stroke: none; }
 #bgnd { fill: #FFFFFF; stroke: none; }
</style>
<g id="grid" transform="scale(1,1)">
 <rect id="bgnd" height="36" width="36" x="-18" y="-18"/>
 <line x1="-15" x2="-15" y1="-15" y2="15"/>
 <line x1="-15" x2="15" y1="-15" y2="-15"/>
 <line x1="-14" x2="-14" y1="-15" y2="15"/>
 <line x1="-15" x2="15" y1="-14" y2="-14"/>
 <line x1="-13" x2="-13" y1="-15" y2="15"/>
 <line x1="-15" x2="15" y1="-13" y2="-13"/>
 <line x1="-12" x2="-12" y1="-15" y2="15"/>
 <line x1="-15" x2="15" y1="-12" y2="-12"/>
 <line x1="-11" x2="-11" y1="-15" y2="15"/>
 <line x1="-15" x2="15" y1="-11" y2="-11"/>
 <line class="axis-line" x1="-10" x2="-10" y1="-15" y2="15"/>
 <line class="axis-line" x1="-15" x2="15" y1="-10" y2="-10"/>
 <line x1="-9" x2="-9" y1="-15" y2="15"/>
 <line x1="-15" x2="15" y1="-9" y2="-9"/>
 <line x1="-8" x2="-8" y1="-15" y2="15"/>
 <line x1="-15" x2="15" y1="-8" y2="-8"/>
 <line x1="-7" x2="-7" y1="-15" y2="15"/>
 <line x1="-15" x2="15" y1="-7" y2="-7"/>
 <line x1="-6" x2="-6" y1="-15" y2="15"/>
 <line x1="-15" x2="15" y1="-6" y2="-6"/>
 <line x1="-5" x2="-5" y1="-15" y2="15"/>
 <line x1="-15" x2="15" y1="-5" y2="-5"/>
 <line x1="-4" x2="-4" y1="-15" y2="15"/>
 <line x1="-15" x2="15" y1="-4" y2="-4"/>
 <line x1="-3" x2="-3" y1="-15" y2="15"/>
 <line x1="-15" x2="15" y1="-3" y2="-3"/>
 <line x1="-2" x2="-2" y1="-15" y2="15"/>
 <line x1="-15" x2="15" y1="-2" y2="-2"/>
 <line x1="-1" x2="-1" y1="-15" y2="15"/>
 <line x1="-15" x2="15" y1="-1" y2="-1"/>
 <line x1="1" x2="1" y1="-15" y2="15"/>
 <line x1="-15" x2="15" y1="1" y2="1"/>
 <line x1="2" x2="2" y1="-15" y2="15"/>
 <line x1="-15" x2="15" y1="2" y2="2"/>
 <line x1="3" x2="3" y1="-15" y2="15"/>
 <line x1="-15" x2="15" y1="3" y2="3"/>
 <line x1="4" x2="4" y1="-15" y2="15"/>
 <line x1="-15" x2="15" y1="4" y2="4"/>
 <line x1="5" x2="5" y1="-15" y2="15"/>
 <line x1="-15" x2="15" y1="5" y2="5"/>
 <line x1="6" x2="6" y1="-15" y2="15"/>
 <line x1="-15" x2="15" y1="6" y2="6"/>
 <line x1="7" x2="7" y1="-15" y2="15"/>
 <line x1="-15" x2="15" y1="7" y2="7"/>
 <line x1="8" x2="8" y1="-15" y2="15"/>
 <line x1="-15" x2="15" y1="8" y2="8"/>
 <line x1="9" x2="9" y1="-15" y2="15"/>
 <line x1="-15" x2="15" y1="9" y2="9"/>
 <line class="axis-line" x1="10" x2="10" y1="-15" y2="15"/>
 <line class="axis-line" x1="-15" x2="15" y1="10" y2="10"/>
 <line x1="11" x2="11" y1="-15" y2="15"/>
 <line x1="-15" x2="15" y1="11" y2="11"/>
 <line x1="12" x2="12" y1="-15" y2="15"/>
 <line x1="-15" x2="15" y1="12" y2="12"/>
 <line x1="13" x2="13" y1="-15" y2="15"/>
 <line x1="-15" x2="15" y1="13" y2="13"/>
 <line x1="14" x2="14" y1="-15" y2="15"/>
 <line x1="-15" x2="15" y1="14" y2="14"/>
 <line x1="15" x2="15" y1="-15" y2="15"/>
 <line x1="-15" x2="15" y1="15" y2="15"/>
 <line class="axis-null-line" x1="0" x2="0" y1="-15" y2="15"/>
 <line class="axis-null-line" x1="-15" x2="15" y1="0" y2="0"/>
 <text x="10" y="-15.8">+10</text>
 <text x="10" y="16">+10</text>
 <text x="0" y="-15.8">cm</text>
 <text x="0" y="16">cm</text>
 <text x="-10" y="-15.8">-10</text>
 <text x="-10" y="16">-10</text>
 <text x="-16.5" y="10">+10</text>
 <text x="16.5" y="10">+10</text>
 <text x="16.5" y="0">cm</text>
 <text x="-16.5" y="0">cm</text>
 <text x="-16.5" y="-10">-10</text>
 <text x="16.5" y="-10">-10</text>
</g>
<path id="disk" class="piece" d="M -4 0 a 4 4 0 1 0 8 0 a 4 4 0 1 0 -8 0 Z"/>
<path id="axis" class="hole" d="M -.635 0 a .635 .635 0 1 0 1.27 0 a .635 .635 0 1 0 -1.27 0 Z"/>
<path id="HF60" class="hole" d="M 2.055 0 a .263 .263 0 1 0 .525 0 a .263 .263 0 1 0 -.525 0 Z M .896 2.007 a .263 .263 0 1 0 .525 0 a .263 .263 0 1 0 -.525 0 Z M -1.421 2.007 a .263 .263 0 1 0 .525 0 a .263 .263 0 1 0 -.525 0 Z M -2.58 0 a .263 .263 0 1 0 .525 0 a .263 .263 0 1 0 -.525 0 Z M -1.421 -2.007 a .263 .263 0 1 0 .525 0 a .263 .263 0 1 0 -.525 0 Z M .896 -2.007 a .263 .263 0 1 0 .525 0 a .263 .263 0 1 0 -.525 0 Z"/>
</svg>