<?xml version="1.0" encoding="utf-8" ?><!-- SZT 2025.11.04 19:25:33 -->
<svg xmlns="http://www.w3.org/2000/svg" width="30cm" height="156cm" viewBox="-15 -53 30 156">
<style id="grid_style" type="text/css">
 #grid line { fill:none; stroke-width:.001cm; stroke-opacity:.5; stroke:rgb(0,0,255); }
 #grid .axis-line { fill:none; stroke-width:.002cm; stroke-opacity:.5; stroke:rgb(150,0,0); }
 #grid .axis-null-line { fill:none; stroke-width:.002cm; stroke-opacity:.5; stroke:rgb(0,120,0); }
 #grid text { dominant-baseline:central; fill:rgb(0,80,0); font-size:.02cm; text-anchor:middle; }
 #grid .axis-text { dominant-baseline:central; fill:rgb(80,0,0); font-size:.02cm; text-anchor:middle; }
 #bgnd { fill:white; }
</style>
<style id="global_style">
 path, .piece { fill: rgba(30,60,90,.7); stroke: none; fill-rule:evenodd; }
 .deco, .hole { fill: rgba(255,255,255,.7); stroke: none; }
 #bgnd { fill: #FFFFFF; stroke: none; }
</style>
<g id="grid" transform="scale(1,1)">
 <rect id="bgnd" x="-15" y="-53" width="30" height="156"/>
 <line x1="-12" y1="-50" x2="-12" y2="100"/>
 <line x1="-11" y1="-50" x2="-11" y2="100"/>
 <line class="axis-line" x1="-10" y1="-50" x2="-10" y2="100"/>
 <line x1="-9" y1="-50" x2="-9" y2="100"/>
 <line x1="-8" y1="-50" x2="-8" y2="100"/>
 <line x1="-7" y1="-50" x2="-7" y2="100"/>
 <line x1="-6" y1="-50" x2="-6" y2="100"/>
 <line x1="-5" y1="-50" x2="-5" y2="100"/>
 <line x1="-4" y1="-50" x2="-4" y2="100"/>
 <line x1="-3" y1="-50" x2="-3" y2="100"/>
 <line x1="-2" y1="-50" x2="-2" y2="100"/>
 <line x1="-1" y1="-50" x2="-1" y2="100"/>
 <line class="axis-line" x1="0" y1="-50" x2="0" y2="100"/>
 <line x1="1" y1="-50" x2="1" y2="100"/>
 <line x1="2" y1="-50" x2="2" y2="100"/>
 <line x1="3" y1="-50" x2="3" y2="100"/>
 <line x1="4" y1="-50" x2="4" y2="100"/>
 <line x1="5" y1="-50" x2="5" y2="100"/>
 <line x1="6" y1="-50" x2="6" y2="100"/>
 <line x1="7" y1="-50" x2="7" y2="100"/>
 <line x1="8" y1="-50" x2="8" y2="100"/>
 <line x1="9" y1="-50" x2="9" y2="100"/>
 <line class="axis-line" x1="10" y1="-50" x2="10" y2="100"/>
 <line x1="11" y1="-50" x2="11" y2="100"/>
 <line x1="12" y1="-50" x2="12" y2="100"/>
 <line class="axis-line" x1="-12" y1="-50" x2="12" y2="-50"/>
 <line x1="-12" y1="-49" x2="12" y2="-49"/>
 <line x1="-12" y1="-48" x2="12" y2="-48"/>
 <line x1="-12" y1="-47" x2="12" y2="-47"/>
 <line x1="-12" y1="-46" x2="12" y2="-46"/>
 <line x1="-12" y1="-45" x2="12" y2="-45"/>
 <line x1="-12" y1="-44" x2="12" y2="-44"/>
 <line x1="-12" y1="-43" x2="12" y2="-43"/>
 <line x1="-12" y1="-42" x2="12" y2="-42"/>
 <line x1="-12" y1="-41" x2="12" y2="-41"/>
 <line class="axis-line" x1="-12" y1="-40" x2="12" y2="-40"/>
 <line x1="-12" y1="-39" x2="12" y2="-39"/>
 <line x1="-12" y1="-38" x2="12" y2="-38"/>
 <line x1="-12" y1="-37" x2="12" y2="-37"/>
 <line x1="-12" y1="-36" x2="12" y2="-36"/>
 <line x1="-12" y1="-35" x2="12" y2="-35"/>
 <line x1="-12" y1="-34" x2="12" y2="-34"/>
 <line x1="-12" y1="-33" x2="12" y2="-33"/>
 <line x1="-12" y1="-32" x2="12" y2="-32"/>
 <line x1="-12" y1="-31" x2="12" y2="-31"/>
 <line class="axis-line" x1="-12" y1="-30" x2="12" y2="-30"/>
 <line x1="-12" y1="-29" x2="12" y2="-29"/>
 <line x1="-12" y1="-28" x2="12" y2="-28"/>
 <line x1="-12" y1="-27" x2="12" y2="-27"/>
 <line x1="-12" y1="-26" x2="12" y2="-26"/>
 <line x1="-12" y1="-25" x2="12" y2="-25"/>
 <line x1="-12" y1="-24" x2="12" y2="-24"/>
 <line x1="-12" y1="-23" x2="12" y2="-23"/>
 <line x1="-12" y1="-22" x2="12" y2="-22"/>
 <line x1="-12" y1="-21" x2="12" y2="-21"/>
 <line class="axis-line" x1="-12" y1="-20" x2="12" y2="-20"/>
 <line x1="-12" y1="-19" x2="12" y2="-19"/>
 <line x1="-12" y1="-18" x2="12" y2="-18"/>
 <line x1="-12" y1="-17" x2="12" y2="-17"/>
 <line x1="-12" y1="-16" x2="12" y2="-16"/>
 <line x1="-12" y1="-15" x2="12" y2="-15"/>
 <line x1="-12" y1="-14" x2="12" y2="-14"/>
 <line x1="-12" y1="-13" x2="12" y2="-13"/>
 <line x1="-12" y1="-12" x2="12" y2="-12"/>
 <line x1="-12" y1="-11" x2="12" y2="-11"/>
 <line class="axis-line" x1="-12" y1="-10" x2="12" y2="-10"/>
 <line x1="-12" y1="-9" x2="12" y2="-9"/>
 <line x1="-12" y1="-8" x2="12" y2="-8"/>
 <line x1="-12" y1="-7" x2="12" y2="-7"/>
 <line x1="-12" y1="-6" x2="12" y2="-6"/>
 <line x1="-12" y1="-5" x2="12" y2="-5"/>
 <line x1="-12" y1="-4" x2="12" y2="-4"/>
 <line x1="-12" y1="-3" x2="12" y2="-3"/>
 <line x1="-12" y1="-2" x2="12" y2="-2"/>
 <line x1="-12" y1="-1" x2="12" y2="-1"/>
 <line class="axis-line" x1="-12" y1="0" x2="12" y2="0"/>
 <line x1="-12" y1="1" x2="12" y2="1"/>
 <line x1="-12" y1="2" x2="12" y2="2"/>
 <line x1="-12" y1="3" x2="12" y2="3"/>
 <line x1="-12" y1="4" x2="12" y2="4"/>
 <line x1="-12" y1="5" x2="12" y2="5"/>
 <line x1="-12" y1="6" x2="12" y2="6"/>
 <line x1="-12" y1="7" x2="12" y2="7"/>
 <line x1="-12" y1="8" x2="12" y2="8"/>
 <line x1="-12" y1="9" x2="12" y2="9"/>
 <line class="axis-line" x1="-12" y1="10" x2="12" y2="10"/>
 <line x1="-12" y1="11" x2="12" y2="11"/>
 <line x1="-12" y1="12" x2="12" y2="12"/>
 <line x1="-12" y1="13" x2="12" y2="13"/>
 <line x1="-12" y1="14" x2="12" y2="14"/>
 <line x1="-12" y1="15" x2="12" y2="15"/>
 <line x1="-12" y1="16" x2="12" y2="16"/>
 <line x1="-12" y1="17" x2="12" y2="17"/>
 <line x1="-12" y1="18" x2="12" y2="18"/>
 <line x1="-12" y1="19" x2="12" y2="19"/>
 <line class="axis-line" x1="-12" y1="20" x2="12" y2="20"/>
 <line x1="-12" y1="21" x2="12" y2="21"/>
 <line x1="-12" y1="22" x2="12" y2="22"/>
 <line x1="-12" y1="23" x2="12" y2="23"/>
 <line x1="-12" y1="24" x2="12" y2="24"/>
 <line x1="-12" y1="25" x2="12" y2="25"/>
 <line x1="-12" y1="26" x2="12" y2="26"/>
 <line x1="-12" y1="27" x2="12" y2="27"/>
 <line x1="-12" y1="28" x2="12" y2="28"/>
 <line x1="-12" y1="29" x2="12" y2="29"/>
 <line class="axis-line" x1="-12" y1="30" x2="12" y2="30"/>
 <line x1="-12" y1="31" x2="12" y2="31"/>
 <line x1="-12" y1="32" x2="12" y2="32"/>
 <line x1="-12" y1="33" x2="12" y2="33"/>
 <line x1="-12" y1="34" x2="12" y2="34"/>
 <line x1="-12" y1="35" x2="12" y2="35"/>
 <line x1="-12" y1="36" x2="12" y2="36"/>
 <line x1="-12" y1="37" x2="12" y2="37"/>
 <line x1="-12" y1="38" x2="12" y2="38"/>
 <line x1="-12" y1="39" x2="12" y2="39"/>
 <line class="axis-line" x1="-12" y1="40" x2="12" y2="40"/>
 <line x1="-12" y1="41" x2="12" y2="41"/>
 <line x1="-12" y1="42" x2="12" y2="42"/>
 <line x1="-12" y1="43" x2="12" y2="43"/>
 <line x1="-12" y1="44" x2="12" y2="44"/>
 <line x1="-12" y1="45" x2="12" y2="45"/>
 <line x1="-12" y1="46" x2="12" y2="46"/>
 <line x1="-12" y1="47" x2="12" y2="47"/>
 <line x1="-12" y1="48" x2="12" y2="48"/>
 <line x1="-12" y1="49" x2="12" y2="49"/>
 <line class="axis-line" x1="-12" y1="50" x2="12" y2="50"/>
 <line x1="-12" y1="51" x2="12" y2="51"/>
 <line x1="-12" y1="52" x2="12" y2="52"/>
 <line x1="-12" y1="53" x2="12" y2="53"/>
 <line x1="-12" y1="54" x2="12" y2="54"/>
 <line x1="-12" y1="55" x2="12" y2="55"/>
 <line x1="-12" y1="56" x2="12" y2="56"/>
 <line x1="-12" y1="57" x2="12" y2="57"/>
 <line x1="-12" y1="58" x2="12" y2="58"/>
 <line x1="-12" y1="59" x2="12" y2="59"/>
 <line class="axis-line" x1="-12" y1="60" x2="12" y2="60"/>
 <line x1="-12" y1="61" x2="12" y2="61"/>
 <line x1="-12" y1="62" x2="12" y2="62"/>
 <line x1="-12" y1="63" x2="12" y2="63"/>
 <line x1="-12" y1="64" x2="12" y2="64"/>
 <line x1="-12" y1="65" x2="12" y2="65"/>
 <line x1="-12" y1="66" x2="12" y2="66"/>
 <line x1="-12" y1="67" x2="12" y2="67"/>
 <line x1="-12" y1="68" x2="12" y2="68"/>
 <line x1="-12" y1="69" x2="12" y2="69"/>
 <line class="axis-line" x1="-12" y1="70" x2="12" y2="70"/>
 <line x1="-12" y1="71" x2="12" y2="71"/>
 <line x1="-12" y1="72" x2="12" y2="72"/>
 <line x1="-12" y1="73" x2="12" y2="73"/>
 <line x1="-12" y1="74" x2="12" y2="74"/>
 <line x1="-12" y1="75" x2="12" y2="75"/>
 <line x1="-12" y1="76" x2="12" y2="76"/>
 <line x1="-12" y1="77" x2="12" y2="77"/>
 <line x1="-12" y1="78" x2="12" y2="78"/>
 <line x1="-12" y1="79" x2="12" y2="79"/>
 <line class="axis-line" x1="-12" y1="80" x2="12" y2="80"/>
 <line x1="-12" y1="81" x2="12" y2="81"/>
 <line x1="-12" y1="82" x2="12" y2="82"/>
 <line x1="-12" y1="83" x2="12" y2="83"/>
 <line x1="-12" y1="84" x2="12" y2="84"/>
 <line x1="-12" y1="85" x2="12" y2="85"/>
 <line x1="-12" y1="86" x2="12" y2="86"/>
 <line x1="-12" y1="87" x2="12" y2="87"/>
 <line x1="-12" y1="88" x2="12" y2="88"/>
 <line x1="-12" y1="89" x2="12" y2="89"/>
 <line class="axis-line" x1="-12" y1="90" x2="12" y2="90"/>
 <line x1="-12" y1="91" x2="12" y2="91"/>
 <line x1="-12" y1="92" x2="12" y2="92"/>
 <line x1="-12" y1="93" x2="12" y2="93"/>
 <line x1="-12" y1="94" x2="12" y2="94"/>
 <line x1="-12" y1="95" x2="12" y2="95"/>
 <line x1="-12" y1="96" x2="12" y2="96"/>
 <line x1="-12" y1="97" x2="12" y2="97"/>
 <line x1="-12" y1="98" x2="12" y2="98"/>
 <line x1="-12" y1="99" x2="12" y2="99"/>
 <line class="axis-line" x1="-12" y1="100" x2="12" y2="100"/>
 <line class="axis-null-line" x1="0" y1="-50" x2="0" y2="100"/>
 <line class="axis-null-line" x1="-12" y1="0" x2="12" y2="0"/>
 <text x="-10" y="-50.7">-10</text>
 <text class="axis-text" x="0" y="-50.7">cm</text>
 <text x="10" y="-50.7">10</text>
 <text x="-12.7" y="-50">-50</text>
 <text x="-12.7" y="-40">-40</text>
 <text x="-12.7" y="-30">-30</text>
 <text x="-12.7" y="-20">-20</text>
 <text x="-12.7" y="-10">-10</text>
 <text x="-12.7" y="0">0</text>
 <text x="-12.7" y="10">10</text>
 <text x="-12.7" y="20">20</text>
 <text x="-12.7" y="30">30</text>
 <text x="-12.7" y="40">40</text>
 <text x="-12.7" y="50">50</text>
 <text x="-12.7" y="60">60</text>
 <text x="-12.7" y="70">70</text>
 <text x="-12.7" y="80">80</text>
 <text x="-12.7" y="90">90</text>
 <text x="-12.8" y="100">100</text>
</g>
<path id="hand" d="M -3.5 4.873 A 6 6 0 0 1 -3.5 -4.873 V -46.5 A 3.5 3.5 0 0 1 3.5 -46.5 V -4.873 A 6 6 0 0 1 3.5 4.873 V 37.873 A 1.0 1.0 0 0 1 3.5 39.873 V 43.873 Q 5.5 42.873 7.0 43.873 A 3.0 3.0 0 0 1 7.0 48.373 A 4.2 4.2 0 0 0 6.0 54.373 A 3.5 3.5 0 0 1 3.0 59.873 A 13.5 13.5 0 0 0 5.5 67.873 A 2.5 2.5 0 0 1 3.5 71.873 Q 4.0 74.373 3.5 76.873 L 1.5 91.873 Q 0 97.373 -1.5 91.873 L -3.5 76.873 Q -4.0 74.373 -3.5 71.873 A 2.5 2.5 0 0 1 -5.5 67.873 A 13.5 13.5 0 0 0 -3.0 59.873 A 4.0 4.0 0 0 1 -6.0 54.373 A 4.2 4.2 0 0 0 -7.0 48.373 A 3.0 3.0 0 0 1 -7.0 43.873 Q -5.5 42.873 -3.5 43.873 V 39.873 A 1.0 1.0 0 0 1 -3.5 37.873 V 4.873 Z"/>
<path id="axis" class="hole" d="M -.635 0 a .635 .635 0 1 0 1.27 0 a .635 .635 0 1 0 -1.27 0 Z"/>
<path id="HF60" class="hole" d="M 2.055 0 a .263 .263 0 1 0 .525 0 a .263 .263 0 1 0 -.525 0 Z M .896 2.007 a .263 .263 0 1 0 .525 0 a .263 .263 0 1 0 -.525 0 Z M -1.421 2.007 a .263 .263 0 1 0 .525 0 a .263 .263 0 1 0 -.525 0 Z M -2.58 0 a .263 .263 0 1 0 .525 0 a .263 .263 0 1 0 -.525 0 Z M -1.421 -2.007 a .263 .263 0 1 0 .525 0 a .263 .263 0 1 0 -.525 0 Z M .896 -2.007 a .263 .263 0 1 0 .525 0 a .263 .263 0 1 0 -.525 0 Z"/>
<path id="OJOP" class="hole" d="M -.263 -46.5 a .263 .263 0 1 0 .525 0 a .263 .263 0 1 0 -.525 0 Z"/>
</svg>