<?xml version="1.0" encoding="utf-8" ?><!-- SZT 2025.11.05 18:05:59 -->
<svg xmlns="http://www.w3.org/2000/svg" xmlns:ev="http://www.w3.org/2001/xml-events" xmlns:xlink="http://www.w3.org/1999/xlink" baseProfile="full" height="138cm" version="1.1" viewBox="-69 -69 138 138" width="138cm">
<style id="grid_style" type="text/css">
 #grid line { fill:none; stroke-width:.001cm; stroke-opacity:.5; stroke:rgb(0,0,255); }
 #grid .axis-line { fill:none; stroke-width:.001cm; stroke-opacity:.9; stroke:rgb(150,0,0); }
 #grid .axis-null-line { fill:none; stroke-width:.001cm; stroke-opacity:.9; stroke:rgb(0,120,0); }
 #grid text { dominant-baseline:central; fill:rgb(150,0,0); font-size:.045cm; text-anchor:middle; }
 #grid .axis-text { dominant-baseline:central; fill:rgb(0,80,0); font-size:.05cm; text-anchor:middle; }
 #bgnd { fill:white; }
</style>
<style id="global_style">
 path, .piece { fill: rgba(30,60,90,.7); stroke: none; fill-rule:evenodd; }
 .deco, .hole { fill: rgba(255,255,255,.7); stroke: none; }
 #bgnd { fill: #FFFFFF; stroke: none; }
</style>
<g id="grid" transform="scale(1,-1)">
<rect id="bgnd" height="138" width="138" x="-69" y="-69"/>
<line x1="-65" x2="-65" y1="-65" y2="65"/>
<line x1="-65" x2="65" y1="-65" y2="-65"/>
<line x1="-64" x2="-64" y1="-65" y2="65"/>
<line x1="-65" x2="65" y1="-64" y2="-64"/>
<line x1="-63" x2="-63" y1="-65" y2="65"/>
<line x1="-65" x2="65" y1="-63" y2="-63"/>
<line x1="-62" x2="-62" y1="-65" y2="65"/>
<line x1="-65" x2="65" y1="-62" y2="-62"/>
<line x1="-61" x2="-61" y1="-65" y2="65"/>
<line x1="-65" x2="65" y1="-61" y2="-61"/>
<line class="axis-line" x1="-60" x2="-60" y1="-65" y2="65"/>
<line class="axis-line" x1="-65" x2="65" y1="-60" y2="-60"/>
<line x1="-59" x2="-59" y1="-65" y2="65"/>
<line x1="-65" x2="65" y1="-59" y2="-59"/>
<line x1="-58" x2="-58" y1="-65" y2="65"/>
<line x1="-65" x2="65" y1="-58" y2="-58"/>
<line x1="-57" x2="-57" y1="-65" y2="65"/>
<line x1="-65" x2="65" y1="-57" y2="-57"/>
<line x1="-56" x2="-56" y1="-65" y2="65"/>
<line x1="-65" x2="65" y1="-56" y2="-56"/>
<line x1="-55" x2="-55" y1="-65" y2="65"/>
<line x1="-65" x2="65" y1="-55" y2="-55"/>
<line x1="-54" x2="-54" y1="-65" y2="65"/>
<line x1="-65" x2="65" y1="-54" y2="-54"/>
<line x1="-53" x2="-53" y1="-65" y2="65"/>
<line x1="-65" x2="65" y1="-53" y2="-53"/>
<line x1="-52" x2="-52" y1="-65" y2="65"/>
<line x1="-65" x2="65" y1="-52" y2="-52"/>
<line x1="-51" x2="-51" y1="-65" y2="65"/>
<line x1="-65" x2="65" y1="-51" y2="-51"/>
<line class="axis-line" x1="-50" x2="-50" y1="-65" y2="65"/>
<line class="axis-line" x1="-65" x2="65" y1="-50" y2="-50"/>
<line x1="-49" x2="-49" y1="-65" y2="65"/>
<line x1="-65" x2="65" y1="-49" y2="-49"/>
<line x1="-48" x2="-48" y1="-65" y2="65"/>
<line x1="-65" x2="65" y1="-48" y2="-48"/>
<line x1="-47" x2="-47" y1="-65" y2="65"/>
<line x1="-65" x2="65" y1="-47" y2="-47"/>
<line x1="-46" x2="-46" y1="-65" y2="65"/>
<line x1="-65" x2="65" y1="-46" y2="-46"/>
<line x1="-45" x2="-45" y1="-65" y2="65"/>
<line x1="-65" x2="65" y1="-45" y2="-45"/>
<line x1="-44" x2="-44" y1="-65" y2="65"/>
<line x1="-65" x2="65" y1="-44" y2="-44"/>
<line x1="-43" x2="-43" y1="-65" y2="65"/>
<line x1="-65" x2="65" y1="-43" y2="-43"/>
<line x1="-42" x2="-42" y1="-65" y2="65"/>
<line x1="-65" x2="65" y1="-42" y2="-42"/>
<line x1="-41" x2="-41" y1="-65" y2="65"/>
<line x1="-65" x2="65" y1="-41" y2="-41"/>
<line class="axis-line" x1="-40" x2="-40" y1="-65" y2="65"/>
<line class="axis-line" x1="-65" x2="65" y1="-40" y2="-40"/>
<line x1="-39" x2="-39" y1="-65" y2="65"/>
<line x1="-65" x2="65" y1="-39" y2="-39"/>
<line x1="-38" x2="-38" y1="-65" y2="65"/>
<line x1="-65" x2="65" y1="-38" y2="-38"/>
<line x1="-37" x2="-37" y1="-65" y2="65"/>
<line x1="-65" x2="65" y1="-37" y2="-37"/>
<line x1="-36" x2="-36" y1="-65" y2="65"/>
<line x1="-65" x2="65" y1="-36" y2="-36"/>
<line x1="-35" x2="-35" y1="-65" y2="65"/>
<line x1="-65" x2="65" y1="-35" y2="-35"/>
<line x1="-34" x2="-34" y1="-65" y2="65"/>
<line x1="-65" x2="65" y1="-34" y2="-34"/>
<line x1="-33" x2="-33" y1="-65" y2="65"/>
<line x1="-65" x2="65" y1="-33" y2="-33"/>
<line x1="-32" x2="-32" y1="-65" y2="65"/>
<line x1="-65" x2="65" y1="-32" y2="-32"/>
<line x1="-31" x2="-31" y1="-65" y2="65"/>
<line x1="-65" x2="65" y1="-31" y2="-31"/>
<line class="axis-line" x1="-30" x2="-30" y1="-65" y2="65"/>
<line class="axis-line" x1="-65" x2="65" y1="-30" y2="-30"/>
<line x1="-29" x2="-29" y1="-65" y2="65"/>
<line x1="-65" x2="65" y1="-29" y2="-29"/>
<line x1="-28" x2="-28" y1="-65" y2="65"/>
<line x1="-65" x2="65" y1="-28" y2="-28"/>
<line x1="-27" x2="-27" y1="-65" y2="65"/>
<line x1="-65" x2="65" y1="-27" y2="-27"/>
<line x1="-26" x2="-26" y1="-65" y2="65"/>
<line x1="-65" x2="65" y1="-26" y2="-26"/>
<line x1="-25" x2="-25" y1="-65" y2="65"/>
<line x1="-65" x2="65" y1="-25" y2="-25"/>
<line x1="-24" x2="-24" y1="-65" y2="65"/>
<line x1="-65" x2="65" y1="-24" y2="-24"/>
<line x1="-23" x2="-23" y1="-65" y2="65"/>
<line x1="-65" x2="65" y1="-23" y2="-23"/>
<line x1="-22" x2="-22" y1="-65" y2="65"/>
<line x1="-65" x2="65" y1="-22" y2="-22"/>
<line x1="-21" x2="-21" y1="-65" y2="65"/>
<line x1="-65" x2="65" y1="-21" y2="-21"/>
<line class="axis-line" x1="-20" x2="-20" y1="-65" y2="65"/>
<line class="axis-line" x1="-65" x2="65" y1="-20" y2="-20"/>
<line x1="-19" x2="-19" y1="-65" y2="65"/>
<line x1="-65" x2="65" y1="-19" y2="-19"/>
<line x1="-18" x2="-18" y1="-65" y2="65"/>
<line x1="-65" x2="65" y1="-18" y2="-18"/>
<line x1="-17" x2="-17" y1="-65" y2="65"/>
<line x1="-65" x2="65" y1="-17" y2="-17"/>
<line x1="-16" x2="-16" y1="-65" y2="65"/>
<line x1="-65" x2="65" y1="-16" y2="-16"/>
<line x1="-15" x2="-15" y1="-65" y2="65"/>
<line x1="-65" x2="65" y1="-15" y2="-15"/>
<line x1="-14" x2="-14" y1="-65" y2="65"/>
<line x1="-65" x2="65" y1="-14" y2="-14"/>
<line x1="-13" x2="-13" y1="-65" y2="65"/>
<line x1="-65" x2="65" y1="-13" y2="-13"/>
<line x1="-12" x2="-12" y1="-65" y2="65"/>
<line x1="-65" x2="65" y1="-12" y2="-12"/>
<line x1="-11" x2="-11" y1="-65" y2="65"/>
<line x1="-65" x2="65" y1="-11" y2="-11"/>
<line class="axis-line" x1="-10" x2="-10" y1="-65" y2="65"/>
<line class="axis-line" x1="-65" x2="65" y1="-10" y2="-10"/>
<line x1="-9" x2="-9" y1="-65" y2="65"/>
<line x1="-65" x2="65" y1="-9" y2="-9"/>
<line x1="-8" x2="-8" y1="-65" y2="65"/>
<line x1="-65" x2="65" y1="-8" y2="-8"/>
<line x1="-7" x2="-7" y1="-65" y2="65"/>
<line x1="-65" x2="65" y1="-7" y2="-7"/>
<line x1="-6" x2="-6" y1="-65" y2="65"/>
<line x1="-65" x2="65" y1="-6" y2="-6"/>
<line x1="-5" x2="-5" y1="-65" y2="65"/>
<line x1="-65" x2="65" y1="-5" y2="-5"/>
<line x1="-4" x2="-4" y1="-65" y2="65"/>
<line x1="-65" x2="65" y1="-4" y2="-4"/>
<line x1="-3" x2="-3" y1="-65" y2="65"/>
<line x1="-65" x2="65" y1="-3" y2="-3"/>
<line x1="-2" x2="-2" y1="-65" y2="65"/>
<line x1="-65" x2="65" y1="-2" y2="-2"/>
<line x1="-1" x2="-1" y1="-65" y2="65"/>
<line x1="-65" x2="65" y1="-1" y2="-1"/>
<line x1="1" x2="1" y1="-65" y2="65"/>
<line x1="-65" x2="65" y1="1" y2="1"/>
<line x1="2" x2="2" y1="-65" y2="65"/>
<line x1="-65" x2="65" y1="2" y2="2"/>
<line x1="3" x2="3" y1="-65" y2="65"/>
<line x1="-65" x2="65" y1="3" y2="3"/>
<line x1="4" x2="4" y1="-65" y2="65"/>
<line x1="-65" x2="65" y1="4" y2="4"/>
<line x1="5" x2="5" y1="-65" y2="65"/>
<line x1="-65" x2="65" y1="5" y2="5"/>
<line x1="6" x2="6" y1="-65" y2="65"/>
<line x1="-65" x2="65" y1="6" y2="6"/>
<line x1="7" x2="7" y1="-65" y2="65"/>
<line x1="-65" x2="65" y1="7" y2="7"/>
<line x1="8" x2="8" y1="-65" y2="65"/>
<line x1="-65" x2="65" y1="8" y2="8"/>
<line x1="9" x2="9" y1="-65" y2="65"/>
<line x1="-65" x2="65" y1="9" y2="9"/>
<line class="axis-line" x1="10" x2="10" y1="-65" y2="65"/>
<line class="axis-line" x1="-65" x2="65" y1="10" y2="10"/>
<line x1="11" x2="11" y1="-65" y2="65"/>
<line x1="-65" x2="65" y1="11" y2="11"/>
<line x1="12" x2="12" y1="-65" y2="65"/>
<line x1="-65" x2="65" y1="12" y2="12"/>
<line x1="13" x2="13" y1="-65" y2="65"/>
<line x1="-65" x2="65" y1="13" y2="13"/>
<line x1="14" x2="14" y1="-65" y2="65"/>
<line x1="-65" x2="65" y1="14" y2="14"/>
<line x1="15" x2="15" y1="-65" y2="65"/>
<line x1="-65" x2="65" y1="15" y2="15"/>
<line x1="16" x2="16" y1="-65" y2="65"/>
<line x1="-65" x2="65" y1="16" y2="16"/>
<line x1="17" x2="17" y1="-65" y2="65"/>
<line x1="-65" x2="65" y1="17" y2="17"/>
<line x1="18" x2="18" y1="-65" y2="65"/>
<line x1="-65" x2="65" y1="18" y2="18"/>
<line x1="19" x2="19" y1="-65" y2="65"/>
<line x1="-65" x2="65" y1="19" y2="19"/>
<line class="axis-line" x1="20" x2="20" y1="-65" y2="65"/>
<line class="axis-line" x1="-65" x2="65" y1="20" y2="20"/>
<line x1="21" x2="21" y1="-65" y2="65"/>
<line x1="-65" x2="65" y1="21" y2="21"/>
<line x1="22" x2="22" y1="-65" y2="65"/>
<line x1="-65" x2="65" y1="22" y2="22"/>
<line x1="23" x2="23" y1="-65" y2="65"/>
<line x1="-65" x2="65" y1="23" y2="23"/>
<line x1="24" x2="24" y1="-65" y2="65"/>
<line x1="-65" x2="65" y1="24" y2="24"/>
<line x1="25" x2="25" y1="-65" y2="65"/>
<line x1="-65" x2="65" y1="25" y2="25"/>
<line x1="26" x2="26" y1="-65" y2="65"/>
<line x1="-65" x2="65" y1="26" y2="26"/>
<line x1="27" x2="27" y1="-65" y2="65"/>
<line x1="-65" x2="65" y1="27" y2="27"/>
<line x1="28" x2="28" y1="-65" y2="65"/>
<line x1="-65" x2="65" y1="28" y2="28"/>
<line x1="29" x2="29" y1="-65" y2="65"/>
<line x1="-65" x2="65" y1="29" y2="29"/>
<line class="axis-line" x1="30" x2="30" y1="-65" y2="65"/>
<line class="axis-line" x1="-65" x2="65" y1="30" y2="30"/>
<line x1="31" x2="31" y1="-65" y2="65"/>
<line x1="-65" x2="65" y1="31" y2="31"/>
<line x1="32" x2="32" y1="-65" y2="65"/>
<line x1="-65" x2="65" y1="32" y2="32"/>
<line x1="33" x2="33" y1="-65" y2="65"/>
<line x1="-65" x2="65" y1="33" y2="33"/>
<line x1="34" x2="34" y1="-65" y2="65"/>
<line x1="-65" x2="65" y1="34" y2="34"/>
<line x1="35" x2="35" y1="-65" y2="65"/>
<line x1="-65" x2="65" y1="35" y2="35"/>
<line x1="36" x2="36" y1="-65" y2="65"/>
<line x1="-65" x2="65" y1="36" y2="36"/>
<line x1="37" x2="37" y1="-65" y2="65"/>
<line x1="-65" x2="65" y1="37" y2="37"/>
<line x1="38" x2="38" y1="-65" y2="65"/>
<line x1="-65" x2="65" y1="38" y2="38"/>
<line x1="39" x2="39" y1="-65" y2="65"/>
<line x1="-65" x2="65" y1="39" y2="39"/>
<line class="axis-line" x1="40" x2="40" y1="-65" y2="65"/>
<line class="axis-line" x1="-65" x2="65" y1="40" y2="40"/>
<line x1="41" x2="41" y1="-65" y2="65"/>
<line x1="-65" x2="65" y1="41" y2="41"/>
<line x1="42" x2="42" y1="-65" y2="65"/>
<line x1="-65" x2="65" y1="42" y2="42"/>
<line x1="43" x2="43" y1="-65" y2="65"/>
<line x1="-65" x2="65" y1="43" y2="43"/>
<line x1="44" x2="44" y1="-65" y2="65"/>
<line x1="-65" x2="65" y1="44" y2="44"/>
<line x1="45" x2="45" y1="-65" y2="65"/>
<line x1="-65" x2="65" y1="45" y2="45"/>
<line x1="46" x2="46" y1="-65" y2="65"/>
<line x1="-65" x2="65" y1="46" y2="46"/>
<line x1="47" x2="47" y1="-65" y2="65"/>
<line x1="-65" x2="65" y1="47" y2="47"/>
<line x1="48" x2="48" y1="-65" y2="65"/>
<line x1="-65" x2="65" y1="48" y2="48"/>
<line x1="49" x2="49" y1="-65" y2="65"/>
<line x1="-65" x2="65" y1="49" y2="49"/>
<line class="axis-line" x1="50" x2="50" y1="-65" y2="65"/>
<line class="axis-line" x1="-65" x2="65" y1="50" y2="50"/>
<line x1="51" x2="51" y1="-65" y2="65"/>
<line x1="-65" x2="65" y1="51" y2="51"/>
<line x1="52" x2="52" y1="-65" y2="65"/>
<line x1="-65" x2="65" y1="52" y2="52"/>
<line x1="53" x2="53" y1="-65" y2="65"/>
<line x1="-65" x2="65" y1="53" y2="53"/>
<line x1="54" x2="54" y1="-65" y2="65"/>
<line x1="-65" x2="65" y1="54" y2="54"/>
<line x1="55" x2="55" y1="-65" y2="65"/>
<line x1="-65" x2="65" y1="55" y2="55"/>
<line x1="56" x2="56" y1="-65" y2="65"/>
<line x1="-65" x2="65" y1="56" y2="56"/>
<line x1="57" x2="57" y1="-65" y2="65"/>
<line x1="-65" x2="65" y1="57" y2="57"/>
<line x1="58" x2="58" y1="-65" y2="65"/>
<line x1="-65" x2="65" y1="58" y2="58"/>
<line x1="59" x2="59" y1="-65" y2="65"/>
<line x1="-65" x2="65" y1="59" y2="59"/>
<line class="axis-line" x1="60" x2="60" y1="-65" y2="65"/>
<line class="axis-line" x1="-65" x2="65" y1="60" y2="60"/>
<line x1="61" x2="61" y1="-65" y2="65"/>
<line x1="-65" x2="65" y1="61" y2="61"/>
<line x1="62" x2="62" y1="-65" y2="65"/>
<line x1="-65" x2="65" y1="62" y2="62"/>
<line x1="63" x2="63" y1="-65" y2="65"/>
<line x1="-65" x2="65" y1="63" y2="63"/>
<line x1="64" x2="64" y1="-65" y2="65"/>
<line x1="-65" x2="65" y1="64" y2="64"/>
<line x1="65" x2="65" y1="-65" y2="65"/>
<line x1="-65" x2="65" y1="65" y2="65"/>
<line class="axis-null-line" x1="0" x2="0" y1="-65" y2="65" style="stroke-width:0.002cm; stroke-opacity:.8"/>
<line class="axis-null-line" x1="-65" x2="65" y1="0" y2="0" style="stroke-width:0.002cm; stroke-opacity:.8"/>
<g id="labels" transform="scale(1,-1)">
<text x="10" y="-66">+10</text>
<text x="10" y="66.3">+10</text>
<text x="-10" y="-66">-10</text>
<text x="-10" y="66.3">-10</text>
<text x="20" y="-66">+20</text>
<text x="20" y="66.3">+20</text>
<text x="-20" y="-66">-20</text>
<text x="-20" y="66.3">-20</text>
<text x="30" y="-66">+30</text>
<text x="30" y="66.3">+30</text>
<text x="-30" y="-66">-30</text>
<text x="-30" y="66.3">-30</text>
<text x="40" y="-66">+40</text>
<text x="40" y="66.3">+40</text>
<text x="-40" y="-66">-40</text>
<text x="-40" y="66.3">-40</text>
<text x="50" y="-66">+50</text>
<text x="50" y="66.3">+50</text>
<text x="-50" y="-66">-50</text>
<text x="-50" y="66.3">-50</text>
<text x="60" y="-66">+60</text>
<text x="60" y="66.3">+60</text>
<text x="-60" y="-66">-60</text>
<text x="-60" y="66.3">-60</text>
<text x="-67.2" y="10">+10</text>
<text x="67.2" y="10">+10</text>
<text x="-67.2" y="-10">-10</text>
<text x="67.2" y="-10">-10</text>
<text x="-67.2" y="20">+20</text>
<text x="67.2" y="20">+20</text>
<text x="-67.2" y="-20">-20</text>
<text x="67.2" y="-20">-20</text>
<text x="-67.2" y="30">+30</text>
<text x="67.2" y="30">+30</text>
<text x="-67.2" y="-30">-30</text>
<text x="67.2" y="-30">-30</text>
<text x="-67.2" y="40">+40</text>
<text x="67.2" y="40">+40</text>
<text x="-67.2" y="-40">-40</text>
<text x="67.2" y="-40">-40</text>
<text x="-67.2" y="50">+50</text>
<text x="67.2" y="50">+50</text>
<text x="-67.2" y="-50">-50</text>
<text x="67.2" y="-50">-50</text>
<text x="-67.2" y="60">+60</text>
<text x="67.2" y="60">+60</text>
<text x="-67.2" y="-60">-60</text>
<text x="67.2" y="-60">-60</text>
<text class="axis-text" x="0" y="66.3">cm</text>
<text class="axis-text" x="0" y="-66">cm</text>
<text class="axis-text" x="-67.2" y="0">cm</text>
<text class="axis-text" x="67.2" y="0">cm</text>
</g></g>
<path id="driven" d="M -3.489 53.24 A .625 .625 0 0 1 -2.942 53.9 L -3.123 57.21 L -2.5 57.241 A 2.583 2.583 0 0 1 2.5 57.241 L 3.123 57.21 L 2.942 53.9 A .625 .625 0 0 1 3.489 53.24 A .625 .625 0 0 1 4.117 53.822 L 4.37 57.128 L 4.993 57.077 A 2.583 2.583 0 0 1 9.949 56.425 L 10.564 56.313 L 9.952 53.053 A .625 .625 0 0 1 10.408 52.329 A .625 .625 0 0 1 11.107 52.824 L 11.79 56.069 L 12.401 55.937 A 2.583 2.583 0 0 1 17.229 54.643 L 17.824 54.452 L 16.792 51.3 A .625 .625 0 0 1 17.15 50.522 A .625 .625 0 0 1 17.907 50.922 L 19.007 54.05 L 19.596 53.84 A 2.583 2.583 0 0 1 24.214 51.927 L 24.779 51.66 L 23.344 48.67 A .625 .625 0 0 1 23.598 47.852 A .625 .625 0 0 1 24.401 48.149 L 25.9 51.107 L 26.456 50.821 A 2.583 2.583 0 0 1 30.784 48.322 L 31.31 47.984 L 29.497 45.206 A .625 .625 0 0 1 29.642 44.362 A .625 .625 0 0 1 30.477 44.552 L 32.349 47.289 L 32.863 46.933 A 2.583 2.583 0 0 1 36.829 43.891 L 37.305 43.486 L 35.146 40.969 A .625 .625 0 0 1 35.179 40.113 A .625 .625 0 0 1 36.031 40.193 L 38.245 42.662 L 38.708 42.242 A 2.583 2.583 0 0 1 42.242 38.708 L 42.662 38.245 L 40.193 36.031 A .625 .625 0 0 1 40.113 35.179 A .625 .625 0 0 1 40.969 35.146 L 43.486 37.305 L 43.891 36.829 A 2.583 2.583 0 0 1 46.933 32.863 L 47.289 32.349 L 44.552 30.477 A .625 .625 0 0 1 44.362 29.642 A .625 .625 0 0 1 45.206 29.497 L 47.984 31.31 L 48.322 30.784 A 2.583 2.583 0 0 1 50.821 26.456 L 51.107 25.9 L 48.149 24.401 A .625 .625 0 0 1 47.852 23.598 A .625 .625 0 0 1 48.67 23.344 L 51.66 24.779 L 51.927 24.214 A 2.583 2.583 0 0 1 53.84 19.596 L 54.05 19.007 L 50.922 17.907 A .625 .625 0 0 1 50.522 17.15 A .625 .625 0 0 1 51.3 16.792 L 54.452 17.824 L 54.643 17.229 A 2.583 2.583 0 0 1 55.937 12.401 L 56.069 11.79 L 52.824 11.107 A .625 .625 0 0 1 52.329 10.408 A .625 .625 0 0 1 53.053 9.952 L 56.313 10.564 L 56.425 9.949 A 2.583 2.583 0 0 1 57.077 4.993 L 57.128 4.37 L 53.822 4.117 A .625 .625 0 0 1 53.24 3.489 A .625 .625 0 0 1 53.9 2.942 L 57.21 3.123 L 57.241 2.5 A 2.583 2.583 0 0 1 57.241 -2.5 L 57.21 -3.123 L 53.9 -2.942 A .625 .625 0 0 1 53.24 -3.489 A .625 .625 0 0 1 53.822 -4.117 L 57.128 -4.37 L 57.077 -4.993 A 2.583 2.583 0 0 1 56.425 -9.949 L 56.313 -10.564 L 53.053 -9.952 A .625 .625 0 0 1 52.329 -10.408 A .625 .625 0 0 1 52.824 -11.107 L 56.069 -11.79 L 55.937 -12.401 A 2.583 2.583 0 0 1 54.643 -17.229 L 54.452 -17.824 L 51.3 -16.792 A .625 .625 0 0 1 50.522 -17.15 A .625 .625 0 0 1 50.922 -17.907 L 54.05 -19.007 L 53.84 -19.596 A 2.583 2.583 0 0 1 51.927 -24.214 L 51.66 -24.779 L 48.67 -23.344 A .625 .625 0 0 1 47.852 -23.598 A .625 .625 0 0 1 48.149 -24.401 L 51.107 -25.9 L 50.821 -26.456 A 2.583 2.583 0 0 1 48.322 -30.784 L 47.984 -31.31 L 45.206 -29.497 A .625 .625 0 0 1 44.362 -29.642 A .625 .625 0 0 1 44.552 -30.477 L 47.289 -32.349 L 46.933 -32.863 A 2.583 2.583 0 0 1 43.891 -36.829 L 43.486 -37.305 L 40.969 -35.146 A .625 .625 0 0 1 40.113 -35.179 A .625 .625 0 0 1 40.193 -36.031 L 42.662 -38.245 L 42.242 -38.708 A 2.583 2.583 0 0 1 38.708 -42.242 L 38.245 -42.662 L 36.031 -40.193 A .625 .625 0 0 1 35.179 -40.113 A .625 .625 0 0 1 35.146 -40.969 L 37.305 -43.486 L 36.829 -43.891 A 2.583 2.583 0 0 1 32.863 -46.933 L 32.349 -47.289 L 30.477 -44.552 A .625 .625 0 0 1 29.642 -44.362 A .625 .625 0 0 1 29.497 -45.206 L 31.31 -47.984 L 30.784 -48.322 A 2.583 2.583 0 0 1 26.456 -50.821 L 25.9 -51.107 L 24.401 -48.149 A .625 .625 0 0 1 23.598 -47.852 A .625 .625 0 0 1 23.344 -48.67 L 24.779 -51.66 L 24.214 -51.927 A 2.583 2.583 0 0 1 19.596 -53.84 L 19.007 -54.05 L 17.907 -50.922 A .625 .625 0 0 1 17.15 -50.522 A .625 .625 0 0 1 16.792 -51.3 L 17.824 -54.452 L 17.229 -54.643 A 2.583 2.583 0 0 1 12.401 -55.937 L 11.79 -56.069 L 11.107 -52.824 A .625 .625 0 0 1 10.408 -52.329 A .625 .625 0 0 1 9.952 -53.053 L 10.564 -56.313 L 9.949 -56.425 A 2.583 2.583 0 0 1 4.993 -57.077 L 4.37 -57.128 L 4.117 -53.822 A .625 .625 0 0 1 3.489 -53.24 A .625 .625 0 0 1 2.942 -53.9 L 3.123 -57.21 L 2.5 -57.241 A 2.583 2.583 0 0 1 -2.5 -57.241 L -3.123 -57.21 L -2.942 -53.9 A .625 .625 0 0 1 -3.489 -53.24 A .625 .625 0 0 1 -4.117 -53.822 L -4.37 -57.128 L -4.993 -57.077 A 2.583 2.583 0 0 1 -9.949 -56.425 L -10.564 -56.313 L -9.952 -53.053 A .625 .625 0 0 1 -10.408 -52.329 A .625 .625 0 0 1 -11.107 -52.824 L -11.79 -56.069 L -12.401 -55.937 A 2.583 2.583 0 0 1 -17.229 -54.643 L -17.824 -54.452 L -16.792 -51.3 A .625 .625 0 0 1 -17.15 -50.522 A .625 .625 0 0 1 -17.907 -50.922 L -19.007 -54.05 L -19.596 -53.84 A 2.583 2.583 0 0 1 -24.214 -51.927 L -24.779 -51.66 L -23.344 -48.67 A .625 .625 0 0 1 -23.598 -47.852 A .625 .625 0 0 1 -24.401 -48.149 L -25.9 -51.107 L -26.456 -50.821 A 2.583 2.583 0 0 1 -30.784 -48.322 L -31.31 -47.984 L -29.497 -45.206 A .625 .625 0 0 1 -29.642 -44.362 A .625 .625 0 0 1 -30.477 -44.552 L -32.349 -47.289 L -32.863 -46.933 A 2.583 2.583 0 0 1 -36.829 -43.891 L -37.305 -43.486 L -35.146 -40.969 A .625 .625 0 0 1 -35.179 -40.113 A .625 .625 0 0 1 -36.031 -40.193 L -38.245 -42.662 L -38.708 -42.242 A 2.583 2.583 0 0 1 -42.242 -38.708 L -42.662 -38.245 L -40.193 -36.031 A .625 .625 0 0 1 -40.113 -35.179 A .625 .625 0 0 1 -40.969 -35.146 L -43.486 -37.305 L -43.891 -36.829 A 2.583 2.583 0 0 1 -46.933 -32.863 L -47.289 -32.349 L -44.552 -30.477 A .625 .625 0 0 1 -44.362 -29.642 A .625 .625 0 0 1 -45.206 -29.497 L -47.984 -31.31 L -48.322 -30.784 A 2.583 2.583 0 0 1 -50.821 -26.456 L -51.107 -25.9 L -48.149 -24.401 A .625 .625 0 0 1 -47.852 -23.598 A .625 .625 0 0 1 -48.67 -23.344 L -51.66 -24.779 L -51.927 -24.214 A 2.583 2.583 0 0 1 -53.84 -19.596 L -54.05 -19.007 L -50.922 -17.907 A .625 .625 0 0 1 -50.522 -17.15 A .625 .625 0 0 1 -51.3 -16.792 L -54.452 -17.824 L -54.643 -17.229 A 2.583 2.583 0 0 1 -55.937 -12.401 L -56.069 -11.79 L -52.824 -11.107 A .625 .625 0 0 1 -52.329 -10.408 A .625 .625 0 0 1 -53.053 -9.952 L -56.313 -10.564 L -56.425 -9.949 A 2.583 2.583 0 0 1 -57.077 -4.993 L -57.128 -4.37 L -53.822 -4.117 A .625 .625 0 0 1 -53.24 -3.489 A .625 .625 0 0 1 -53.9 -2.942 L -57.21 -3.123 L -57.241 -2.5 A 2.583 2.583 0 0 1 -57.241 2.5 L -57.21 3.123 L -53.9 2.942 A .625 .625 0 0 1 -53.24 3.489 A .625 .625 0 0 1 -53.822 4.117 L -57.128 4.37 L -57.077 4.993 A 2.583 2.583 0 0 1 -56.425 9.949 L -56.313 10.564 L -53.053 9.952 A .625 .625 0 0 1 -52.329 10.408 A .625 .625 0 0 1 -52.824 11.107 L -56.069 11.79 L -55.937 12.401 A 2.583 2.583 0 0 1 -54.643 17.229 L -54.452 17.824 L -51.3 16.792 A .625 .625 0 0 1 -50.522 17.15 A .625 .625 0 0 1 -50.922 17.907 L -54.05 19.007 L -53.84 19.596 A 2.583 2.583 0 0 1 -51.927 24.214 L -51.66 24.779 L -48.67 23.344 A .625 .625 0 0 1 -47.852 23.598 A .625 .625 0 0 1 -48.149 24.401 L -51.107 25.9 L -50.821 26.456 A 2.583 2.583 0 0 1 -48.322 30.784 L -47.984 31.31 L -45.206 29.497 A .625 .625 0 0 1 -44.362 29.642 A .625 .625 0 0 1 -44.552 30.477 L -47.289 32.349 L -46.933 32.863 A 2.583 2.583 0 0 1 -43.891 36.829 L -43.486 37.305 L -40.969 35.146 A .625 .625 0 0 1 -40.113 35.179 A .625 .625 0 0 1 -40.193 36.031 L -42.662 38.245 L -42.242 38.708 A 2.583 2.583 0 0 1 -38.708 42.242 L -38.245 42.662 L -36.031 40.193 A .625 .625 0 0 1 -35.179 40.113 A .625 .625 0 0 1 -35.146 40.969 L -37.305 43.486 L -36.829 43.891 A 2.583 2.583 0 0 1 -32.863 46.933 L -32.349 47.289 L -30.477 44.552 A .625 .625 0 0 1 -29.642 44.362 A .625 .625 0 0 1 -29.497 45.206 L -31.31 47.984 L -30.784 48.322 A 2.583 2.583 0 0 1 -26.456 50.821 L -25.9 51.107 L -24.401 48.149 A .625 .625 0 0 1 -23.598 47.852 A .625 .625 0 0 1 -23.344 48.67 L -24.779 51.66 L -24.214 51.927 A 2.583 2.583 0 0 1 -19.596 53.84 L -19.007 54.05 L -17.907 50.922 A .625 .625 0 0 1 -17.15 50.522 A .625 .625 0 0 1 -16.792 51.3 L -17.824 54.452 L -17.229 54.643 A 2.583 2.583 0 0 1 -12.401 55.937 L -11.79 56.069 L -11.107 52.824 A .625 .625 0 0 1 -10.408 52.329 A .625 .625 0 0 1 -9.952 53.053 L -10.564 56.313 L -9.949 56.425 A 2.583 2.583 0 0 1 -4.993 57.077 L -4.37 57.128 L -4.117 53.822 A .625 .625 0 0 1 -3.489 53.24 Z"/>
<path id="axis" class="hole" d="M -.935 0 a .935 .935 0 1 0 1.87 0 a .935 .935 0 1 0 -1.87 0 Z"/>
<path id="HF48" class="hole" d="M 3.292 0 a .263 .263 0 1 0 .525 0 a .263 .263 0 1 0 -.525 0 Z M 1.515 3.079 a .263 .263 0 1 0 .525 0 a .263 .263 0 1 0 -.525 0 Z M -2.04 3.079 a .263 .263 0 1 0 .525 0 a .263 .263 0 1 0 -.525 0 Z M -3.818 0 a .263 .263 0 1 0 .525 0 a .263 .263 0 1 0 -.525 0 Z M -2.04 -3.079 a .263 .263 0 1 0 .525 0 a .263 .263 0 1 0 -.525 0 Z M 1.515 -3.079 a .263 .263 0 1 0 .525 0 a .263 .263 0 1 0 -.525 0 Z"/>
</svg>