<?xml version="1.0" encoding="utf-8" ?><!-- SZT 2025.11.06 20:44:54 -->
<svg xmlns="http://www.w3.org/2000/svg" xmlns:ev="http://www.w3.org/2001/xml-events" xmlns:xlink="http://www.w3.org/1999/xlink" baseProfile="full" height="138cm" version="1.1" viewBox="-69 -69 138 138" width="138cm">
<style id="grid_style" type="text/css">
 #grid line { fill:none; stroke-width:.001cm; stroke-opacity:.5; stroke:rgb(0,0,255); }
 #grid .axis-line { fill:none; stroke-width:.001cm; stroke-opacity:.9; stroke:rgb(150,0,0); }
 #grid .axis-null-line { fill:none; stroke-width:.001cm; stroke-opacity:.9; stroke:rgb(0,120,0); }
 #grid text { dominant-baseline:central; fill:rgb(150,0,0); font-size:.045cm; text-anchor:middle; }
 #grid .axis-text { dominant-baseline:central; fill:rgb(0,80,0); font-size:.05cm; text-anchor:middle; }
 #bgnd { fill:white; }
</style>
<style id="global_style">
 path, .piece { fill: rgba(30,60,90,.7); stroke: none; fill-rule:evenodd; }
 .deco, .hole { fill: rgba(255,255,255,.7); stroke: none; }
 #bgnd { fill: #FFFFFF; stroke: none; }
</style>
<g id="grid" transform="scale(1,-1)">
<rect id="bgnd" height="138" width="138" x="-69" y="-69"/>
<line x1="-65" x2="-65" y1="-65" y2="65"/>
<line x1="-65" x2="65" y1="-65" y2="-65"/>
<line x1="-64" x2="-64" y1="-65" y2="65"/>
<line x1="-65" x2="65" y1="-64" y2="-64"/>
<line x1="-63" x2="-63" y1="-65" y2="65"/>
<line x1="-65" x2="65" y1="-63" y2="-63"/>
<line x1="-62" x2="-62" y1="-65" y2="65"/>
<line x1="-65" x2="65" y1="-62" y2="-62"/>
<line x1="-61" x2="-61" y1="-65" y2="65"/>
<line x1="-65" x2="65" y1="-61" y2="-61"/>
<line class="axis-line" x1="-60" x2="-60" y1="-65" y2="65"/>
<line class="axis-line" x1="-65" x2="65" y1="-60" y2="-60"/>
<line x1="-59" x2="-59" y1="-65" y2="65"/>
<line x1="-65" x2="65" y1="-59" y2="-59"/>
<line x1="-58" x2="-58" y1="-65" y2="65"/>
<line x1="-65" x2="65" y1="-58" y2="-58"/>
<line x1="-57" x2="-57" y1="-65" y2="65"/>
<line x1="-65" x2="65" y1="-57" y2="-57"/>
<line x1="-56" x2="-56" y1="-65" y2="65"/>
<line x1="-65" x2="65" y1="-56" y2="-56"/>
<line x1="-55" x2="-55" y1="-65" y2="65"/>
<line x1="-65" x2="65" y1="-55" y2="-55"/>
<line x1="-54" x2="-54" y1="-65" y2="65"/>
<line x1="-65" x2="65" y1="-54" y2="-54"/>
<line x1="-53" x2="-53" y1="-65" y2="65"/>
<line x1="-65" x2="65" y1="-53" y2="-53"/>
<line x1="-52" x2="-52" y1="-65" y2="65"/>
<line x1="-65" x2="65" y1="-52" y2="-52"/>
<line x1="-51" x2="-51" y1="-65" y2="65"/>
<line x1="-65" x2="65" y1="-51" y2="-51"/>
<line class="axis-line" x1="-50" x2="-50" y1="-65" y2="65"/>
<line class="axis-line" x1="-65" x2="65" y1="-50" y2="-50"/>
<line x1="-49" x2="-49" y1="-65" y2="65"/>
<line x1="-65" x2="65" y1="-49" y2="-49"/>
<line x1="-48" x2="-48" y1="-65" y2="65"/>
<line x1="-65" x2="65" y1="-48" y2="-48"/>
<line x1="-47" x2="-47" y1="-65" y2="65"/>
<line x1="-65" x2="65" y1="-47" y2="-47"/>
<line x1="-46" x2="-46" y1="-65" y2="65"/>
<line x1="-65" x2="65" y1="-46" y2="-46"/>
<line x1="-45" x2="-45" y1="-65" y2="65"/>
<line x1="-65" x2="65" y1="-45" y2="-45"/>
<line x1="-44" x2="-44" y1="-65" y2="65"/>
<line x1="-65" x2="65" y1="-44" y2="-44"/>
<line x1="-43" x2="-43" y1="-65" y2="65"/>
<line x1="-65" x2="65" y1="-43" y2="-43"/>
<line x1="-42" x2="-42" y1="-65" y2="65"/>
<line x1="-65" x2="65" y1="-42" y2="-42"/>
<line x1="-41" x2="-41" y1="-65" y2="65"/>
<line x1="-65" x2="65" y1="-41" y2="-41"/>
<line class="axis-line" x1="-40" x2="-40" y1="-65" y2="65"/>
<line class="axis-line" x1="-65" x2="65" y1="-40" y2="-40"/>
<line x1="-39" x2="-39" y1="-65" y2="65"/>
<line x1="-65" x2="65" y1="-39" y2="-39"/>
<line x1="-38" x2="-38" y1="-65" y2="65"/>
<line x1="-65" x2="65" y1="-38" y2="-38"/>
<line x1="-37" x2="-37" y1="-65" y2="65"/>
<line x1="-65" x2="65" y1="-37" y2="-37"/>
<line x1="-36" x2="-36" y1="-65" y2="65"/>
<line x1="-65" x2="65" y1="-36" y2="-36"/>
<line x1="-35" x2="-35" y1="-65" y2="65"/>
<line x1="-65" x2="65" y1="-35" y2="-35"/>
<line x1="-34" x2="-34" y1="-65" y2="65"/>
<line x1="-65" x2="65" y1="-34" y2="-34"/>
<line x1="-33" x2="-33" y1="-65" y2="65"/>
<line x1="-65" x2="65" y1="-33" y2="-33"/>
<line x1="-32" x2="-32" y1="-65" y2="65"/>
<line x1="-65" x2="65" y1="-32" y2="-32"/>
<line x1="-31" x2="-31" y1="-65" y2="65"/>
<line x1="-65" x2="65" y1="-31" y2="-31"/>
<line class="axis-line" x1="-30" x2="-30" y1="-65" y2="65"/>
<line class="axis-line" x1="-65" x2="65" y1="-30" y2="-30"/>
<line x1="-29" x2="-29" y1="-65" y2="65"/>
<line x1="-65" x2="65" y1="-29" y2="-29"/>
<line x1="-28" x2="-28" y1="-65" y2="65"/>
<line x1="-65" x2="65" y1="-28" y2="-28"/>
<line x1="-27" x2="-27" y1="-65" y2="65"/>
<line x1="-65" x2="65" y1="-27" y2="-27"/>
<line x1="-26" x2="-26" y1="-65" y2="65"/>
<line x1="-65" x2="65" y1="-26" y2="-26"/>
<line x1="-25" x2="-25" y1="-65" y2="65"/>
<line x1="-65" x2="65" y1="-25" y2="-25"/>
<line x1="-24" x2="-24" y1="-65" y2="65"/>
<line x1="-65" x2="65" y1="-24" y2="-24"/>
<line x1="-23" x2="-23" y1="-65" y2="65"/>
<line x1="-65" x2="65" y1="-23" y2="-23"/>
<line x1="-22" x2="-22" y1="-65" y2="65"/>
<line x1="-65" x2="65" y1="-22" y2="-22"/>
<line x1="-21" x2="-21" y1="-65" y2="65"/>
<line x1="-65" x2="65" y1="-21" y2="-21"/>
<line class="axis-line" x1="-20" x2="-20" y1="-65" y2="65"/>
<line class="axis-line" x1="-65" x2="65" y1="-20" y2="-20"/>
<line x1="-19" x2="-19" y1="-65" y2="65"/>
<line x1="-65" x2="65" y1="-19" y2="-19"/>
<line x1="-18" x2="-18" y1="-65" y2="65"/>
<line x1="-65" x2="65" y1="-18" y2="-18"/>
<line x1="-17" x2="-17" y1="-65" y2="65"/>
<line x1="-65" x2="65" y1="-17" y2="-17"/>
<line x1="-16" x2="-16" y1="-65" y2="65"/>
<line x1="-65" x2="65" y1="-16" y2="-16"/>
<line x1="-15" x2="-15" y1="-65" y2="65"/>
<line x1="-65" x2="65" y1="-15" y2="-15"/>
<line x1="-14" x2="-14" y1="-65" y2="65"/>
<line x1="-65" x2="65" y1="-14" y2="-14"/>
<line x1="-13" x2="-13" y1="-65" y2="65"/>
<line x1="-65" x2="65" y1="-13" y2="-13"/>
<line x1="-12" x2="-12" y1="-65" y2="65"/>
<line x1="-65" x2="65" y1="-12" y2="-12"/>
<line x1="-11" x2="-11" y1="-65" y2="65"/>
<line x1="-65" x2="65" y1="-11" y2="-11"/>
<line class="axis-line" x1="-10" x2="-10" y1="-65" y2="65"/>
<line class="axis-line" x1="-65" x2="65" y1="-10" y2="-10"/>
<line x1="-9" x2="-9" y1="-65" y2="65"/>
<line x1="-65" x2="65" y1="-9" y2="-9"/>
<line x1="-8" x2="-8" y1="-65" y2="65"/>
<line x1="-65" x2="65" y1="-8" y2="-8"/>
<line x1="-7" x2="-7" y1="-65" y2="65"/>
<line x1="-65" x2="65" y1="-7" y2="-7"/>
<line x1="-6" x2="-6" y1="-65" y2="65"/>
<line x1="-65" x2="65" y1="-6" y2="-6"/>
<line x1="-5" x2="-5" y1="-65" y2="65"/>
<line x1="-65" x2="65" y1="-5" y2="-5"/>
<line x1="-4" x2="-4" y1="-65" y2="65"/>
<line x1="-65" x2="65" y1="-4" y2="-4"/>
<line x1="-3" x2="-3" y1="-65" y2="65"/>
<line x1="-65" x2="65" y1="-3" y2="-3"/>
<line x1="-2" x2="-2" y1="-65" y2="65"/>
<line x1="-65" x2="65" y1="-2" y2="-2"/>
<line x1="-1" x2="-1" y1="-65" y2="65"/>
<line x1="-65" x2="65" y1="-1" y2="-1"/>
<line x1="1" x2="1" y1="-65" y2="65"/>
<line x1="-65" x2="65" y1="1" y2="1"/>
<line x1="2" x2="2" y1="-65" y2="65"/>
<line x1="-65" x2="65" y1="2" y2="2"/>
<line x1="3" x2="3" y1="-65" y2="65"/>
<line x1="-65" x2="65" y1="3" y2="3"/>
<line x1="4" x2="4" y1="-65" y2="65"/>
<line x1="-65" x2="65" y1="4" y2="4"/>
<line x1="5" x2="5" y1="-65" y2="65"/>
<line x1="-65" x2="65" y1="5" y2="5"/>
<line x1="6" x2="6" y1="-65" y2="65"/>
<line x1="-65" x2="65" y1="6" y2="6"/>
<line x1="7" x2="7" y1="-65" y2="65"/>
<line x1="-65" x2="65" y1="7" y2="7"/>
<line x1="8" x2="8" y1="-65" y2="65"/>
<line x1="-65" x2="65" y1="8" y2="8"/>
<line x1="9" x2="9" y1="-65" y2="65"/>
<line x1="-65" x2="65" y1="9" y2="9"/>
<line class="axis-line" x1="10" x2="10" y1="-65" y2="65"/>
<line class="axis-line" x1="-65" x2="65" y1="10" y2="10"/>
<line x1="11" x2="11" y1="-65" y2="65"/>
<line x1="-65" x2="65" y1="11" y2="11"/>
<line x1="12" x2="12" y1="-65" y2="65"/>
<line x1="-65" x2="65" y1="12" y2="12"/>
<line x1="13" x2="13" y1="-65" y2="65"/>
<line x1="-65" x2="65" y1="13" y2="13"/>
<line x1="14" x2="14" y1="-65" y2="65"/>
<line x1="-65" x2="65" y1="14" y2="14"/>
<line x1="15" x2="15" y1="-65" y2="65"/>
<line x1="-65" x2="65" y1="15" y2="15"/>
<line x1="16" x2="16" y1="-65" y2="65"/>
<line x1="-65" x2="65" y1="16" y2="16"/>
<line x1="17" x2="17" y1="-65" y2="65"/>
<line x1="-65" x2="65" y1="17" y2="17"/>
<line x1="18" x2="18" y1="-65" y2="65"/>
<line x1="-65" x2="65" y1="18" y2="18"/>
<line x1="19" x2="19" y1="-65" y2="65"/>
<line x1="-65" x2="65" y1="19" y2="19"/>
<line class="axis-line" x1="20" x2="20" y1="-65" y2="65"/>
<line class="axis-line" x1="-65" x2="65" y1="20" y2="20"/>
<line x1="21" x2="21" y1="-65" y2="65"/>
<line x1="-65" x2="65" y1="21" y2="21"/>
<line x1="22" x2="22" y1="-65" y2="65"/>
<line x1="-65" x2="65" y1="22" y2="22"/>
<line x1="23" x2="23" y1="-65" y2="65"/>
<line x1="-65" x2="65" y1="23" y2="23"/>
<line x1="24" x2="24" y1="-65" y2="65"/>
<line x1="-65" x2="65" y1="24" y2="24"/>
<line x1="25" x2="25" y1="-65" y2="65"/>
<line x1="-65" x2="65" y1="25" y2="25"/>
<line x1="26" x2="26" y1="-65" y2="65"/>
<line x1="-65" x2="65" y1="26" y2="26"/>
<line x1="27" x2="27" y1="-65" y2="65"/>
<line x1="-65" x2="65" y1="27" y2="27"/>
<line x1="28" x2="28" y1="-65" y2="65"/>
<line x1="-65" x2="65" y1="28" y2="28"/>
<line x1="29" x2="29" y1="-65" y2="65"/>
<line x1="-65" x2="65" y1="29" y2="29"/>
<line class="axis-line" x1="30" x2="30" y1="-65" y2="65"/>
<line class="axis-line" x1="-65" x2="65" y1="30" y2="30"/>
<line x1="31" x2="31" y1="-65" y2="65"/>
<line x1="-65" x2="65" y1="31" y2="31"/>
<line x1="32" x2="32" y1="-65" y2="65"/>
<line x1="-65" x2="65" y1="32" y2="32"/>
<line x1="33" x2="33" y1="-65" y2="65"/>
<line x1="-65" x2="65" y1="33" y2="33"/>
<line x1="34" x2="34" y1="-65" y2="65"/>
<line x1="-65" x2="65" y1="34" y2="34"/>
<line x1="35" x2="35" y1="-65" y2="65"/>
<line x1="-65" x2="65" y1="35" y2="35"/>
<line x1="36" x2="36" y1="-65" y2="65"/>
<line x1="-65" x2="65" y1="36" y2="36"/>
<line x1="37" x2="37" y1="-65" y2="65"/>
<line x1="-65" x2="65" y1="37" y2="37"/>
<line x1="38" x2="38" y1="-65" y2="65"/>
<line x1="-65" x2="65" y1="38" y2="38"/>
<line x1="39" x2="39" y1="-65" y2="65"/>
<line x1="-65" x2="65" y1="39" y2="39"/>
<line class="axis-line" x1="40" x2="40" y1="-65" y2="65"/>
<line class="axis-line" x1="-65" x2="65" y1="40" y2="40"/>
<line x1="41" x2="41" y1="-65" y2="65"/>
<line x1="-65" x2="65" y1="41" y2="41"/>
<line x1="42" x2="42" y1="-65" y2="65"/>
<line x1="-65" x2="65" y1="42" y2="42"/>
<line x1="43" x2="43" y1="-65" y2="65"/>
<line x1="-65" x2="65" y1="43" y2="43"/>
<line x1="44" x2="44" y1="-65" y2="65"/>
<line x1="-65" x2="65" y1="44" y2="44"/>
<line x1="45" x2="45" y1="-65" y2="65"/>
<line x1="-65" x2="65" y1="45" y2="45"/>
<line x1="46" x2="46" y1="-65" y2="65"/>
<line x1="-65" x2="65" y1="46" y2="46"/>
<line x1="47" x2="47" y1="-65" y2="65"/>
<line x1="-65" x2="65" y1="47" y2="47"/>
<line x1="48" x2="48" y1="-65" y2="65"/>
<line x1="-65" x2="65" y1="48" y2="48"/>
<line x1="49" x2="49" y1="-65" y2="65"/>
<line x1="-65" x2="65" y1="49" y2="49"/>
<line class="axis-line" x1="50" x2="50" y1="-65" y2="65"/>
<line class="axis-line" x1="-65" x2="65" y1="50" y2="50"/>
<line x1="51" x2="51" y1="-65" y2="65"/>
<line x1="-65" x2="65" y1="51" y2="51"/>
<line x1="52" x2="52" y1="-65" y2="65"/>
<line x1="-65" x2="65" y1="52" y2="52"/>
<line x1="53" x2="53" y1="-65" y2="65"/>
<line x1="-65" x2="65" y1="53" y2="53"/>
<line x1="54" x2="54" y1="-65" y2="65"/>
<line x1="-65" x2="65" y1="54" y2="54"/>
<line x1="55" x2="55" y1="-65" y2="65"/>
<line x1="-65" x2="65" y1="55" y2="55"/>
<line x1="56" x2="56" y1="-65" y2="65"/>
<line x1="-65" x2="65" y1="56" y2="56"/>
<line x1="57" x2="57" y1="-65" y2="65"/>
<line x1="-65" x2="65" y1="57" y2="57"/>
<line x1="58" x2="58" y1="-65" y2="65"/>
<line x1="-65" x2="65" y1="58" y2="58"/>
<line x1="59" x2="59" y1="-65" y2="65"/>
<line x1="-65" x2="65" y1="59" y2="59"/>
<line class="axis-line" x1="60" x2="60" y1="-65" y2="65"/>
<line class="axis-line" x1="-65" x2="65" y1="60" y2="60"/>
<line x1="61" x2="61" y1="-65" y2="65"/>
<line x1="-65" x2="65" y1="61" y2="61"/>
<line x1="62" x2="62" y1="-65" y2="65"/>
<line x1="-65" x2="65" y1="62" y2="62"/>
<line x1="63" x2="63" y1="-65" y2="65"/>
<line x1="-65" x2="65" y1="63" y2="63"/>
<line x1="64" x2="64" y1="-65" y2="65"/>
<line x1="-65" x2="65" y1="64" y2="64"/>
<line x1="65" x2="65" y1="-65" y2="65"/>
<line x1="-65" x2="65" y1="65" y2="65"/>
<line class="axis-null-line" x1="0" x2="0" y1="-65" y2="65" style="stroke-width:0.002cm; stroke-opacity:.8"/>
<line class="axis-null-line" x1="-65" x2="65" y1="0" y2="0" style="stroke-width:0.002cm; stroke-opacity:.8"/>
<g id="labels" transform="scale(1,-1)">
<text x="10" y="-66">+10</text>
<text x="10" y="66.3">+10</text>
<text x="-10" y="-66">-10</text>
<text x="-10" y="66.3">-10</text>
<text x="20" y="-66">+20</text>
<text x="20" y="66.3">+20</text>
<text x="-20" y="-66">-20</text>
<text x="-20" y="66.3">-20</text>
<text x="30" y="-66">+30</text>
<text x="30" y="66.3">+30</text>
<text x="-30" y="-66">-30</text>
<text x="-30" y="66.3">-30</text>
<text x="40" y="-66">+40</text>
<text x="40" y="66.3">+40</text>
<text x="-40" y="-66">-40</text>
<text x="-40" y="66.3">-40</text>
<text x="50" y="-66">+50</text>
<text x="50" y="66.3">+50</text>
<text x="-50" y="-66">-50</text>
<text x="-50" y="66.3">-50</text>
<text x="60" y="-66">+60</text>
<text x="60" y="66.3">+60</text>
<text x="-60" y="-66">-60</text>
<text x="-60" y="66.3">-60</text>
<text x="-67.2" y="10">+10</text>
<text x="67.2" y="10">+10</text>
<text x="-67.2" y="-10">-10</text>
<text x="67.2" y="-10">-10</text>
<text x="-67.2" y="20">+20</text>
<text x="67.2" y="20">+20</text>
<text x="-67.2" y="-20">-20</text>
<text x="67.2" y="-20">-20</text>
<text x="-67.2" y="30">+30</text>
<text x="67.2" y="30">+30</text>
<text x="-67.2" y="-30">-30</text>
<text x="67.2" y="-30">-30</text>
<text x="-67.2" y="40">+40</text>
<text x="67.2" y="40">+40</text>
<text x="-67.2" y="-40">-40</text>
<text x="67.2" y="-40">-40</text>
<text x="-67.2" y="50">+50</text>
<text x="67.2" y="50">+50</text>
<text x="-67.2" y="-50">-50</text>
<text x="67.2" y="-50">-50</text>
<text x="-67.2" y="60">+60</text>
<text x="67.2" y="60">+60</text>
<text x="-67.2" y="-60">-60</text>
<text x="67.2" y="-60">-60</text>
<text class="axis-text" x="0" y="66.3">cm</text>
<text class="axis-text" x="0" y="-66">cm</text>
<text class="axis-text" x="-67.2" y="0">cm</text>
<text class="axis-text" x="67.2" y="0">cm</text>
</g></g>
<path id="driven" d="M -2.837 54.147 A .5 .5 0 0 1 -2.386 54.669 L -2.499 57.241 L -1.999 57.26 A 2.097 2.097 0 0 1 1.999 57.26 L 2.499 57.241 L 2.386 54.669 A .5 .5 0 0 1 2.837 54.147 A .5 .5 0 0 1 3.34 54.619 L 3.497 57.188 L 3.996 57.156 A 2.097 2.097 0 0 1 7.974 56.738 L 8.468 56.666 L 8.088 54.12 A .5 .5 0 0 1 8.482 53.553 A .5 .5 0 0 1 9.031 53.97 L 9.456 56.51 L 9.949 56.425 A 2.097 2.097 0 0 1 13.861 55.593 L 14.345 55.47 L 13.701 52.978 A .5 .5 0 0 1 14.033 52.373 A .5 .5 0 0 1 14.623 52.731 L 15.311 55.211 L 15.792 55.076 A 2.097 2.097 0 0 1 19.596 53.84 L 20.065 53.667 L 19.163 51.255 A .5 .5 0 0 1 19.431 50.619 A .5 .5 0 0 1 20.055 50.913 L 20.998 53.308 L 21.463 53.123 A 2.097 2.097 0 0 1 25.116 51.497 L 25.565 51.275 L 24.416 48.972 A .5 .5 0 0 1 24.615 48.311 A .5 .5 0 0 1 25.267 48.538 L 26.456 50.821 L 26.898 50.589 A 2.097 2.097 0 0 1 30.362 48.589 L 30.784 48.322 L 29.401 46.151 A .5 .5 0 0 1 29.531 45.473 A .5 .5 0 0 1 30.202 45.631 L 31.623 47.778 L 32.039 47.5 A 2.097 2.097 0 0 1 35.274 45.149 L 35.667 44.84 L 34.064 42.825 A .5 .5 0 0 1 34.122 42.137 A .5 .5 0 0 1 34.807 42.224 L 36.444 44.21 L 36.829 43.891 A 2.097 2.097 0 0 1 39.8 41.215 L 40.159 40.866 L 38.354 39.03 A .5 .5 0 0 1 38.34 38.34 A .5 .5 0 0 1 39.03 38.354 L 40.866 40.159 L 41.215 39.8 A 2.097 2.097 0 0 1 43.891 36.829 L 44.21 36.444 L 42.224 34.807 A .5 .5 0 0 1 42.137 34.122 A .5 .5 0 0 1 42.825 34.064 L 44.84 35.667 L 45.149 35.274 A 2.097 2.097 0 0 1 47.5 32.039 L 47.778 31.623 L 45.631 30.202 A .5 .5 0 0 1 45.473 29.531 A .5 .5 0 0 1 46.151 29.401 L 48.322 30.784 L 48.589 30.362 A 2.097 2.097 0 0 1 50.589 26.898 L 50.821 26.456 L 48.538 25.267 A .5 .5 0 0 1 48.311 24.615 A .5 .5 0 0 1 48.972 24.416 L 51.275 25.565 L 51.497 25.116 A 2.097 2.097 0 0 1 53.123 21.463 L 53.308 20.998 L 50.913 20.055 A .5 .5 0 0 1 50.619 19.431 A .5 .5 0 0 1 51.255 19.163 L 53.667 20.065 L 53.84 19.596 A 2.097 2.097 0 0 1 55.076 15.792 L 55.211 15.311 L 52.731 14.623 A .5 .5 0 0 1 52.373 14.033 A .5 .5 0 0 1 52.978 13.701 L 55.47 14.345 L 55.593 13.861 A 2.097 2.097 0 0 1 56.425 9.949 L 56.51 9.456 L 53.97 9.031 A .5 .5 0 0 1 53.553 8.482 A .5 .5 0 0 1 54.12 8.088 L 56.666 8.468 L 56.738 7.974 A 2.097 2.097 0 0 1 57.156 3.996 L 57.188 3.497 L 54.619 3.34 A .5 .5 0 0 1 54.147 2.837 A .5 .5 0 0 1 54.669 2.386 L 57.241 2.499 L 57.26 1.999 A 2.097 2.097 0 0 1 57.26 -1.999 L 57.241 -2.499 L 54.669 -2.386 A .5 .5 0 0 1 54.147 -2.837 A .5 .5 0 0 1 54.619 -3.34 L 57.188 -3.497 L 57.156 -3.996 A 2.097 2.097 0 0 1 56.738 -7.974 L 56.666 -8.468 L 54.12 -8.088 A .5 .5 0 0 1 53.553 -8.482 A .5 .5 0 0 1 53.97 -9.031 L 56.51 -9.456 L 56.425 -9.949 A 2.097 2.097 0 0 1 55.593 -13.861 L 55.47 -14.345 L 52.978 -13.701 A .5 .5 0 0 1 52.373 -14.033 A .5 .5 0 0 1 52.731 -14.623 L 55.211 -15.311 L 55.076 -15.792 A 2.097 2.097 0 0 1 53.84 -19.596 L 53.667 -20.065 L 51.255 -19.163 A .5 .5 0 0 1 50.619 -19.431 A .5 .5 0 0 1 50.913 -20.055 L 53.308 -20.998 L 53.123 -21.463 A 2.097 2.097 0 0 1 51.497 -25.116 L 51.275 -25.565 L 48.972 -24.416 A .5 .5 0 0 1 48.311 -24.615 A .5 .5 0 0 1 48.538 -25.267 L 50.821 -26.456 L 50.589 -26.898 A 2.097 2.097 0 0 1 48.589 -30.362 L 48.322 -30.784 L 46.151 -29.401 A .5 .5 0 0 1 45.473 -29.531 A .5 .5 0 0 1 45.631 -30.202 L 47.778 -31.623 L 47.5 -32.039 A 2.097 2.097 0 0 1 45.149 -35.274 L 44.84 -35.667 L 42.825 -34.064 A .5 .5 0 0 1 42.137 -34.122 A .5 .5 0 0 1 42.224 -34.807 L 44.21 -36.444 L 43.891 -36.829 A 2.097 2.097 0 0 1 41.215 -39.8 L 40.866 -40.159 L 39.03 -38.354 A .5 .5 0 0 1 38.34 -38.34 A .5 .5 0 0 1 38.354 -39.03 L 40.159 -40.866 L 39.8 -41.215 A 2.097 2.097 0 0 1 36.829 -43.891 L 36.444 -44.21 L 34.807 -42.224 A .5 .5 0 0 1 34.122 -42.137 A .5 .5 0 0 1 34.064 -42.825 L 35.667 -44.84 L 35.274 -45.149 A 2.097 2.097 0 0 1 32.039 -47.5 L 31.623 -47.778 L 30.202 -45.631 A .5 .5 0 0 1 29.531 -45.473 A .5 .5 0 0 1 29.401 -46.151 L 30.784 -48.322 L 30.362 -48.589 A 2.097 2.097 0 0 1 26.898 -50.589 L 26.456 -50.821 L 25.267 -48.538 A .5 .5 0 0 1 24.615 -48.311 A .5 .5 0 0 1 24.416 -48.972 L 25.565 -51.275 L 25.116 -51.497 A 2.097 2.097 0 0 1 21.463 -53.123 L 20.998 -53.308 L 20.055 -50.913 A .5 .5 0 0 1 19.431 -50.619 A .5 .5 0 0 1 19.163 -51.255 L 20.065 -53.667 L 19.596 -53.84 A 2.097 2.097 0 0 1 15.792 -55.076 L 15.311 -55.211 L 14.623 -52.731 A .5 .5 0 0 1 14.033 -52.373 A .5 .5 0 0 1 13.701 -52.978 L 14.345 -55.47 L 13.861 -55.593 A 2.097 2.097 0 0 1 9.949 -56.425 L 9.456 -56.51 L 9.031 -53.97 A .5 .5 0 0 1 8.482 -53.553 A .5 .5 0 0 1 8.088 -54.12 L 8.468 -56.666 L 7.974 -56.738 A 2.097 2.097 0 0 1 3.996 -57.156 L 3.497 -57.188 L 3.34 -54.619 A .5 .5 0 0 1 2.837 -54.147 A .5 .5 0 0 1 2.386 -54.669 L 2.499 -57.241 L 1.999 -57.26 A 2.097 2.097 0 0 1 -1.999 -57.26 L -2.499 -57.241 L -2.386 -54.669 A .5 .5 0 0 1 -2.837 -54.147 A .5 .5 0 0 1 -3.34 -54.619 L -3.497 -57.188 L -3.996 -57.156 A 2.097 2.097 0 0 1 -7.974 -56.738 L -8.468 -56.666 L -8.088 -54.12 A .5 .5 0 0 1 -8.482 -53.553 A .5 .5 0 0 1 -9.031 -53.97 L -9.456 -56.51 L -9.949 -56.425 A 2.097 2.097 0 0 1 -13.861 -55.593 L -14.345 -55.47 L -13.701 -52.978 A .5 .5 0 0 1 -14.033 -52.373 A .5 .5 0 0 1 -14.623 -52.731 L -15.311 -55.211 L -15.792 -55.076 A 2.097 2.097 0 0 1 -19.596 -53.84 L -20.065 -53.667 L -19.163 -51.255 A .5 .5 0 0 1 -19.431 -50.619 A .5 .5 0 0 1 -20.055 -50.913 L -20.998 -53.308 L -21.463 -53.123 A 2.097 2.097 0 0 1 -25.116 -51.497 L -25.565 -51.275 L -24.416 -48.972 A .5 .5 0 0 1 -24.615 -48.311 A .5 .5 0 0 1 -25.267 -48.538 L -26.456 -50.821 L -26.898 -50.589 A 2.097 2.097 0 0 1 -30.362 -48.589 L -30.784 -48.322 L -29.401 -46.151 A .5 .5 0 0 1 -29.531 -45.473 A .5 .5 0 0 1 -30.202 -45.631 L -31.623 -47.778 L -32.039 -47.5 A 2.097 2.097 0 0 1 -35.274 -45.149 L -35.667 -44.84 L -34.064 -42.825 A .5 .5 0 0 1 -34.122 -42.137 A .5 .5 0 0 1 -34.807 -42.224 L -36.444 -44.21 L -36.829 -43.891 A 2.097 2.097 0 0 1 -39.8 -41.215 L -40.159 -40.866 L -38.354 -39.03 A .5 .5 0 0 1 -38.34 -38.34 A .5 .5 0 0 1 -39.03 -38.354 L -40.866 -40.159 L -41.215 -39.8 A 2.097 2.097 0 0 1 -43.891 -36.829 L -44.21 -36.444 L -42.224 -34.807 A .5 .5 0 0 1 -42.137 -34.122 A .5 .5 0 0 1 -42.825 -34.064 L -44.84 -35.667 L -45.149 -35.274 A 2.097 2.097 0 0 1 -47.5 -32.039 L -47.778 -31.623 L -45.631 -30.202 A .5 .5 0 0 1 -45.473 -29.531 A .5 .5 0 0 1 -46.151 -29.401 L -48.322 -30.784 L -48.589 -30.362 A 2.097 2.097 0 0 1 -50.589 -26.898 L -50.821 -26.456 L -48.538 -25.267 A .5 .5 0 0 1 -48.311 -24.615 A .5 .5 0 0 1 -48.972 -24.416 L -51.275 -25.565 L -51.497 -25.116 A 2.097 2.097 0 0 1 -53.123 -21.463 L -53.308 -20.998 L -50.913 -20.055 A .5 .5 0 0 1 -50.619 -19.431 A .5 .5 0 0 1 -51.255 -19.163 L -53.667 -20.065 L -53.84 -19.596 A 2.097 2.097 0 0 1 -55.076 -15.792 L -55.211 -15.311 L -52.731 -14.623 A .5 .5 0 0 1 -52.373 -14.033 A .5 .5 0 0 1 -52.978 -13.701 L -55.47 -14.345 L -55.593 -13.861 A 2.097 2.097 0 0 1 -56.425 -9.949 L -56.51 -9.456 L -53.97 -9.031 A .5 .5 0 0 1 -53.553 -8.482 A .5 .5 0 0 1 -54.12 -8.088 L -56.666 -8.468 L -56.738 -7.974 A 2.097 2.097 0 0 1 -57.156 -3.996 L -57.188 -3.497 L -54.619 -3.34 A .5 .5 0 0 1 -54.147 -2.837 A .5 .5 0 0 1 -54.669 -2.386 L -57.241 -2.499 L -57.26 -1.999 A 2.097 2.097 0 0 1 -57.26 1.999 L -57.241 2.499 L -54.669 2.386 A .5 .5 0 0 1 -54.147 2.837 A .5 .5 0 0 1 -54.619 3.34 L -57.188 3.497 L -57.156 3.996 A 2.097 2.097 0 0 1 -56.738 7.974 L -56.666 8.468 L -54.12 8.088 A .5 .5 0 0 1 -53.553 8.482 A .5 .5 0 0 1 -53.97 9.031 L -56.51 9.456 L -56.425 9.949 A 2.097 2.097 0 0 1 -55.593 13.861 L -55.47 14.345 L -52.978 13.701 A .5 .5 0 0 1 -52.373 14.033 A .5 .5 0 0 1 -52.731 14.623 L -55.211 15.311 L -55.076 15.792 A 2.097 2.097 0 0 1 -53.84 19.596 L -53.667 20.065 L -51.255 19.163 A .5 .5 0 0 1 -50.619 19.431 A .5 .5 0 0 1 -50.913 20.055 L -53.308 20.998 L -53.123 21.463 A 2.097 2.097 0 0 1 -51.497 25.116 L -51.275 25.565 L -48.972 24.416 A .5 .5 0 0 1 -48.311 24.615 A .5 .5 0 0 1 -48.538 25.267 L -50.821 26.456 L -50.589 26.898 A 2.097 2.097 0 0 1 -48.589 30.362 L -48.322 30.784 L -46.151 29.401 A .5 .5 0 0 1 -45.473 29.531 A .5 .5 0 0 1 -45.631 30.202 L -47.778 31.623 L -47.5 32.039 A 2.097 2.097 0 0 1 -45.149 35.274 L -44.84 35.667 L -42.825 34.064 A .5 .5 0 0 1 -42.137 34.122 A .5 .5 0 0 1 -42.224 34.807 L -44.21 36.444 L -43.891 36.829 A 2.097 2.097 0 0 1 -41.215 39.8 L -40.866 40.159 L -39.03 38.354 A .5 .5 0 0 1 -38.34 38.34 A .5 .5 0 0 1 -38.354 39.03 L -40.159 40.866 L -39.8 41.215 A 2.097 2.097 0 0 1 -36.829 43.891 L -36.444 44.21 L -34.807 42.224 A .5 .5 0 0 1 -34.122 42.137 A .5 .5 0 0 1 -34.064 42.825 L -35.667 44.84 L -35.274 45.149 A 2.097 2.097 0 0 1 -32.039 47.5 L -31.623 47.778 L -30.202 45.631 A .5 .5 0 0 1 -29.531 45.473 A .5 .5 0 0 1 -29.401 46.151 L -30.784 48.322 L -30.362 48.589 A 2.097 2.097 0 0 1 -26.898 50.589 L -26.456 50.821 L -25.267 48.538 A .5 .5 0 0 1 -24.615 48.311 A .5 .5 0 0 1 -24.416 48.972 L -25.565 51.275 L -25.116 51.497 A 2.097 2.097 0 0 1 -21.463 53.123 L -20.998 53.308 L -20.055 50.913 A .5 .5 0 0 1 -19.431 50.619 A .5 .5 0 0 1 -19.163 51.255 L -20.065 53.667 L -19.596 53.84 A 2.097 2.097 0 0 1 -15.792 55.076 L -15.311 55.211 L -14.623 52.731 A .5 .5 0 0 1 -14.033 52.373 A .5 .5 0 0 1 -13.701 52.978 L -14.345 55.47 L -13.861 55.593 A 2.097 2.097 0 0 1 -9.949 56.425 L -9.456 56.51 L -9.031 53.97 A .5 .5 0 0 1 -8.482 53.553 A .5 .5 0 0 1 -8.088 54.12 L -8.468 56.666 L -7.974 56.738 A 2.097 2.097 0 0 1 -3.996 57.156 L -3.497 57.188 L -3.34 54.619 A .5 .5 0 0 1 -2.837 54.147 Z"/>
<path id="axis" class="hole" d="M -.635 0 a .635 .635 0 1 0 1.27 0 a .635 .635 0 1 0 -1.27 0 Z"/>
<path id="HF60" class="hole" d="M 2.055 0 a .263 .263 0 1 0 .525 0 a .263 .263 0 1 0 -.525 0 Z M .896 2.007 a .263 .263 0 1 0 .525 0 a .263 .263 0 1 0 -.525 0 Z M -1.421 2.007 a .263 .263 0 1 0 .525 0 a .263 .263 0 1 0 -.525 0 Z M -2.58 0 a .263 .263 0 1 0 .525 0 a .263 .263 0 1 0 -.525 0 Z M -1.421 -2.007 a .263 .263 0 1 0 .525 0 a .263 .263 0 1 0 -.525 0 Z M .896 -2.007 a .263 .263 0 1 0 .525 0 a .263 .263 0 1 0 -.525 0 Z"/>
<path id="PFIX" class="hole" d="M 11.2 -3.708 a .212 .212 0 1 0 .425 0 a .212 .212 0 1 0 -.425 0 Z M 6.841 9.708 a .212 .212 0 1 0 .425 0 a .212 .212 0 1 0 -.425 0 Z M -7.266 9.708 a .212 .212 0 1 0 .425 0 a .212 .212 0 1 0 -.425 0 Z M -11.625 -3.708 a .212 .212 0 1 0 .425 0 a .212 .212 0 1 0 -.425 0 Z M -.213 -12 a .212 .212 0 1 0 .425 0 a .212 .212 0 1 0 -.425 0 Z"/>
</svg>