<?xml version="1.0" encoding="UTF-8" standalone="no"?>
<svg version="1.1" xmlns="http://www.w3.org/2000/svg" xmlns:xlink="http://www.w3.org/1999/xlink" width="810px" height="2700px" viewBox="-405 -220 800 2700">
<defs><style type="text/css"><![CDATA[
 .hand { fill:#000000; stroke:#000000; stroke-width:.2 }
 .deco { fill:#FFFF00; stroke:#000000; stroke-width:.2 }
 .hole { fill:#FFFFFF; stroke:#000000; stroke-width:.2 } ]]></style></defs>
<path class="hand" d="M -124.016 172.679 A 212.598 212.598 0 1 1 124.016 172.679 V 1306.538 A 35.433 35.433 0 0 1 124.016 1377.404 V 1483.703 Q 265.748 1430.553 372.047 1465.986 Q 265.748 1519.136 336.614 1607.719 A 177.165 177.165 0 0 1 124.016 1873.467 Q 230.315 2086.065 124.016 2298.664 A 354.330 354.330 0 0 1 53.149 2404.963 Q  0   2458.112 -53.150 2404.963 A 354.330 354.330 0 0 1 -124.016 2298.664 Q -230.315 2086.065 -124.016 1873.467 A 177.165 177.165 0 0 1 -336.614 1607.719 Q -265.748 1519.136 -372.047 1465.986 Q -265.748 1430.553 -124.016 1483.703 V 1377.404 A 35.433 35.433 0 0 1 -124.016 1306.538 V 172.679" /><!-- contour -->
<circle class="hole" cx="0" cy="0" r="70.866" /><!-- central hole -->
<path class="deco" d="M -17.717 456.144 V 916.774 H 17.716 V 456.144 Z" /><!-- slit #1 -->
<path class="deco" d="M -17.717 1058.506 V 1519.136 H 17.716 V 1058.506 Z" /><!-- slit #2 -->
<path class="deco" d="M -258.662 1519.136 Q -237.402 1572.286 -283.465 1625.435 A 88.582 88.582 0 0 0 -53.150 1731.734 A 177.165 177.165 0 0 0 -258.662 1519.136" /><!-- deco left -->
<path class="deco" d="M 258.661 1519.136 A 177.165 177.165 0 0 0 53.149 1731.734 A 88.582 88.582 0 0 0 283.464 1625.435 Q 237.401 1572.286 258.661 1519.136" /><!-- deco right -->
<path class="deco" d="M 53.149 1873.467 H -53.150 Q -159.449 2156.931 0 2334.097 Q 159.449 2156.931 53.149 1873.467" /><!-- deco tip -->
<circle class="hole" cx="0" cy="-141.732" r="24.803" /><!-- perforation -->
<circle class="hole" cx="0" cy="141.732" r="24.803" /><!-- perforation -->
<circle class="hole" cx="0" cy="283.464" r="8.858" /><!-- perforation -->
<circle class="hole" cx="0" cy="992.126" r="8.858" /><!-- perforation -->
<circle class="hole" cx="0" cy="2125.984" r="8.858" /><!-- perforation -->
</svg>
