<?xml version="1.0" encoding="UTF-8" standalone="no"?>
<svg version="1.1" xmlns="http://www.w3.org/2000/svg" xmlns:xlink="http://www.w3.org/1999/xlink" width="700px" height="3620px" viewBox="-350 -220 700 3620">
<defs><style type="text/css"><![CDATA[
 .hand { fill:#000000; stroke:#000000; stroke-width:.2 }
 .deco { fill:#FFFF00; stroke:#000000; stroke-width:.2 }
 .hole { fill:#FFFFFF; stroke:#000000; stroke-width:.2 } ]]></style></defs>
<path class="hand" d="M -124.016 172.679 A 212.598 212.598 0 1 1 124.016 172.679 V 1341.971 A 35.433 35.433 0 0 1 124.016 1412.837 V 1554.569 Q 194.882 1519.136 248.032 1554.569 A 106.299 106.299 0 0 1 248.032 1714.018 A 148.818 148.818 0 0 0 212.599 1926.616 A 124.015 124.015 0 0 1 106.299 2121.498 A 478.346 478.346 0 0 0 194.882 2404.963 A 88.582 88.582 0 0 1 124.016 2546.695 Q 141.732 2635.278 124.016 2723.860 L 53.150 3255.357 Q 0 3450.238 -53.149 3255.357 L -124.016 2723.860 Q -141.732 2635.278 -124.016 2546.695 A 88.582 88.582 0 0 1 -194.882 2404.963 A 478.346 478.346 0 0 0 -106.299 2121.498 A 124.015 124.015 0 0 1 -212.598 1926.616 A 148.818 148.818 0 0 0 -248.031 1714.018 A 106.299 106.299 0 0 1 -248.031 1554.569 Q -194.882 1519.136 -124.016 1554.569 V 1412.837 A 35.433 35.433 0 0 1 -124.016 1341.971 V 172.679" /><!-- contour -->
<circle class="hole" cx="0" cy="0" r="70.866" />
<path class="deco" d="M -17.716 456.144 V 952.207 H 17.717 V 456.144 Z" /><!-- slit #1 -->
<path class="deco" d="M -17.716 1093.939 V 1590.002 H 17.717 V 1093.939 Z" /><!-- slit #2 -->
<path class="deco" d="M -53.149 1696.301 A 106.299 106.299 0 0 0 -230.315 1625.435 A 283.464 283.464 0 0 1 -159.449 1979.766 A 53.149 53.149 0 0 0 -53.149 2015.199 A 637.795 425.196 90.000 0 0 -53.149 1696.301" /><!-- deco left -->
<path class="deco" d="M 230.315 1625.435 A 106.299 106.299 0 0 0 53.150 1696.301 A 637.795 425.196 90.000 0 0 53.150 2015.199 A 53.149 53.149 0 0 0 159.449 1979.766 A 283.464 283.464 0 0 1 230.315 1625.435" /><!-- deco right -->
<path class="deco" d="M 42.520 2156.931 A 42.519 42.519 0 0 0 -42.519 2156.931 A 425.196 425.196 0 0 1 -141.732 2458.112 A 354.330 354.330 0 0 0 141.732 2458.112 A 425.196 425.196 0 0 1 42.520 2156.931" /><!-- deco mid -->
<circle class="deco" cx="0" cy="2635.278" r="53.149" /><!-- deco circle -->
<circle class="hole" cx="0" cy="-141.732" r="24.803" /><!-- perforation -->
<circle class="hole" cx="0" cy="141.732" r="24.803" /><!-- perforation -->
<circle class="hole" cx="0" cy="283.464" r="8.858" /><!-- perforation -->
<circle class="hole" cx="0" cy="1027.559" r="8.858" /><!-- perforation -->
<circle class="hole" cx="0" cy="1629.921" r="8.858" /><!-- perforation -->
<circle class="hole" cx="0" cy="2870.079" r="8.858" /><!-- perforation -->
</svg>
