<?xml version="1.0" encoding="utf-8" ?><!-- MASTER --><!-- SZT 30.10.2025 -->
<svg xmlns="http://www.w3.org/2000/svg" width="138cm" height="138cm" viewBox="-69 -69 138 138">
<defs><style type="text/css">
 #driven { stroke:none; fill:#204060; fill-opacity:.7; fill-rule:evenodd; }
 #bgnd { fill:#BFBFBF; }
</style></defs>
<rect id="bgnd" height="138" width="138" x="-69" y="-69" />
<path id="driven" d="M -3.489 53.24 A .625 .625 0 0 1 -2.942 53.9 L -3.123 57.21 L -2.5 57.241 A 2.583 2.583 0 0 1 2.5 57.241 L 3.123 57.21 L 2.942 53.9 A .625 .625 0 0 1 3.489 53.24 A .625 .625 0 0 1 4.117 53.822 L 4.37 57.128 L 4.993 57.077 A 2.583 2.583 0 0 1 9.949 56.425 L 10.564 56.313 L 9.952 53.053 A .625 .625 0 0 1 10.408 52.329 A .625 .625 0 0 1 11.107 52.824 L 11.79 56.069 L 12.401 55.937 A 2.583 2.583 0 0 1 17.229 54.643 L 17.824 54.452 L 16.792 51.3 A .625 .625 0 0 1 17.15 50.522 A .625 .625 0 0 1 17.907 50.922 L 19.007 54.05 L 19.596 53.84 A 2.583 2.583 0 0 1 24.214 51.927 L 24.779 51.66 L 23.344 48.67 A .625 .625 0 0 1 23.598 47.852 A .625 .625 0 0 1 24.401 48.149 L 25.9 51.107 L 26.456 50.821 A 2.583 2.583 0 0 1 30.784 48.322 L 31.31 47.984 L 29.497 45.206 A .625 .625 0 0 1 29.642 44.362 A .625 .625 0 0 1 30.477 44.552 L 32.349 47.289 L 32.863 46.933 A 2.583 2.583 0 0 1 36.829 43.891 L 37.305 43.486 L 35.146 40.969 A .625 .625 0 0 1 35.179 40.113 A .625 .625 0 0 1 36.031 40.193 L 38.245 42.662 L 38.708 42.242 A 2.583 2.583 0 0 1 42.242 38.708 L 42.662 38.245 L 40.193 36.031 A .625 .625 0 0 1 40.113 35.179 A .625 .625 0 0 1 40.969 35.146 L 43.486 37.305 L 43.891 36.829 A 2.583 2.583 0 0 1 46.933 32.863 L 47.289 32.349 L 44.552 30.477 A .625 .625 0 0 1 44.362 29.642 A .625 .625 0 0 1 45.206 29.497 L 47.984 31.31 L 48.322 30.784 A 2.583 2.583 0 0 1 50.821 26.456 L 51.107 25.9 L 48.149 24.401 A .625 .625 0 0 1 47.852 23.598 A .625 .625 0 0 1 48.67 23.344 L 51.66 24.779 L 51.927 24.214 A 2.583 2.583 0 0 1 53.84 19.596 L 54.05 19.007 L 50.922 17.907 A .625 .625 0 0 1 50.522 17.15 A .625 .625 0 0 1 51.3 16.792 L 54.452 17.824 L 54.643 17.229 A 2.583 2.583 0 0 1 55.937 12.401 L 56.069 11.79 L 52.824 11.107 A .625 .625 0 0 1 52.329 10.408 A .625 .625 0 0 1 53.053 9.952 L 56.313 10.564 L 56.425 9.949 A 2.583 2.583 0 0 1 57.077 4.993 L 57.128 4.37 L 53.822 4.117 A .625 .625 0 0 1 53.24 3.489 A .625 .625 0 0 1 53.9 2.942 L 57.21 3.123 L 57.241 2.5 A 2.583 2.583 0 0 1 57.241 -2.5 L 57.21 -3.123 L 53.9 -2.942 A .625 .625 0 0 1 53.24 -3.489 A .625 .625 0 0 1 53.822 -4.117 L 57.128 -4.37 L 57.077 -4.993 A 2.583 2.583 0 0 1 56.425 -9.949 L 56.313 -10.564 L 53.053 -9.952 A .625 .625 0 0 1 52.329 -10.408 A .625 .625 0 0 1 52.824 -11.107 L 56.069 -11.79 L 55.937 -12.401 A 2.583 2.583 0 0 1 54.643 -17.229 L 54.452 -17.824 L 51.3 -16.792 A .625 .625 0 0 1 50.522 -17.15 A .625 .625 0 0 1 50.922 -17.907 L 54.05 -19.007 L 53.84 -19.596 A 2.583 2.583 0 0 1 51.927 -24.214 L 51.66 -24.779 L 48.67 -23.344 A .625 .625 0 0 1 47.852 -23.598 A .625 .625 0 0 1 48.149 -24.401 L 51.107 -25.9 L 50.821 -26.456 A 2.583 2.583 0 0 1 48.322 -30.784 L 47.984 -31.31 L 45.206 -29.497 A .625 .625 0 0 1 44.362 -29.642 A .625 .625 0 0 1 44.552 -30.477 L 47.289 -32.349 L 46.933 -32.863 A 2.583 2.583 0 0 1 43.891 -36.829 L 43.486 -37.305 L 40.969 -35.146 A .625 .625 0 0 1 40.113 -35.179 A .625 .625 0 0 1 40.193 -36.031 L 42.662 -38.245 L 42.242 -38.708 A 2.583 2.583 0 0 1 38.708 -42.242 L 38.245 -42.662 L 36.031 -40.193 A .625 .625 0 0 1 35.179 -40.113 A .625 .625 0 0 1 35.146 -40.969 L 37.305 -43.486 L 36.829 -43.891 A 2.583 2.583 0 0 1 32.863 -46.933 L 32.349 -47.289 L 30.477 -44.552 A .625 .625 0 0 1 29.642 -44.362 A .625 .625 0 0 1 29.497 -45.206 L 31.31 -47.984 L 30.784 -48.322 A 2.583 2.583 0 0 1 26.456 -50.821 L 25.9 -51.107 L 24.401 -48.149 A .625 .625 0 0 1 23.598 -47.852 A .625 .625 0 0 1 23.344 -48.67 L 24.779 -51.66 L 24.214 -51.927 A 2.583 2.583 0 0 1 19.596 -53.84 L 19.007 -54.05 L 17.907 -50.922 A .625 .625 0 0 1 17.15 -50.522 A .625 .625 0 0 1 16.792 -51.3 L 17.824 -54.452 L 17.229 -54.643 A 2.583 2.583 0 0 1 12.401 -55.937 L 11.79 -56.069 L 11.107 -52.824 A .625 .625 0 0 1 10.408 -52.329 A .625 .625 0 0 1 9.952 -53.053 L 10.564 -56.313 L 9.949 -56.425 A 2.583 2.583 0 0 1 4.993 -57.077 L 4.37 -57.128 L 4.117 -53.822 A .625 .625 0 0 1 3.489 -53.24 A .625 .625 0 0 1 2.942 -53.9 L 3.123 -57.21 L 2.5 -57.241 A 2.583 2.583 0 0 1 -2.5 -57.241 L -3.123 -57.21 L -2.942 -53.9 A .625 .625 0 0 1 -3.489 -53.24 A .625 .625 0 0 1 -4.117 -53.822 L -4.37 -57.128 L -4.993 -57.077 A 2.583 2.583 0 0 1 -9.949 -56.425 L -10.564 -56.313 L -9.952 -53.053 A .625 .625 0 0 1 -10.408 -52.329 A .625 .625 0 0 1 -11.107 -52.824 L -11.79 -56.069 L -12.401 -55.937 A 2.583 2.583 0 0 1 -17.229 -54.643 L -17.824 -54.452 L -16.792 -51.3 A .625 .625 0 0 1 -17.15 -50.522 A .625 .625 0 0 1 -17.907 -50.922 L -19.007 -54.05 L -19.596 -53.84 A 2.583 2.583 0 0 1 -24.214 -51.927 L -24.779 -51.66 L -23.344 -48.67 A .625 .625 0 0 1 -23.598 -47.852 A .625 .625 0 0 1 -24.401 -48.149 L -25.9 -51.107 L -26.456 -50.821 A 2.583 2.583 0 0 1 -30.784 -48.322 L -31.31 -47.984 L -29.497 -45.206 A .625 .625 0 0 1 -29.642 -44.362 A .625 .625 0 0 1 -30.477 -44.552 L -32.349 -47.289 L -32.863 -46.933 A 2.583 2.583 0 0 1 -36.829 -43.891 L -37.305 -43.486 L -35.146 -40.969 A .625 .625 0 0 1 -35.179 -40.113 A .625 .625 0 0 1 -36.031 -40.193 L -38.245 -42.662 L -38.708 -42.242 A 2.583 2.583 0 0 1 -42.242 -38.708 L -42.662 -38.245 L -40.193 -36.031 A .625 .625 0 0 1 -40.113 -35.179 A .625 .625 0 0 1 -40.969 -35.146 L -43.486 -37.305 L -43.891 -36.829 A 2.583 2.583 0 0 1 -46.933 -32.863 L -47.289 -32.349 L -44.552 -30.477 A .625 .625 0 0 1 -44.362 -29.642 A .625 .625 0 0 1 -45.206 -29.497 L -47.984 -31.31 L -48.322 -30.784 A 2.583 2.583 0 0 1 -50.821 -26.456 L -51.107 -25.9 L -48.149 -24.401 A .625 .625 0 0 1 -47.852 -23.598 A .625 .625 0 0 1 -48.67 -23.344 L -51.66 -24.779 L -51.927 -24.214 A 2.583 2.583 0 0 1 -53.84 -19.596 L -54.05 -19.007 L -50.922 -17.907 A .625 .625 0 0 1 -50.522 -17.15 A .625 .625 0 0 1 -51.3 -16.792 L -54.452 -17.824 L -54.643 -17.229 A 2.583 2.583 0 0 1 -55.937 -12.401 L -56.069 -11.79 L -52.824 -11.107 A .625 .625 0 0 1 -52.329 -10.408 A .625 .625 0 0 1 -53.053 -9.952 L -56.313 -10.564 L -56.425 -9.949 A 2.583 2.583 0 0 1 -57.077 -4.993 L -57.128 -4.37 L -53.822 -4.117 A .625 .625 0 0 1 -53.24 -3.489 A .625 .625 0 0 1 -53.9 -2.942 L -57.21 -3.123 L -57.241 -2.5 A 2.583 2.583 0 0 1 -57.241 2.5 L -57.21 3.123 L -53.9 2.942 A .625 .625 0 0 1 -53.24 3.489 A .625 .625 0 0 1 -53.822 4.117 L -57.128 4.37 L -57.077 4.993 A 2.583 2.583 0 0 1 -56.425 9.949 L -56.313 10.564 L -53.053 9.952 A .625 .625 0 0 1 -52.329 10.408 A .625 .625 0 0 1 -52.824 11.107 L -56.069 11.79 L -55.937 12.401 A 2.583 2.583 0 0 1 -54.643 17.229 L -54.452 17.824 L -51.3 16.792 A .625 .625 0 0 1 -50.522 17.15 A .625 .625 0 0 1 -50.922 17.907 L -54.05 19.007 L -53.84 19.596 A 2.583 2.583 0 0 1 -51.927 24.214 L -51.66 24.779 L -48.67 23.344 A .625 .625 0 0 1 -47.852 23.598 A .625 .625 0 0 1 -48.149 24.401 L -51.107 25.9 L -50.821 26.456 A 2.583 2.583 0 0 1 -48.322 30.784 L -47.984 31.31 L -45.206 29.497 A .625 .625 0 0 1 -44.362 29.642 A .625 .625 0 0 1 -44.552 30.477 L -47.289 32.349 L -46.933 32.863 A 2.583 2.583 0 0 1 -43.891 36.829 L -43.486 37.305 L -40.969 35.146 A .625 .625 0 0 1 -40.113 35.179 A .625 .625 0 0 1 -40.193 36.031 L -42.662 38.245 L -42.242 38.708 A 2.583 2.583 0 0 1 -38.708 42.242 L -38.245 42.662 L -36.031 40.193 A .625 .625 0 0 1 -35.179 40.113 A .625 .625 0 0 1 -35.146 40.969 L -37.305 43.486 L -36.829 43.891 A 2.583 2.583 0 0 1 -32.863 46.933 L -32.349 47.289 L -30.477 44.552 A .625 .625 0 0 1 -29.642 44.362 A .625 .625 0 0 1 -29.497 45.206 L -31.31 47.984 L -30.784 48.322 A 2.583 2.583 0 0 1 -26.456 50.821 L -25.9 51.107 L -24.401 48.149 A .625 .625 0 0 1 -23.598 47.852 A .625 .625 0 0 1 -23.344 48.67 L -24.779 51.66 L -24.214 51.927 A 2.583 2.583 0 0 1 -19.596 53.84 L -19.007 54.05 L -17.907 50.922 A .625 .625 0 0 1 -17.15 50.522 A .625 .625 0 0 1 -16.792 51.3 L -17.824 54.452 L -17.229 54.643 A 2.583 2.583 0 0 1 -12.401 55.937 L -11.79 56.069 L -11.107 52.824 A .625 .625 0 0 1 -10.408 52.329 A .625 .625 0 0 1 -9.952 53.053 L -10.564 56.313 L -9.949 56.425 A 2.583 2.583 0 0 1 -4.993 57.077 L -4.37 57.128 L -4.117 53.822 A .625 .625 0 0 1 -3.489 53.24 Z" />
</svg>