<?xml version="1.0" encoding="utf-8"?>
<svg version="1.1" xmlns="http://www.w3.org/2000/svg" width="25cm" height="200cm" viewBox="-12.5 -100 25 200">
<defs><style type="text/css">
 #bgnd { fill:#7F7F7F; stroke:none; }
 #hand { fill:rgba(30,60,90,.7); stroke:none; }
 .deco { fill:rgba(255,255,255,.7); stroke:none; }
</style></defs>
<rect id="bgnd" x="-12.5" y="-100" width="25" height="200" />
<g id="HRS">
 <path id="hand" d="M -3.5 4.873 A 6 6 0 0 1   -1.5 -5.809 V -37.292 A 4 4 0 1 1 1.5 -37.292 V -5.809 A 6 6 0 0 1 3.5 4.873 V 36.873 A 1 1 0 0 1 3.5 38.873 V 41.873 Q 7.5 40.373 10.5 41.373 Q 7.5 42.873 9.5 45.373 A 5 5 0 0 1 3.5 52.873 Q 6.5 58.873 3.5 64.873 A 10 10 0 0 1 1.5 67.873 Q 0 69.373 -1.5 67.873 A 10 10 0 0 1 -3.5 64.873 Q -6.5 58.873 -3.5 52.873 A 5 5 0 0 1 -9.5 45.373 Q -7.5 42.873 -10.5 41.373 Q -7.5 40.373 -3.5 41.873 V 38.873 A 1 1 0 0 1 -3.5 36.873 V 4.873 Z" />
 <path id="strip" class="deco" d="M -1 6.8 V 40.8 A 1 1 0 0 0 1 40.8 V 6.8 A 1 1 0 0 0 -1 6.8 Z" />
 <path id="d_left" class="deco" d="M -7.3 42.873 Q -6.7 44.373 -8 45.873 A 2.5 2.5 0 0 0 -1.5 48.873 A 5 5 0 0 0 -7.3 42.873 Z" />
 <path id="d_right" class="deco" d="M 7.3 42.873 A 5 5 0 0 0 1.5 48.873 A 2.5 2.5 0 0 0 8.0 45.873 Q 6.7 44.373 7.3 42.873 Z" />
 <path id="d_far" class="deco" d="M 1.5 52.873 H -1.5 Q -4.5 60.873 0 65.873 Q 4.5 60.873 1.5 52.873 Z" />
</g></svg>