<?xml version="1.0" encoding="utf-8" ?>
<svg xmlns="http://www.w3.org/2000/svg" width="12cm" height="12cm" viewBox="-6.0 52 12 12">
<defs><style type="text/css">
 path { stroke:none; fill:#204060; fill-opacity:.7; fill-rule:evenodd; }
 #bgd { fill:white; }
</style></defs>
<path id="bgd" d="M -6 52 H 6 V 64 H -6 Z" />
<path id="axis" d="M -0.5,57.895 A 0.5 0.5 0 0 0 0.5 57.895 A 0.5 0.5 0 0 0 -0.5 57.895 Z " />
<path id="disk" d="M -5.816,57.895 A 5.816 5.816 0 1 0 5.816 57.895 A 5.816 5.816 0 1 0 -5.816 57.895 Z " />
<path id="pin" d="M 3.122,57.173 A 0.625 0.625 0 0 0 4.372 57.173 A 0.625 0.625 0 0 0 3.122 57.173 Z " />
<path id="luna" d="M 0,55.312 A 2.583 2.583 0 1 0 0.960 60.293 A 58 58 0 0 1 0 55.312 Z " />
</svg>
