<?xml version="1.0" encoding="utf-8" ?><!-- MASTER --><!-- SZT 1.11.2025 -->
<svg xmlns="http://www.w3.org/2000/svg" width="30cm" height="156cm" viewBox="-15 -53 30 156">
<defs><style type="text/css">
 #bgnd { fill:#7F7F7F; stroke:none; }
 #hand { fill:rgba(30,60,90,.7); stroke:none; }
 .deco { fill:rgba(255,255,255,.7); stroke:none; }</style></defs>
<rect id="bgnd" x="-15" y="-53" width="30" height="156" />
<path id="hand" d="M -3.5 4.873 A 6 6 0 0 1 -3.5 -4.873 V -46.5 A 3.5 3.5 0 0 1 3.5 -46.5 V -4.873 A 6 6 0 0 1 3.5 4.873 V 37.873 A 1.0 1.0 0 0 1 3.5 39.873 V 43.873 Q 5.5 42.873 7.0 43.873 A 3.0 3.0 0 0 1 7.0 48.373 A 4.2 4.2 0 0 0 6.0 54.373 A 3.5 3.5 0 0 1 3.0 59.873 A 13.5 13.5 0 0 0 5.5 67.873 A 2.5 2.5 0 0 1 3.5 71.873 Q 4.0 74.373 3.5 76.873 L 1.5 91.873 Q 0 97.373 -1.5 91.873 L -3.5 76.873 Q -4.0 74.373 -3.5 71.873 A 2.5 2.5 0 0 1 -5.5 67.873 A 13.5 13.5 0 0 0 -3.0 59.873 A 4.0 4.0 0 0 1 -6.0 54.373 A 4.2 4.2 0 0 0 -7.0 48.373 A 3.0 3.0 0 0 1 -7.0 43.873 Q -5.5 42.873 -3.5 43.873 V 39.873 A 1.0 1.0 0 0 1 -3.5 37.873 V 4.873 Z" />
<path id="strip" class="deco" d="M -.5 6.8 V 42.8 H .5 V 6.8 Z" />
<path id="d_left" class="deco" d="M -1.5 47.873 A 3 3 0 0 0 -6.5 45.873 A 8 8 0 0 1 -4.5 55.873 A 1.5 1.5 0 0 0 -1.5 56.873 A 18 12 90 0 0 -1.5 47.873 Z" />
<path id="d_right" class="deco" d="M 6.5 45.873 A 3 3 0 0 0 1.5 47.873 A 18 12.0 90 0 0 1.5 56.873 A 1.5 1.5 0 0 0 4.5 55.873 A 8 8 0 0 1 6.5 45.873 Z" />
<path id="d_far" class="deco" d="M 1.2 60.873 A 1.2 1.2 0 0 0 -1.2 60.873 A 12 12 0 0 1 -4 69.373 A 10 10 0 0 0 4 69.373 A 12 12 0 0 1 1.2 60.873 Z" />
<path id="d_circle" class="deco" d="M -1.5 74.5 A 1.5 1.5 0 0 0 1.5 74.5 A 1.5 1.5 0 0 0 -1.5 74.5 Z" />
</svg>
