<?xml version="1.0" encoding="UTF-8" ?><!-- generated with ../scripts/panels.py --><!-- SZT 2025.11.03 21:01:02 -->
<svg xmlns="http://www.w3.org/2000/svg" width="138cm" height="138cm" viewBox="-69 -69 138 138">
<defs><style>
 path { fill: rgba(30,60,90,.7); stroke: none; fill-rule:evenodd; }
 #bgnd { fill: #FFF; stroke: none; }
</style></defs>
<rect id="bgnd" height="138" width="138" x="-69" y="-69" />
<path id="struts" class="hole" d="M -42.239 40.939 a 1.3 1.3 0 1 0 2.6 0 a 1.3 1.3 0 1 0 -2.6 0 Z M -42.239 -40.939 a 1.3 1.3 0 1 0 2.6 0 a 1.3 1.3 0 1 0 -2.6 0 Z M 37.44 -43.025 a 1.3 1.3 0 1 0 2.6 0 a 1.3 1.3 0 1 0 -2.6 0 Z M 37.44 43.025 a 1.3 1.3 0 1 0 2.6 0 a 1.3 1.3 0 1 0 -2.6 0 Z M -39.159 42.089 a .212 .212 0 1 0 .425 0 a .212 .212 0 1 0 -.425 0 Z M -43.143 42.089 a .212 .212 0 1 0 .425 0 a .212 .212 0 1 0 -.425 0 Z M -41.151 38.639 a .212 .212 0 1 0 .425 0 a .212 .212 0 1 0 -.425 0 Z M -39.159 -39.789 a .212 .212 0 1 0 .425 0 a .212 .212 0 1 0 -.425 0 Z M -43.143 -39.789 a .212 .212 0 1 0 .425 0 a .212 .212 0 1 0 -.425 0 Z M -41.151 -43.239 a .212 .212 0 1 0 .425 0 a .212 .212 0 1 0 -.425 0 Z M 40.519 -41.875 a .212 .212 0 1 0 .425 0 a .212 .212 0 1 0 -.425 0 Z M 36.535 -41.875 a .212 .212 0 1 0 .425 0 a .212 .212 0 1 0 -.425 0 Z M 38.527 -45.325 a .212 .212 0 1 0 .425 0 a .212 .212 0 1 0 -.425 0 Z M 40.519 44.175 a .212 .212 0 1 0 .425 0 a .212 .212 0 1 0 -.425 0 Z M 36.535 44.175 a .212 .212 0 1 0 .425 0 a .212 .212 0 1 0 -.425 0 Z M 38.527 40.725 a .212 .212 0 1 0 .425 0 a .212 .212 0 1 0 -.425 0 Z M 49.4 50 a .6 .6 0 1 0 1.2 0 a .6 .6 0 1 0 -1.2 0 Z M -50.6 50 a .6 .6 0 1 0 1.2 0 a .6 .6 0 1 0 -1.2 0 Z M -50.6 -50 a .6 .6 0 1 0 1.2 0 a .6 .6 0 1 0 -1.2 0 Z M 49.4 -50 a .6 .6 0 1 0 1.2 0 a .6 .6 0 1 0 -1.2 0 Z" />
</svg>