<?xml version="1.0" encoding="UTF-8" ?><!-- generated with ../scripts/sensores.py --><!-- SZT 2025.11.04 17:01:06 -->
<svg xmlns="http://www.w3.org/2000/svg" width="22cm" height="7cm" viewBox="-57 -3.5 22 7">
<defs><style>
 path { fill: rgba(30,60,90,.7); stroke: none; fill-rule:evenodd; }
 #bgnd { fill: #FFF; stroke: none; }
</style></defs>
<rect id="bgnd" height="7" width="22" x="-57" y="-3.5" />
<path id="mags" class="piece" d="M -56 -2 A 0.5 0.5 0 0 1 -55.5 -2.5 H -36.5 A 0.5 0.5 0 0 1 -36 -2 V 2 A 0.5 0.5 0 0 1 -36.5 2.5 H -55.5 A 0.5 0.5 0 0 1 -56 2 Z M -43.782 -.16 H -43.362 V .16 H -43.782 Z M -43.722 .25 H -43.422 V .35 H -43.722 Z M -42.258 -.16 H -41.838 V .16 H -42.258 Z M -42.198 .25 H -41.898 V .35 H -42.198 Z M -40.734 -.16 H -40.314 V .16 H -40.734 Z M -40.674 .25 H -40.374 V .35 H -40.674 Z M -39.21 -.16 H -38.79 V .16 H -39.21 Z M -39.15 .25 H -38.85 V .35 H -39.15 Z" />
</svg>