<?xml version="1.0" encoding="UTF-8" ?><!-- generated with ../scripts/tetrafix.py --><!-- SZT 2025.11.07 17:46:58 -->
<svg xmlns="http://www.w3.org/2000/svg" width="20cm" height="20cm" viewBox="-10 -10 20 20">
<defs><style>
 path { fill: rgba(30,60,90,.7); stroke: none; fill-rule:evenodd; }
 #bgnd { fill: white; stroke: none; }
</style></defs>
<rect id="bgnd" height="20" width="20" x="-10" y="-10" />
<path id="TF48" class="hole" d="M 2.988 -3.2 a .212 .212 0 1 0 .425 0 a .212 .212 0 1 0 -.425 0 Z M 2.988 3.2 a .212 .212 0 1 0 .425 0 a .212 .212 0 1 0 -.425 0 Z M -3.413 3.2 a .212 .212 0 1 0 .425 0 a .212 .212 0 1 0 -.425 0 Z M -3.413 -3.2 a .212 .212 0 1 0 .425 0 a .212 .212 0 1 0 -.425 0 Z" />
</svg>