<?xml version="1.0" encoding="UTF-8" ?><!-- generated with ../scripts/tetrafix.py --><!-- SZT 2025.11.03 21:01:03 -->
<svg xmlns="http://www.w3.org/2000/svg" width="20cm" height="20cm" viewBox="-10 -10 20 20">
<defs><style>
 path { fill: rgba(30,60,90,.7); stroke: none; fill-rule:evenodd; }
 #bgnd { fill: white; stroke: none; }
</style></defs>
<rect id="bgnd" height="20" width="20" x="-10" y="-10" />
<path id="TF60" class="hole" d="M 6.151 -6.364 a .212 .212 0 1 0 .425 0 a .212 .212 0 1 0 -.425 0 Z M 6.151 6.364 a .212 .212 0 1 0 .425 0 a .212 .212 0 1 0 -.425 0 Z M -6.576 6.364 a .212 .212 0 1 0 .425 0 a .212 .212 0 1 0 -.425 0 Z M -6.576 -6.364 a .212 .212 0 1 0 .425 0 a .212 .212 0 1 0 -.425 0 Z" />
</svg>