<?xml version="1.0" encoding="utf-8" ?><!-- MASTER 2CM PIN / axis distance: 59.337 CM --><!-- SZT 15.11.2025 -->
<svg xmlns="http://www.w3.org/2000/svg" width="138cm" height="138cm" viewBox="-69 -69 138 138">
<rect id="bgnd" height="138" width="138" x="-69" y="-69" />
<defs><style type="text/css">
 #driven { stroke:none; fill:#204060; fill-opacity:.7; fill-rule:evenodd; }
 #bgnd { fill:white; }
</style></defs>
<path id="driven" d="M 1.2 57.283 A .2 .2 0 0 1 1 57.087 L 1 55 A 1 1 0 0 0 -1 55 L -1 57.087 A .2 .2 0 0 1 -1.2 57.283 A 57.296 57.296 0 0 1 -6.287 56.95 A .2 .2 0 0 1 -6.46 56.729 L -6.188 54.66 A 1 1 0 0 0 -8.17 54.399 L -8.443 56.468 A .2 .2 0 0 1 -8.667 56.637 A 57.296 57.296 0 0 1 -13.667 55.642 A .2 .2 0 0 1 -13.809 55.401 L -13.269 53.385 A 1 1 0 0 0 -15.201 52.868 L -15.741 54.883 A .2 .2 0 0 1 -15.985 55.021 A 57.296 57.296 0 0 1 -20.813 53.382 A .2 .2 0 0 1 -20.922 53.124 L -20.124 51.197 A 1 1 0 0 0 -21.972 50.431 L -22.77 52.359 A .2 .2 0 0 1 -23.03 52.464 A 57.296 57.296 0 0 1 -27.602 50.209 A .2 .2 0 0 1 -27.677 49.939 L -26.634 48.132 A 1 1 0 0 0 -28.366 47.132 L -29.41 48.939 A .2 .2 0 0 1 -29.681 49.009 A 57.296 57.296 0 0 1 -33.92 46.176 A .2 .2 0 0 1 -33.959 45.899 L -32.689 44.244 A 1 1 0 0 0 -34.276 43.026 L -35.546 44.681 A .2 .2 0 0 1 -35.824 44.715 A 57.296 57.296 0 0 1 -39.657 41.354 A .2 .2 0 0 1 -39.66 41.074 L -38.184 39.598 A 1 1 0 0 0 -39.598 38.184 L -41.074 39.66 A .2 .2 0 0 1 -41.354 39.657 A 57.296 57.296 0 0 1 -44.715 35.824 A .2 .2 0 0 1 -44.681 35.546 L -43.026 34.276 A 1 1 0 0 0 -44.244 32.689 L -45.899 33.959 A .2 .2 0 0 1 -46.176 33.92 A 57.296 57.296 0 0 1 -49.009 29.681 A .2 .2 0 0 1 -48.939 29.41 L -47.132 28.366 A 1 1 0 0 0 -48.132 26.634 L -49.939 27.677 A .2 .2 0 0 1 -50.209 27.602 A 57.296 57.296 0 0 1 -52.464 23.03 A .2 .2 0 0 1 -52.359 22.77 L -50.431 21.972 A 1 1 0 0 0 -51.197 20.124 L -53.124 20.922 A .2 .2 0 0 1 -53.382 20.813 A 57.296 57.296 0 0 1 -55.021 15.985 A .2 .2 0 0 1 -54.883 15.741 L -52.868 15.201 A 1 1 0 0 0 -53.385 13.269 L -55.401 13.809 A .2 .2 0 0 1 -55.642 13.667 A 57.296 57.296 0 0 1 -56.637 8.667 A .2 .2 0 0 1 -56.468 8.443 L -54.399 8.17 A 1 1 0 0 0 -54.66 6.188 L -56.729 6.46 A .2 .2 0 0 1 -56.95 6.287 A 57.296 57.296 0 0 1 -57.283 1.2 A .2 .2 0 0 1 -57.087 1 L -55 1 A 1 1 0 0 0 -55 -1 L -57.087 -1 A .2 .2 0 0 1 -57.283 -1.2 A 57.296 57.296 0 0 1 -56.95 -6.287 A .2 .2 0 0 1 -56.729 -6.46 L -54.66 -6.188 A 1 1 0 0 0 -54.399 -8.17 L -56.468 -8.443 A .2 .2 0 0 1 -56.637 -8.667 A 57.296 57.296 0 0 1 -55.642 -13.667 A .2 .2 0 0 1 -55.401 -13.809 L -53.385 -13.269 A 1 1 0 0 0 -52.868 -15.201 L -54.883 -15.741 A .2 .2 0 0 1 -55.021 -15.985 A 57.296 57.296 0 0 1 -53.382 -20.813 A .2 .2 0 0 1 -53.124 -20.922 L -51.197 -20.124 A 1 1 0 0 0 -50.431 -21.972 L -52.359 -22.77 A .2 .2 0 0 1 -52.464 -23.03 A 57.296 57.296 0 0 1 -50.209 -27.602 A .2 .2 0 0 1 -49.939 -27.677 L -48.132 -26.634 A 1 1 0 0 0 -47.132 -28.366 L -48.939 -29.41 A .2 .2 0 0 1 -49.009 -29.681 A 57.296 57.296 0 0 1 -46.176 -33.92 A .2 .2 0 0 1 -45.899 -33.959 L -44.244 -32.689 A 1 1 0 0 0 -43.026 -34.276 L -44.681 -35.546 A .2 .2 0 0 1 -44.715 -35.824 A 57.296 57.296 0 0 1 -41.354 -39.657 A .2 .2 0 0 1 -41.074 -39.66 L -39.598 -38.184 A 1 1 0 0 0 -38.184 -39.598 L -39.66 -41.074 A .2 .2 0 0 1 -39.657 -41.354 A 57.296 57.296 0 0 1 -35.824 -44.715 A .2 .2 0 0 1 -35.546 -44.681 L -34.276 -43.026 A 1 1 0 0 0 -32.689 -44.244 L -33.959 -45.899 A .2 .2 0 0 1 -33.92 -46.176 A 57.296 57.296 0 0 1 -29.681 -49.009 A .2 .2 0 0 1 -29.41 -48.939 L -28.366 -47.132 A 1 1 0 0 0 -26.634 -48.132 L -27.677 -49.939 A .2 .2 0 0 1 -27.602 -50.209 A 57.296 57.296 0 0 1 -23.03 -52.464 A .2 .2 0 0 1 -22.77 -52.359 L -21.972 -50.431 A 1 1 0 0 0 -20.124 -51.197 L -20.922 -53.124 A .2 .2 0 0 1 -20.813 -53.382 A 57.296 57.296 0 0 1 -15.985 -55.021 A .2 .2 0 0 1 -15.741 -54.883 L -15.201 -52.868 A 1 1 0 0 0 -13.269 -53.385 L -13.809 -55.401 A .2 .2 0 0 1 -13.667 -55.642 A 57.296 57.296 0 0 1 -8.667 -56.637 A .2 .2 0 0 1 -8.443 -56.468 L -8.17 -54.399 A 1 1 0 0 0 -6.188 -54.66 L -6.46 -56.729 A .2 .2 0 0 1 -6.287 -56.95 A 57.296 57.296 0 0 1 -1.2 -57.283 A .2 .2 0 0 1 -1 -57.087 L -1 -55 A 1 1 0 0 0 1 -55 L 1 -57.087 A .2 .2 0 0 1 1.2 -57.283 A 57.296 57.296 0 0 1 6.287 -56.95 A .2 .2 0 0 1 6.46 -56.729 L 6.188 -54.66 A 1 1 0 0 0 8.17 -54.399 L 8.443 -56.468 A .2 .2 0 0 1 8.667 -56.637 A 57.296 57.296 0 0 1 13.667 -55.642 A .2 .2 0 0 1 13.809 -55.401 L 13.269 -53.385 A 1 1 0 0 0 15.201 -52.868 L 15.741 -54.883 A .2 .2 0 0 1 15.985 -55.021 A 57.296 57.296 0 0 1 20.813 -53.382 A .2 .2 0 0 1 20.922 -53.124 L 20.124 -51.197 A 1 1 0 0 0 21.972 -50.431 L 22.77 -52.359 A .2 .2 0 0 1 23.03 -52.464 A 57.296 57.296 0 0 1 27.602 -50.209 A .2 .2 0 0 1 27.677 -49.939 L 26.634 -48.132 A 1 1 0 0 0 28.366 -47.132 L 29.41 -48.939 A .2 .2 0 0 1 29.681 -49.009 A 57.296 57.296 0 0 1 33.92 -46.176 A .2 .2 0 0 1 33.959 -45.899 L 32.689 -44.244 A 1 1 0 0 0 34.276 -43.026 L 35.546 -44.681 A .2 .2 0 0 1 35.824 -44.715 A 57.296 57.296 0 0 1 39.657 -41.354 A .2 .2 0 0 1 39.66 -41.074 L 38.184 -39.598 A 1 1 0 0 0 39.598 -38.184 L 41.074 -39.66 A .2 .2 0 0 1 41.354 -39.657 A 57.296 57.296 0 0 1 44.715 -35.824 A .2 .2 0 0 1 44.681 -35.546 L 43.026 -34.276 A 1 1 0 0 0 44.244 -32.689 L 45.899 -33.959 A .2 .2 0 0 1 46.176 -33.92 A 57.296 57.296 0 0 1 49.009 -29.681 A .2 .2 0 0 1 48.939 -29.41 L 47.132 -28.366 A 1 1 0 0 0 48.132 -26.634 L 49.939 -27.677 A .2 .2 0 0 1 50.209 -27.602 A 57.296 57.296 0 0 1 52.464 -23.03 A .2 .2 0 0 1 52.359 -22.77 L 50.431 -21.972 A 1 1 0 0 0 51.197 -20.124 L 53.124 -20.922 A .2 .2 0 0 1 53.382 -20.813 A 57.296 57.296 0 0 1 55.021 -15.985 A .2 .2 0 0 1 54.883 -15.741 L 52.868 -15.201 A 1 1 0 0 0 53.385 -13.269 L 55.401 -13.809 A .2 .2 0 0 1 55.642 -13.667 A 57.296 57.296 0 0 1 56.637 -8.667 A .2 .2 0 0 1 56.468 -8.443 L 54.399 -8.17 A 1 1 0 0 0 54.66 -6.188 L 56.729 -6.46 A .2 .2 0 0 1 56.95 -6.287 A 57.296 57.296 0 0 1 57.283 -1.2 A .2 .2 0 0 1 57.087 -1 L 55 -1 A 1 1 0 0 0 55 1 L 57.087 1 A .2 .2 0 0 1 57.283 1.2 A 57.296 57.296 0 0 1 56.95 6.287 A .2 .2 0 0 1 56.729 6.46 L 54.66 6.188 A 1 1 0 0 0 54.399 8.17 L 56.468 8.443 A .2 .2 0 0 1 56.637 8.667 A 57.296 57.296 0 0 1 55.642 13.667 A .2 .2 0 0 1 55.401 13.809 L 53.385 13.269 A 1 1 0 0 0 52.868 15.201 L 54.883 15.741 A .2 .2 0 0 1 55.021 15.985 A 57.296 57.296 0 0 1 53.382 20.813 A .2 .2 0 0 1 53.124 20.922 L 51.197 20.124 A 1 1 0 0 0 50.431 21.972 L 52.359 22.77 A .2 .2 0 0 1 52.464 23.03 A 57.296 57.296 0 0 1 50.209 27.602 A .2 .2 0 0 1 49.939 27.677 L 48.132 26.634 A 1 1 0 0 0 47.132 28.366 L 48.939 29.41 A .2 .2 0 0 1 49.009 29.681 A 57.296 57.296 0 0 1 46.176 33.92 A .2 .2 0 0 1 45.899 33.959 L 44.244 32.689 A 1 1 0 0 0 43.026 34.276 L 44.681 35.546 A .2 .2 0 0 1 44.715 35.824 A 57.296 57.296 0 0 1 41.354 39.657 A .2 .2 0 0 1 41.074 39.66 L 39.598 38.184 A 1 1 0 0 0 38.184 39.598 L 39.66 41.074 A .2 .2 0 0 1 39.657 41.354 A 57.296 57.296 0 0 1 35.824 44.715 A .2 .2 0 0 1 35.546 44.681 L 34.276 43.026 A 1 1 0 0 0 32.689 44.244 L 33.959 45.899 A .2 .2 0 0 1 33.92 46.176 A 57.296 57.296 0 0 1 29.681 49.009 A .2 .2 0 0 1 29.41 48.939 L 28.366 47.132 A 1 1 0 0 0 26.634 48.132 L 27.677 49.939 A .2 .2 0 0 1 27.602 50.209 A 57.296 57.296 0 0 1 23.03 52.464 A .2 .2 0 0 1 22.77 52.359 L 21.972 50.431 A 1 1 0 0 0 20.124 51.197 L 20.922 53.124 A .2 .2 0 0 1 20.813 53.382 A 57.296 57.296 0 0 1 15.985 55.021 A .2 .2 0 0 1 15.741 54.883 L 15.201 52.868 A 1 1 0 0 0 13.269 53.385 L 13.809 55.401 A .2 .2 0 0 1 13.667 55.642 A 57.296 57.296 0 0 1 8.667 56.637 A .2 .2 0 0 1 8.443 56.468 L 8.17 54.399 A 1 1 0 0 0 6.188 54.66 L 6.46 56.729 A .2 .2 0 0 1 6.287 56.95 A 57.296 57.296 0 0 1 1.2 57.283 Z"/>
</svg>