<?xml version="1.0" encoding="utf-8" ?><!-- MASTER 2CM PIN / axis distance: 58.949 CM --><!-- SZT 15.11.2025 -->
<svg xmlns="http://www.w3.org/2000/svg" width="138cm" height="138cm" viewBox="-69 -69 138 138">
<rect id="bgnd" height="138" width="138" x="-69" y="-69" />
<defs><style type="text/css">
 #driven { stroke:none; fill:#204060; fill-opacity:.7; fill-rule:evenodd; }
 #bgnd { fill:white; }
</style></defs>
<path id="driven" d="M 1.2 57.283 A .2 .2 0 0 1 1 57.087 L 1 55.477 A 1 1 0 0 0 -1 55.477 L -1 57.087 A .2 .2 0 0 1 -1.2 57.283 A 57.296 57.296 0 0 1 -4.794 57.095 A .2 .2 0 0 1 -4.973 56.879 L -4.804 55.278 A 1 1 0 0 0 -6.793 55.069 L -6.962 56.67 A .2 .2 0 0 1 -7.181 56.844 A 57.296 57.296 0 0 1 -10.736 56.281 A .2 .2 0 0 1 -10.891 56.047 L -10.556 54.473 A 1 1 0 0 0 -12.512 54.057 L -12.847 55.632 A .2 .2 0 0 1 -13.084 55.782 A 57.296 57.296 0 0 1 -16.56 54.85 A .2 .2 0 0 1 -16.69 54.602 L -16.192 53.071 A 1 1 0 0 0 -18.094 52.453 L -18.592 53.984 A .2 .2 0 0 1 -18.843 54.109 A 57.296 57.296 0 0 1 -22.203 52.819 A .2 .2 0 0 1 -22.306 52.558 L -21.651 51.087 A 1 1 0 0 0 -23.478 50.274 L -24.133 51.745 A .2 .2 0 0 1 -24.395 51.843 A 57.296 57.296 0 0 1 -27.602 50.209 A .2 .2 0 0 1 -27.677 49.939 L -26.872 48.544 A 1 1 0 0 0 -28.605 47.544 L -29.41 48.939 A .2 .2 0 0 1 -29.681 49.009 A 57.296 57.296 0 0 1 -32.699 47.048 A .2 .2 0 0 1 -32.746 46.772 L -31.8 45.47 A 1 1 0 0 0 -33.418 44.294 L -34.364 45.597 A .2 .2 0 0 1 -34.641 45.638 A 57.296 57.296 0 0 1 -37.438 43.373 A .2 .2 0 0 1 -37.456 43.093 L -36.378 41.897 A 1 1 0 0 0 -37.864 40.558 L -38.942 41.755 A .2 .2 0 0 1 -39.222 41.767 A 57.296 57.296 0 0 1 -41.767 39.222 A .2 .2 0 0 1 -41.755 38.942 L -40.558 37.864 A 1 1 0 0 0 -41.897 36.378 L -43.093 37.456 A .2 .2 0 0 1 -43.373 37.438 A 57.296 57.296 0 0 1 -45.638 34.641 A .2 .2 0 0 1 -45.597 34.364 L -44.294 33.418 A 1 1 0 0 0 -45.47 31.8 L -46.772 32.746 A .2 .2 0 0 1 -47.048 32.699 A 57.296 57.296 0 0 1 -49.009 29.681 A .2 .2 0 0 1 -48.939 29.41 L -47.544 28.605 A 1 1 0 0 0 -48.544 26.872 L -49.939 27.677 A .2 .2 0 0 1 -50.209 27.602 A 57.296 57.296 0 0 1 -51.843 24.395 A .2 .2 0 0 1 -51.745 24.133 L -50.274 23.478 A 1 1 0 0 0 -51.087 21.651 L -52.558 22.306 A .2 .2 0 0 1 -52.819 22.203 A 57.296 57.296 0 0 1 -54.109 18.843 A .2 .2 0 0 1 -53.984 18.592 L -52.453 18.094 A 1 1 0 0 0 -53.071 16.192 L -54.602 16.69 A .2 .2 0 0 1 -54.85 16.56 A 57.296 57.296 0 0 1 -55.782 13.084 A .2 .2 0 0 1 -55.632 12.847 L -54.057 12.512 A 1 1 0 0 0 -54.473 10.556 L -56.047 10.891 A .2 .2 0 0 1 -56.281 10.736 A 57.296 57.296 0 0 1 -56.844 7.181 A .2 .2 0 0 1 -56.67 6.962 L -55.069 6.793 A 1 1 0 0 0 -55.278 4.804 L -56.879 4.973 A .2 .2 0 0 1 -57.095 4.794 A 57.296 57.296 0 0 1 -57.283 1.2 A .2 .2 0 0 1 -57.087 1 L -55.477 1 A 1 1 0 0 0 -55.477 -1 L -57.087 -1 A .2 .2 0 0 1 -57.283 -1.2 A 57.296 57.296 0 0 1 -57.095 -4.794 A .2 .2 0 0 1 -56.879 -4.973 L -55.278 -4.804 A 1 1 0 0 0 -55.069 -6.793 L -56.67 -6.962 A .2 .2 0 0 1 -56.844 -7.181 A 57.296 57.296 0 0 1 -56.281 -10.736 A .2 .2 0 0 1 -56.047 -10.891 L -54.473 -10.556 A 1 1 0 0 0 -54.057 -12.512 L -55.632 -12.847 A .2 .2 0 0 1 -55.782 -13.084 A 57.296 57.296 0 0 1 -54.85 -16.56 A .2 .2 0 0 1 -54.602 -16.69 L -53.071 -16.192 A 1 1 0 0 0 -52.453 -18.094 L -53.984 -18.592 A .2 .2 0 0 1 -54.109 -18.843 A 57.296 57.296 0 0 1 -52.819 -22.203 A .2 .2 0 0 1 -52.558 -22.306 L -51.087 -21.651 A 1 1 0 0 0 -50.274 -23.478 L -51.745 -24.133 A .2 .2 0 0 1 -51.843 -24.395 A 57.296 57.296 0 0 1 -50.209 -27.602 A .2 .2 0 0 1 -49.939 -27.677 L -48.544 -26.872 A 1 1 0 0 0 -47.544 -28.605 L -48.939 -29.41 A .2 .2 0 0 1 -49.009 -29.681 A 57.296 57.296 0 0 1 -47.048 -32.699 A .2 .2 0 0 1 -46.772 -32.746 L -45.47 -31.8 A 1 1 0 0 0 -44.294 -33.418 L -45.597 -34.364 A .2 .2 0 0 1 -45.638 -34.641 A 57.296 57.296 0 0 1 -43.373 -37.438 A .2 .2 0 0 1 -43.093 -37.456 L -41.897 -36.378 A 1 1 0 0 0 -40.558 -37.864 L -41.755 -38.942 A .2 .2 0 0 1 -41.767 -39.222 A 57.296 57.296 0 0 1 -39.222 -41.767 A .2 .2 0 0 1 -38.942 -41.755 L -37.864 -40.558 A 1 1 0 0 0 -36.378 -41.897 L -37.456 -43.093 A .2 .2 0 0 1 -37.438 -43.373 A 57.296 57.296 0 0 1 -34.641 -45.638 A .2 .2 0 0 1 -34.364 -45.597 L -33.418 -44.294 A 1 1 0 0 0 -31.8 -45.47 L -32.746 -46.772 A .2 .2 0 0 1 -32.699 -47.048 A 57.296 57.296 0 0 1 -29.681 -49.009 A .2 .2 0 0 1 -29.41 -48.939 L -28.605 -47.544 A 1 1 0 0 0 -26.872 -48.544 L -27.677 -49.939 A .2 .2 0 0 1 -27.602 -50.209 A 57.296 57.296 0 0 1 -24.395 -51.843 A .2 .2 0 0 1 -24.133 -51.745 L -23.478 -50.274 A 1 1 0 0 0 -21.651 -51.087 L -22.306 -52.558 A .2 .2 0 0 1 -22.203 -52.819 A 57.296 57.296 0 0 1 -18.843 -54.109 A .2 .2 0 0 1 -18.592 -53.984 L -18.094 -52.453 A 1 1 0 0 0 -16.192 -53.071 L -16.69 -54.602 A .2 .2 0 0 1 -16.56 -54.85 A 57.296 57.296 0 0 1 -13.084 -55.782 A .2 .2 0 0 1 -12.847 -55.632 L -12.512 -54.057 A 1 1 0 0 0 -10.556 -54.473 L -10.891 -56.047 A .2 .2 0 0 1 -10.736 -56.281 A 57.296 57.296 0 0 1 -7.181 -56.844 A .2 .2 0 0 1 -6.962 -56.67 L -6.793 -55.069 A 1 1 0 0 0 -4.804 -55.278 L -4.973 -56.879 A .2 .2 0 0 1 -4.794 -57.095 A 57.296 57.296 0 0 1 -1.2 -57.283 A .2 .2 0 0 1 -1 -57.087 L -1 -55.477 A 1 1 0 0 0 1 -55.477 L 1 -57.087 A .2 .2 0 0 1 1.2 -57.283 A 57.296 57.296 0 0 1 4.794 -57.095 A .2 .2 0 0 1 4.973 -56.879 L 4.804 -55.278 A 1 1 0 0 0 6.793 -55.069 L 6.962 -56.67 A .2 .2 0 0 1 7.181 -56.844 A 57.296 57.296 0 0 1 10.736 -56.281 A .2 .2 0 0 1 10.891 -56.047 L 10.556 -54.473 A 1 1 0 0 0 12.512 -54.057 L 12.847 -55.632 A .2 .2 0 0 1 13.084 -55.782 A 57.296 57.296 0 0 1 16.56 -54.85 A .2 .2 0 0 1 16.69 -54.602 L 16.192 -53.071 A 1 1 0 0 0 18.094 -52.453 L 18.592 -53.984 A .2 .2 0 0 1 18.843 -54.109 A 57.296 57.296 0 0 1 22.203 -52.819 A .2 .2 0 0 1 22.306 -52.558 L 21.651 -51.087 A 1 1 0 0 0 23.478 -50.274 L 24.133 -51.745 A .2 .2 0 0 1 24.395 -51.843 A 57.296 57.296 0 0 1 27.602 -50.209 A .2 .2 0 0 1 27.677 -49.939 L 26.872 -48.544 A 1 1 0 0 0 28.605 -47.544 L 29.41 -48.939 A .2 .2 0 0 1 29.681 -49.009 A 57.296 57.296 0 0 1 32.699 -47.048 A .2 .2 0 0 1 32.746 -46.772 L 31.8 -45.47 A 1 1 0 0 0 33.418 -44.294 L 34.364 -45.597 A .2 .2 0 0 1 34.641 -45.638 A 57.296 57.296 0 0 1 37.438 -43.373 A .2 .2 0 0 1 37.456 -43.093 L 36.378 -41.897 A 1 1 0 0 0 37.864 -40.558 L 38.942 -41.755 A .2 .2 0 0 1 39.222 -41.767 A 57.296 57.296 0 0 1 41.767 -39.222 A .2 .2 0 0 1 41.755 -38.942 L 40.558 -37.864 A 1 1 0 0 0 41.897 -36.378 L 43.093 -37.456 A .2 .2 0 0 1 43.373 -37.438 A 57.296 57.296 0 0 1 45.638 -34.641 A .2 .2 0 0 1 45.597 -34.364 L 44.294 -33.418 A 1 1 0 0 0 45.47 -31.8 L 46.772 -32.746 A .2 .2 0 0 1 47.048 -32.699 A 57.296 57.296 0 0 1 49.009 -29.681 A .2 .2 0 0 1 48.939 -29.41 L 47.544 -28.605 A 1 1 0 0 0 48.544 -26.872 L 49.939 -27.677 A .2 .2 0 0 1 50.209 -27.602 A 57.296 57.296 0 0 1 51.843 -24.395 A .2 .2 0 0 1 51.745 -24.133 L 50.274 -23.478 A 1 1 0 0 0 51.087 -21.651 L 52.558 -22.306 A .2 .2 0 0 1 52.819 -22.203 A 57.296 57.296 0 0 1 54.109 -18.843 A .2 .2 0 0 1 53.984 -18.592 L 52.453 -18.094 A 1 1 0 0 0 53.071 -16.192 L 54.602 -16.69 A .2 .2 0 0 1 54.85 -16.56 A 57.296 57.296 0 0 1 55.782 -13.084 A .2 .2 0 0 1 55.632 -12.847 L 54.057 -12.512 A 1 1 0 0 0 54.473 -10.556 L 56.047 -10.891 A .2 .2 0 0 1 56.281 -10.736 A 57.296 57.296 0 0 1 56.844 -7.181 A .2 .2 0 0 1 56.67 -6.962 L 55.069 -6.793 A 1 1 0 0 0 55.278 -4.804 L 56.879 -4.973 A .2 .2 0 0 1 57.095 -4.794 A 57.296 57.296 0 0 1 57.283 -1.2 A .2 .2 0 0 1 57.087 -1 L 55.477 -1 A 1 1 0 0 0 55.477 1 L 57.087 1 A .2 .2 0 0 1 57.283 1.2 A 57.296 57.296 0 0 1 57.095 4.794 A .2 .2 0 0 1 56.879 4.973 L 55.278 4.804 A 1 1 0 0 0 55.069 6.793 L 56.67 6.962 A .2 .2 0 0 1 56.844 7.181 A 57.296 57.296 0 0 1 56.281 10.736 A .2 .2 0 0 1 56.047 10.891 L 54.473 10.556 A 1 1 0 0 0 54.057 12.512 L 55.632 12.847 A .2 .2 0 0 1 55.782 13.084 A 57.296 57.296 0 0 1 54.85 16.56 A .2 .2 0 0 1 54.602 16.69 L 53.071 16.192 A 1 1 0 0 0 52.453 18.094 L 53.984 18.592 A .2 .2 0 0 1 54.109 18.843 A 57.296 57.296 0 0 1 52.819 22.203 A .2 .2 0 0 1 52.558 22.306 L 51.087 21.651 A 1 1 0 0 0 50.274 23.478 L 51.745 24.133 A .2 .2 0 0 1 51.843 24.395 A 57.296 57.296 0 0 1 50.209 27.602 A .2 .2 0 0 1 49.939 27.677 L 48.544 26.872 A 1 1 0 0 0 47.544 28.605 L 48.939 29.41 A .2 .2 0 0 1 49.009 29.681 A 57.296 57.296 0 0 1 47.048 32.699 A .2 .2 0 0 1 46.772 32.746 L 45.47 31.8 A 1 1 0 0 0 44.294 33.418 L 45.597 34.364 A .2 .2 0 0 1 45.638 34.641 A 57.296 57.296 0 0 1 43.373 37.438 A .2 .2 0 0 1 43.093 37.456 L 41.897 36.378 A 1 1 0 0 0 40.558 37.864 L 41.755 38.942 A .2 .2 0 0 1 41.767 39.222 A 57.296 57.296 0 0 1 39.222 41.767 A .2 .2 0 0 1 38.942 41.755 L 37.864 40.558 A 1 1 0 0 0 36.378 41.897 L 37.456 43.093 A .2 .2 0 0 1 37.438 43.373 A 57.296 57.296 0 0 1 34.641 45.638 A .2 .2 0 0 1 34.364 45.597 L 33.418 44.294 A 1 1 0 0 0 31.8 45.47 L 32.746 46.772 A .2 .2 0 0 1 32.699 47.048 A 57.296 57.296 0 0 1 29.681 49.009 A .2 .2 0 0 1 29.41 48.939 L 28.605 47.544 A 1 1 0 0 0 26.872 48.544 L 27.677 49.939 A .2 .2 0 0 1 27.602 50.209 A 57.296 57.296 0 0 1 24.395 51.843 A .2 .2 0 0 1 24.133 51.745 L 23.478 50.274 A 1 1 0 0 0 21.651 51.087 L 22.306 52.558 A .2 .2 0 0 1 22.203 52.819 A 57.296 57.296 0 0 1 18.843 54.109 A .2 .2 0 0 1 18.592 53.984 L 18.094 52.453 A 1 1 0 0 0 16.192 53.071 L 16.69 54.602 A .2 .2 0 0 1 16.56 54.85 A 57.296 57.296 0 0 1 13.084 55.782 A .2 .2 0 0 1 12.847 55.632 L 12.512 54.057 A 1 1 0 0 0 10.556 54.473 L 10.891 56.047 A .2 .2 0 0 1 10.736 56.281 A 57.296 57.296 0 0 1 7.181 56.844 A .2 .2 0 0 1 6.962 56.67 L 6.793 55.069 A 1 1 0 0 0 4.804 55.278 L 4.973 56.879 A .2 .2 0 0 1 4.794 57.095 A 57.296 57.296 0 0 1 1.2 57.283 Z"/>
</svg>