<?xml version="1.0" encoding="utf-8"?>
<svg xmlns="http://www.w3.org/2000/svg" baseProfile="full" width="210mm" height="210mm" version="1.1" viewBox="-105 -105 210 210">
<defs>
<style id="grid_style" type="text/css">
 #grid line { stroke-width:.001cm; stroke:rgba(0,0,255,.7); }
 #grid .axis-line { stroke-width:.001cm; stroke:rgba(150,0,0,.9); }
 #grid .axis-null-line { stroke-width:.002cm; stroke:rgba(0,120,0,.9); }
 #grid text { fill:rgba(150,0,0,.9); font-size:.045cm; dominant-baseline:central; text-anchor:middle; }
 #grid #header { font-variant: small-caps; fill:rgb(0,0,80); font-size:.07cm; }
 #grid .axis-text { fill:rgb(0,80,0); font-size:.05cm; }
 #bgnd { fill:rgba(255,255,255,1); }
 circle { fill:none; stroke-width:.01mm; stroke:rgba(0,0,0,.5); }
 path { fill:rgba(48,96,155,.5); stroke:none; }
 .marker { fill:rgba(255,0,0,1); stroke:none; }
 #wheel { fill:rgba(48,96,144,.5); stroke:none; }
 #driver { fill:rgba(144,96,48,.5); stroke:none; }
</style>
</defs>
<rect id="bgnd" height="210" width="210" x="-105" y="-105"/>
<circle class="marker" cx="0" cy="72.019" r=".1"/>
<path id="driver" transform="translate(0 72.019) rotate(120)" d="M -1.5 4.23 a 1.5 1.5 0 1 0 3 0 a 1.5 1.5 0 1 0 -3 0 Z M -5.164 -2.115 a 1.5 1.5 0 1 0 3 0 a 1.5 1.5 0 1 0 -3 0 Z M 2.164 -2.115 a 1.5 1.5 0 1 0 3 0 a 1.5 1.5 0 1 0 -3 0 Z "/>
<path id="wheel" transform="rotate(3.0)" d="M 1.8 69.977 A .3 .3 0 0 1 1.5 69.684 L 1.5 67.772 A 1.5 1.5 0 0 0 -1.5 67.772 L -1.5 69.684 A .3 .3 0 0 1 -1.8 69.977 A 70 70 0 0 1 -5.524 69.782 A .3 .3 0 0 1 -5.792 69.459 L -5.592 67.558 A 1.5 1.5 0 0 0 -8.576 67.244 L -8.776 69.145 A .3 .3 0 0 1 -9.105 69.405 A 70 70 0 0 1 -12.788 68.822 A .3 .3 0 0 1 -13.021 68.473 L -12.623 66.603 A 1.5 1.5 0 0 0 -15.558 65.979 L -15.955 67.849 A .3 .3 0 0 1 -16.31 68.073 A 70 70 0 0 1 -19.912 67.108 A .3 .3 0 0 1 -20.107 66.737 L -19.516 64.919 A 1.5 1.5 0 0 0 -22.369 63.992 L -22.96 65.81 A .3 .3 0 0 1 -23.336 65.996 A 70 70 0 0 1 -26.818 64.659 A .3 .3 0 0 1 -26.973 64.269 L -26.195 62.523 A 1.5 1.5 0 0 0 -28.936 61.303 L -29.713 63.049 A .3 .3 0 0 1 -30.107 63.195 A 70 70 0 0 1 -33.43 61.502 A .3 .3 0 0 1 -33.543 61.098 L -32.587 59.443 A 1.5 1.5 0 0 0 -35.185 57.943 L -36.141 59.598 A .3 .3 0 0 1 -36.547 59.702 A 70 70 0 0 1 -39.675 57.67 A .3 .3 0 0 1 -39.746 57.257 L -38.622 55.711 A 1.5 1.5 0 0 0 -41.049 53.947 L -42.173 55.494 A .3 .3 0 0 1 -42.588 55.554 A 70 70 0 0 1 -45.486 53.207 A .3 .3 0 0 1 -45.513 52.789 L -44.234 51.368 A 1.5 1.5 0 0 0 -46.463 49.361 L -47.742 50.782 A .3 .3 0 0 1 -48.161 50.799 A 70 70 0 0 1 -50.799 48.161 A .3 .3 0 0 1 -50.782 47.742 L -49.361 46.463 A 1.5 1.5 0 0 0 -51.368 44.234 L -52.789 45.513 A .3 .3 0 0 1 -53.207 45.486 A 70 70 0 0 1 -55.554 42.588 A .3 .3 0 0 1 -55.494 42.173 L -53.947 41.049 A 1.5 1.5 0 0 0 -55.711 38.622 L -57.257 39.746 A .3 .3 0 0 1 -57.67 39.675 A 70 70 0 0 1 -59.702 36.547 A .3 .3 0 0 1 -59.598 36.141 L -57.943 35.185 A 1.5 1.5 0 0 0 -59.443 32.587 L -61.098 33.543 A .3 .3 0 0 1 -61.502 33.43 A 70 70 0 0 1 -63.195 30.107 A .3 .3 0 0 1 -63.049 29.713 L -61.303 28.936 A 1.5 1.5 0 0 0 -62.523 26.195 L -64.269 26.973 A .3 .3 0 0 1 -64.659 26.818 A 70 70 0 0 1 -65.996 23.336 A .3 .3 0 0 1 -65.81 22.96 L -63.992 22.369 A 1.5 1.5 0 0 0 -64.919 19.516 L -66.737 20.107 A .3 .3 0 0 1 -67.108 19.912 A 70 70 0 0 1 -68.073 16.31 A .3 .3 0 0 1 -67.849 15.955 L -65.979 15.558 A 1.5 1.5 0 0 0 -66.603 12.623 L -68.473 13.021 A .3 .3 0 0 1 -68.822 12.788 A 70 70 0 0 1 -69.405 9.105 A .3 .3 0 0 1 -69.145 8.776 L -67.244 8.576 A 1.5 1.5 0 0 0 -67.558 5.592 L -69.459 5.792 A .3 .3 0 0 1 -69.782 5.524 A 70 70 0 0 1 -69.977 1.8 A .3 .3 0 0 1 -69.684 1.5 L -67.772 1.5 A 1.5 1.5 0 0 0 -67.772 -1.5 L -69.684 -1.5 A .3 .3 0 0 1 -69.977 -1.8 A 70 70 0 0 1 -69.782 -5.524 A .3 .3 0 0 1 -69.459 -5.792 L -67.558 -5.592 A 1.5 1.5 0 0 0 -67.244 -8.576 L -69.145 -8.776 A .3 .3 0 0 1 -69.405 -9.105 A 70 70 0 0 1 -68.822 -12.788 A .3 .3 0 0 1 -68.473 -13.021 L -66.603 -12.623 A 1.5 1.5 0 0 0 -65.979 -15.558 L -67.849 -15.955 A .3 .3 0 0 1 -68.073 -16.31 A 70 70 0 0 1 -67.108 -19.912 A .3 .3 0 0 1 -66.737 -20.107 L -64.919 -19.516 A 1.5 1.5 0 0 0 -63.992 -22.369 L -65.81 -22.96 A .3 .3 0 0 1 -65.996 -23.336 A 70 70 0 0 1 -64.659 -26.818 A .3 .3 0 0 1 -64.269 -26.973 L -62.523 -26.195 A 1.5 1.5 0 0 0 -61.303 -28.936 L -63.049 -29.713 A .3 .3 0 0 1 -63.195 -30.107 A 70 70 0 0 1 -61.502 -33.43 A .3 .3 0 0 1 -61.098 -33.543 L -59.443 -32.587 A 1.5 1.5 0 0 0 -57.943 -35.185 L -59.598 -36.141 A .3 .3 0 0 1 -59.702 -36.547 A 70 70 0 0 1 -57.67 -39.675 A .3 .3 0 0 1 -57.257 -39.746 L -55.711 -38.622 A 1.5 1.5 0 0 0 -53.947 -41.049 L -55.494 -42.173 A .3 .3 0 0 1 -55.554 -42.588 A 70 70 0 0 1 -53.207 -45.486 A .3 .3 0 0 1 -52.789 -45.513 L -51.368 -44.234 A 1.5 1.5 0 0 0 -49.361 -46.463 L -50.782 -47.742 A .3 .3 0 0 1 -50.799 -48.161 A 70 70 0 0 1 -48.161 -50.799 A .3 .3 0 0 1 -47.742 -50.782 L -46.463 -49.361 A 1.5 1.5 0 0 0 -44.234 -51.368 L -45.513 -52.789 A .3 .3 0 0 1 -45.486 -53.207 A 70 70 0 0 1 -42.588 -55.554 A .3 .3 0 0 1 -42.173 -55.494 L -41.049 -53.947 A 1.5 1.5 0 0 0 -38.622 -55.711 L -39.746 -57.257 A .3 .3 0 0 1 -39.675 -57.67 A 70 70 0 0 1 -36.547 -59.702 A .3 .3 0 0 1 -36.141 -59.598 L -35.185 -57.943 A 1.5 1.5 0 0 0 -32.587 -59.443 L -33.543 -61.098 A .3 .3 0 0 1 -33.43 -61.502 A 70 70 0 0 1 -30.107 -63.195 A .3 .3 0 0 1 -29.713 -63.049 L -28.936 -61.303 A 1.5 1.5 0 0 0 -26.195 -62.523 L -26.973 -64.269 A .3 .3 0 0 1 -26.818 -64.659 A 70 70 0 0 1 -23.336 -65.996 A .3 .3 0 0 1 -22.96 -65.81 L -22.369 -63.992 A 1.5 1.5 0 0 0 -19.516 -64.919 L -20.107 -66.737 A .3 .3 0 0 1 -19.912 -67.108 A 70 70 0 0 1 -16.31 -68.073 A .3 .3 0 0 1 -15.955 -67.849 L -15.558 -65.979 A 1.5 1.5 0 0 0 -12.623 -66.603 L -13.021 -68.473 A .3 .3 0 0 1 -12.788 -68.822 A 70 70 0 0 1 -9.105 -69.405 A .3 .3 0 0 1 -8.776 -69.145 L -8.576 -67.244 A 1.5 1.5 0 0 0 -5.592 -67.558 L -5.792 -69.459 A .3 .3 0 0 1 -5.524 -69.782 A 70 70 0 0 1 -1.8 -69.977 A .3 .3 0 0 1 -1.5 -69.684 L -1.5 -67.772 A 1.5 1.5 0 0 0 1.5 -67.772 L 1.5 -69.684 A .3 .3 0 0 1 1.8 -69.977 A 70 70 0 0 1 5.524 -69.782 A .3 .3 0 0 1 5.792 -69.459 L 5.592 -67.558 A 1.5 1.5 0 0 0 8.576 -67.244 L 8.776 -69.145 A .3 .3 0 0 1 9.105 -69.405 A 70 70 0 0 1 12.788 -68.822 A .3 .3 0 0 1 13.021 -68.473 L 12.623 -66.603 A 1.5 1.5 0 0 0 15.558 -65.979 L 15.955 -67.849 A .3 .3 0 0 1 16.31 -68.073 A 70 70 0 0 1 19.912 -67.108 A .3 .3 0 0 1 20.107 -66.737 L 19.516 -64.919 A 1.5 1.5 0 0 0 22.369 -63.992 L 22.96 -65.81 A .3 .3 0 0 1 23.336 -65.996 A 70 70 0 0 1 26.818 -64.659 A .3 .3 0 0 1 26.973 -64.269 L 26.195 -62.523 A 1.5 1.5 0 0 0 28.936 -61.303 L 29.713 -63.049 A .3 .3 0 0 1 30.107 -63.195 A 70 70 0 0 1 33.43 -61.502 A .3 .3 0 0 1 33.543 -61.098 L 32.587 -59.443 A 1.5 1.5 0 0 0 35.185 -57.943 L 36.141 -59.598 A .3 .3 0 0 1 36.547 -59.702 A 70 70 0 0 1 39.675 -57.67 A .3 .3 0 0 1 39.746 -57.257 L 38.622 -55.711 A 1.5 1.5 0 0 0 41.049 -53.947 L 42.173 -55.494 A .3 .3 0 0 1 42.588 -55.554 A 70 70 0 0 1 45.486 -53.207 A .3 .3 0 0 1 45.513 -52.789 L 44.234 -51.368 A 1.5 1.5 0 0 0 46.463 -49.361 L 47.742 -50.782 A .3 .3 0 0 1 48.161 -50.799 A 70 70 0 0 1 50.799 -48.161 A .3 .3 0 0 1 50.782 -47.742 L 49.361 -46.463 A 1.5 1.5 0 0 0 51.368 -44.234 L 52.789 -45.513 A .3 .3 0 0 1 53.207 -45.486 A 70 70 0 0 1 55.554 -42.588 A .3 .3 0 0 1 55.494 -42.173 L 53.947 -41.049 A 1.5 1.5 0 0 0 55.711 -38.622 L 57.257 -39.746 A .3 .3 0 0 1 57.67 -39.675 A 70 70 0 0 1 59.702 -36.547 A .3 .3 0 0 1 59.598 -36.141 L 57.943 -35.185 A 1.5 1.5 0 0 0 59.443 -32.587 L 61.098 -33.543 A .3 .3 0 0 1 61.502 -33.43 A 70 70 0 0 1 63.195 -30.107 A .3 .3 0 0 1 63.049 -29.713 L 61.303 -28.936 A 1.5 1.5 0 0 0 62.523 -26.195 L 64.269 -26.973 A .3 .3 0 0 1 64.659 -26.818 A 70 70 0 0 1 65.996 -23.336 A .3 .3 0 0 1 65.81 -22.96 L 63.992 -22.369 A 1.5 1.5 0 0 0 64.919 -19.516 L 66.737 -20.107 A .3 .3 0 0 1 67.108 -19.912 A 70 70 0 0 1 68.073 -16.31 A .3 .3 0 0 1 67.849 -15.955 L 65.979 -15.558 A 1.5 1.5 0 0 0 66.603 -12.623 L 68.473 -13.021 A .3 .3 0 0 1 68.822 -12.788 A 70 70 0 0 1 69.405 -9.105 A .3 .3 0 0 1 69.145 -8.776 L 67.244 -8.576 A 1.5 1.5 0 0 0 67.558 -5.592 L 69.459 -5.792 A .3 .3 0 0 1 69.782 -5.524 A 70 70 0 0 1 69.977 -1.8 A .3 .3 0 0 1 69.684 -1.5 L 67.772 -1.5 A 1.5 1.5 0 0 0 67.772 1.5 L 69.684 1.5 A .3 .3 0 0 1 69.977 1.8 A 70 70 0 0 1 69.782 5.524 A .3 .3 0 0 1 69.459 5.792 L 67.558 5.592 A 1.5 1.5 0 0 0 67.244 8.576 L 69.145 8.776 A .3 .3 0 0 1 69.405 9.105 A 70 70 0 0 1 68.822 12.788 A .3 .3 0 0 1 68.473 13.021 L 66.603 12.623 A 1.5 1.5 0 0 0 65.979 15.558 L 67.849 15.955 A .3 .3 0 0 1 68.073 16.31 A 70 70 0 0 1 67.108 19.912 A .3 .3 0 0 1 66.737 20.107 L 64.919 19.516 A 1.5 1.5 0 0 0 63.992 22.369 L 65.81 22.96 A .3 .3 0 0 1 65.996 23.336 A 70 70 0 0 1 64.659 26.818 A .3 .3 0 0 1 64.269 26.973 L 62.523 26.195 A 1.5 1.5 0 0 0 61.303 28.936 L 63.049 29.713 A .3 .3 0 0 1 63.195 30.107 A 70 70 0 0 1 61.502 33.43 A .3 .3 0 0 1 61.098 33.543 L 59.443 32.587 A 1.5 1.5 0 0 0 57.943 35.185 L 59.598 36.141 A .3 .3 0 0 1 59.702 36.547 A 70 70 0 0 1 57.67 39.675 A .3 .3 0 0 1 57.257 39.746 L 55.711 38.622 A 1.5 1.5 0 0 0 53.947 41.049 L 55.494 42.173 A .3 .3 0 0 1 55.554 42.588 A 70 70 0 0 1 53.207 45.486 A .3 .3 0 0 1 52.789 45.513 L 51.368 44.234 A 1.5 1.5 0 0 0 49.361 46.463 L 50.782 47.742 A .3 .3 0 0 1 50.799 48.161 A 70 70 0 0 1 48.161 50.799 A .3 .3 0 0 1 47.742 50.782 L 46.463 49.361 A 1.5 1.5 0 0 0 44.234 51.368 L 45.513 52.789 A .3 .3 0 0 1 45.486 53.207 A 70 70 0 0 1 42.588 55.554 A .3 .3 0 0 1 42.173 55.494 L 41.049 53.947 A 1.5 1.5 0 0 0 38.622 55.711 L 39.746 57.257 A .3 .3 0 0 1 39.675 57.67 A 70 70 0 0 1 36.547 59.702 A .3 .3 0 0 1 36.141 59.598 L 35.185 57.943 A 1.5 1.5 0 0 0 32.587 59.443 L 33.543 61.098 A .3 .3 0 0 1 33.43 61.502 A 70 70 0 0 1 30.107 63.195 A .3 .3 0 0 1 29.713 63.049 L 28.936 61.303 A 1.5 1.5 0 0 0 26.195 62.523 L 26.973 64.269 A .3 .3 0 0 1 26.818 64.659 A 70 70 0 0 1 23.336 65.996 A .3 .3 0 0 1 22.96 65.81 L 22.369 63.992 A 1.5 1.5 0 0 0 19.516 64.919 L 20.107 66.737 A .3 .3 0 0 1 19.912 67.108 A 70 70 0 0 1 16.31 68.073 A .3 .3 0 0 1 15.955 67.849 L 15.558 65.979 A 1.5 1.5 0 0 0 12.623 66.603 L 13.021 68.473 A .3 .3 0 0 1 12.788 68.822 A 70 70 0 0 1 9.105 69.405 A .3 .3 0 0 1 8.776 69.145 L 8.576 67.244 A 1.5 1.5 0 0 0 5.592 67.558 L 5.792 69.459 A .3 .3 0 0 1 5.524 69.782 A 70 70 0 0 1 1.8 69.977 Z"/>
</svg>
